<svg width="691" height="494" viewBox="0 0 691 494" fill="none" xmlns="http://www.w3.org/2000/svg">
<g clip-path="url(#clip0_293_145)">
<mask id="mask0_293_145" style="mask-type:luminance" maskUnits="userSpaceOnUse" x="0" y="9" width="309" height="311">
<path d="M0.354492 9.17255H308.81V319.001H0.354492V9.17255Z" fill="white"/>
</mask>
<g mask="url(#mask0_293_145)">
<path d="M0.382867 163.964C0.378886 168.757 0.593867 173.538 1.03578 178.312C1.47768 183.085 2.14253 187.827 3.03033 192.536C3.91415 197.246 5.02091 201.904 6.34265 206.51C7.66439 211.12 9.20111 215.655 10.9488 220.118C12.6966 224.581 14.6473 228.952 16.8051 233.232C18.9629 237.511 21.3118 241.68 23.8597 245.74C26.4076 249.801 29.1427 253.731 32.0569 257.537C34.9711 261.339 38.0605 264.997 41.317 268.513C44.924 272.414 48.714 276.121 52.6991 279.632C55.5696 282.156 58.5355 284.573 61.5891 286.878C64.6426 289.183 67.7758 291.372 70.9925 293.443C74.2093 295.517 77.4977 297.464 80.8618 299.291C84.2219 301.118 87.6457 302.818 91.1371 304.391C94.6246 305.963 98.1678 307.4 101.763 308.71C105.358 310.02 108.997 311.19 112.679 312.23C116.362 313.265 120.076 314.164 123.826 314.925C127.577 315.685 131.351 316.306 135.145 316.784C138.943 317.266 142.749 317.604 146.571 317.799C150.393 317.994 154.214 318.046 158.04 317.958C161.866 317.871 165.684 317.64 169.49 317.266C173.296 316.895 177.086 316.378 180.856 315.725C184.626 315.068 188.365 314.276 192.075 313.34C195.786 312.409 199.456 311.338 203.087 310.132C206.718 308.925 210.301 307.584 213.832 306.111C217.363 304.638 220.831 303.033 224.243 301.301C224.271 301.277 224.299 301.277 224.322 301.25C226.345 300.218 228.343 299.148 230.318 298.029C232.293 296.91 234.24 295.752 236.162 294.545C238.085 293.343 239.984 292.097 241.851 290.807C243.719 289.521 245.558 288.191 247.365 286.822C249.177 285.456 250.952 284.047 252.7 282.598C254.448 281.153 256.164 279.668 257.844 278.143C259.524 276.618 261.172 275.062 262.784 273.465C264.397 271.869 265.973 270.236 267.514 268.572C269.055 266.904 270.56 265.208 272.025 263.472C273.49 261.741 274.915 259.977 276.304 258.181C277.69 256.39 279.039 254.563 280.345 252.707C281.651 250.852 282.917 248.973 284.139 247.062C285.365 245.151 286.544 243.212 287.682 241.25C288.821 239.287 289.916 237.3 290.967 235.29C292.018 233.279 293.021 231.245 293.981 229.191C294.944 227.132 295.856 225.058 296.728 222.964C297.596 220.866 298.416 218.752 299.192 216.618C299.968 214.488 300.697 212.339 301.374 210.177C302.054 208.011 302.687 205.833 303.273 203.64C303.858 201.446 304.391 199.245 304.877 197.027C305.367 194.81 305.801 192.584 306.191 190.351C306.581 188.113 306.919 185.872 307.206 183.623C307.497 181.369 307.736 179.116 307.927 176.855C308.114 174.593 308.253 172.328 308.345 170.063C308.432 167.793 308.472 165.528 308.464 163.259C308.452 160.99 308.392 158.72 308.281 156.455C308.169 154.19 308.01 151.929 307.799 149.667C307.588 147.41 307.325 145.157 307.015 142.907C306.704 140.662 306.346 138.421 305.936 136.191C305.526 133.958 305.068 131.736 304.563 129.527C304.053 127.313 303.5 125.116 302.894 122.926C302.289 120.74 301.636 118.567 300.936 116.409C300.235 114.251 299.487 112.109 298.69 109.987C297.894 107.861 297.054 105.755 296.166 103.665C295.279 101.579 294.343 99.5128 293.364 97.4665C292.384 95.4202 291.357 93.3938 290.29 91.3952C289.219 89.3927 288.108 87.4181 286.95 85.4633C285.795 83.5126 284.597 81.5857 283.355 79.6867C282.113 77.7877 280.831 75.9165 279.505 74.0772C278.179 72.234 276.818 70.4225 275.413 68.639C274.007 66.8594 272.566 65.1077 271.085 63.3878C269.604 61.672 268.083 59.9879 266.527 58.3358C264.97 56.6836 263.378 55.0672 261.753 53.4867C260.125 51.9062 258.465 50.3615 256.769 48.8527C255.073 47.3478 253.345 45.8788 251.581 44.4455C249.822 43.0163 248.03 41.6229 246.207 40.2733C244.387 38.9197 242.536 37.6099 240.657 36.3399C238.774 35.0699 236.867 33.8398 234.932 32.6574C232.997 31.471 231.039 30.3284 229.056 29.2296C227.069 28.1268 225.063 27.0718 223.029 26.0646C220.998 25.0534 218.948 24.0859 216.874 23.1663C214.8 22.2467 212.705 21.3748 210.591 20.5467C208.481 19.7186 206.352 18.9383 204.202 18.2058C202.056 17.4733 199.894 16.7885 197.716 16.1515C195.539 15.5106 193.349 14.9213 191.144 14.3839C188.942 13.8425 186.728 13.3488 184.503 12.9069C182.278 12.465 180.044 12.0708 177.799 11.7245C175.557 11.3821 173.308 11.0875 171.051 10.8407C168.797 10.5978 166.536 10.4027 164.271 10.2554C162.01 10.1121 159.74 10.0166 157.475 9.97278C155.206 9.925 152.937 9.93296 150.667 9.9887C148.402 10.0444 146.133 10.1479 143.871 10.3032C141.606 10.4585 139.349 10.6655 137.096 10.9203C134.838 11.1751 132.593 11.4816 130.351 11.836C128.11 12.1903 125.877 12.5924 123.655 13.0462C121.43 13.5001 119.22 14.0017 117.019 14.5511C114.817 15.1045 112.631 15.7016 110.454 16.3506C108.28 16.9995 106.122 17.6922 103.976 18.4367C101.834 19.1772 99.7085 19.9694 97.5985 20.8055C95.4885 21.6415 93.4024 22.5253 91.3322 23.4569C89.262 24.3845 87.2117 25.3599 85.1853 26.3791C83.1589 27.3983 81.1564 28.4612 79.1778 29.572C77.1952 30.6787 75.2444 31.8293 73.3135 33.0276C71.3867 34.222 69.4837 35.4561 67.6085 36.7341C65.7334 38.016 63.8902 39.3337 62.0747 40.6953C60.2593 42.0529 58.4718 43.4542 56.7201 44.8954C54.9644 46.3326 53.2446 47.8096 51.5566 49.3264C49.8646 50.8393 48.2124 52.3919 46.5921 53.9804C44.9717 55.5689 43.3872 57.1932 41.8386 58.8493C40.2899 60.5095 38.7771 62.2015 37.304 63.9253C35.831 65.6491 34.3978 67.4048 33.0004 69.1963C31.603 70.9839 30.2494 72.8033 28.9317 74.6505C27.6179 76.4978 26.34 78.3769 25.1098 80.2799C23.8756 82.1829 22.6853 84.1177 21.5387 86.0724C20.3921 88.0312 19.2854 90.0138 18.2264 92.0163C17.1674 94.0228 16.1522 96.0532 15.1808 98.1035C14.2134 100.154 13.2858 102.224 12.4099 104.318C11.5301 106.408 10.698 108.518 9.90976 110.648C9.12547 112.778 8.38896 114.92 7.69624 117.082C7.0075 119.243 6.36255 121.417 5.76936 123.607C5.17617 125.796 4.62677 127.998 4.12913 130.215C3.63546 132.429 3.1856 134.65 2.78748 136.884C2.38538 139.117 2.03902 141.359 1.73646 143.608C1.43787 145.857 1.18706 148.111 0.988001 150.372C0.784963 152.629 0.633679 154.895 0.534151 157.16C0.434621 159.429 0.382867 161.694 0.382867 163.964Z" fill="#011214"/>
</g>
<path d="M52.6983 279.62C55.5687 282.148 58.5347 284.565 61.5882 286.87C64.6418 289.175 67.7749 291.36 70.9917 293.435C74.2085 295.505 77.4969 297.455 80.861 299.283C84.221 301.11 87.6448 302.81 91.1363 304.379C94.6238 305.951 98.167 307.392 101.762 308.702C105.357 310.008 108.996 311.182 112.678 312.218C116.361 313.257 120.075 314.156 123.826 314.917C127.576 315.677 131.35 316.294 135.144 316.776C138.942 317.254 142.748 317.592 146.57 317.787C150.392 317.982 154.214 318.038 158.04 317.95C161.865 317.859 165.683 317.628 169.489 317.258C173.295 316.883 177.085 316.37 180.855 315.713C184.626 315.06 188.364 314.264 192.074 313.332C195.785 312.397 199.455 311.33 203.086 310.124C206.717 308.913 210.3 307.576 213.831 306.103C217.363 304.63 220.83 303.025 224.242 301.293C224.27 301.265 224.298 301.265 224.322 301.242C231.524 297.113 237.85 291.918 243.296 285.655C277.112 245.697 224.879 215.32 228.617 177.428C232.372 139.511 234.47 91.9048 196.497 92.912C196.497 92.912 186.509 60.2148 135.757 72.425C84.9735 84.6392 85.2163 145.224 71.9074 170.154C59.948 192.568 26.1799 240.433 52.6983 279.62Z" fill="#025648"/>
<path d="M41.3125 268.501C43.0642 270.396 44.8597 272.243 46.703 274.05C48.5502 275.854 50.4373 277.609 52.3682 279.321C54.299 281.029 56.2737 282.689 58.2921 284.298C60.3066 285.91 62.3608 287.467 64.4549 288.976C66.549 290.484 68.6789 291.938 70.8486 293.335C73.0144 294.736 75.216 296.082 77.4494 297.372C79.6828 298.658 81.9481 299.892 84.2452 301.066C86.5423 302.245 88.8673 303.36 91.2202 304.419C93.573 305.478 95.9498 306.477 98.3544 307.416C100.755 308.356 103.18 309.232 105.628 310.052C108.076 310.868 110.541 311.624 113.025 312.317C115.513 313.01 118.013 313.639 120.529 314.208C123.045 314.773 125.574 315.279 128.117 315.721C130.661 316.159 133.209 316.537 135.773 316.848C138.333 317.162 140.901 317.409 143.473 317.592C146.049 317.775 148.624 317.895 151.204 317.946C153.784 318.002 156.36 317.99 158.94 317.915C161.519 317.839 164.095 317.7 166.667 317.493C169.239 317.29 171.803 317.019 174.362 316.684C176.918 316.35 179.466 315.952 182.006 315.49C184.542 315.028 187.07 314.503 189.578 313.914C192.091 313.324 194.587 312.671 197.067 311.955C199.547 311.242 202.004 310.466 204.444 309.626C206.885 308.79 209.301 307.89 211.698 306.931C214.09 305.971 216.463 304.952 218.804 303.873C221.149 302.794 223.462 301.656 225.751 300.461C228.036 299.267 230.29 298.017 232.515 296.707C234.737 295.397 236.926 294.036 239.084 292.618C241.238 291.197 243.356 289.728 245.438 288.203C247.516 286.679 249.558 285.102 251.561 283.474C253.563 281.845 255.522 280.169 257.441 278.442C259.356 276.718 261.231 274.942 263.059 273.123C259.555 266.864 255.877 261.358 252.357 257.915C239.255 245.147 173.658 230.628 173.658 230.628H138.126C138.126 230.628 48.3153 247.862 41.3125 268.501Z" fill="white"/>
<path d="M155.496 257.915C172.889 258.289 176.074 247.253 177.177 241.548C177.579 238.801 177.782 236.038 177.786 233.263C177.925 228.307 177.985 222.168 178.495 216.009C178.594 214.771 178.71 213.529 178.849 212.311C178.988 211.033 179.163 209.775 179.363 208.533L178.2 207.864L132.142 181.501C132.142 181.501 131.907 186.557 131.553 193.48C131.063 203.91 130.315 218.565 129.841 226.615C129.702 228.816 129.586 230.528 129.487 231.512C128.862 238.499 138.126 257.54 155.496 257.915Z" fill="#FFA68B"/>
<path d="M129.846 226.615L178.499 216.009C178.599 214.771 178.714 213.529 178.854 212.311L178.205 207.864L132.151 181.501C132.151 181.501 131.912 186.557 131.558 193.484C131.064 203.91 130.315 218.569 129.846 226.615Z" fill="#CD544F"/>
<path d="M122.95 166.145C120.286 166.05 117.241 150.249 104.103 152.247C90.9652 154.246 89.0025 180.039 105.246 182.233C105.958 182.357 106.679 182.424 107.403 182.436C108.124 182.448 108.849 182.404 109.565 182.305C110.282 182.205 110.986 182.05 111.683 181.843C112.376 181.632 113.049 181.373 113.702 181.059C114.354 180.744 114.979 180.382 115.577 179.972C116.174 179.562 116.735 179.104 117.261 178.606C117.786 178.109 118.272 177.575 118.714 177.002C119.16 176.429 119.554 175.823 119.904 175.19C119.904 175.19 139.408 217.47 169.406 216.981C199.404 216.491 211.614 190.976 212.438 180.235C213.258 169.497 211.682 128.352 211.682 128.352C189.702 125.179 189.363 110.58 189.363 110.58C189.363 110.58 173.315 143.608 122.95 166.145Z" fill="#FFA68B"/>
<path d="M186.266 233.63C186.266 233.63 191.202 264.515 160.153 268.071C129.108 271.622 120.641 240.055 120.748 234.39" stroke="#D0DAE9" stroke-width="1.96779" stroke-miterlimit="10"/>
<mask id="mask1_293_145" style="mask-type:luminance" maskUnits="userSpaceOnUse" x="309" y="182" width="315" height="315">
<path d="M309 182H623.925V496.582H309V182Z" fill="white"/>
</mask>
<g mask="url(#mask1_293_145)">
<path d="M623.925 339.208C623.925 341.779 623.865 344.351 623.738 346.919C623.61 349.487 623.423 352.051 623.172 354.611C622.921 357.171 622.607 359.718 622.229 362.262C621.85 364.806 621.413 367.342 620.911 369.862C620.409 372.386 619.848 374.895 619.223 377.387C618.598 379.883 617.913 382.359 617.165 384.82C616.42 387.284 615.612 389.724 614.748 392.145C613.88 394.565 612.957 396.966 611.973 399.339C610.99 401.716 609.947 404.068 608.848 406.393C607.749 408.718 606.595 411.012 605.38 413.281C604.17 415.55 602.904 417.788 601.582 419.993C600.257 422.199 598.883 424.368 597.454 426.51C596.025 428.648 594.548 430.75 593.015 432.816C591.482 434.879 589.902 436.905 588.269 438.896C586.641 440.882 584.961 442.829 583.233 444.736C581.506 446.639 579.734 448.502 577.915 450.321C576.099 452.141 574.236 453.912 572.329 455.64C570.426 457.368 568.479 459.048 566.493 460.676C564.502 462.309 562.476 463.893 560.413 465.422C558.347 466.955 556.245 468.436 554.107 469.865C551.969 471.294 549.796 472.668 547.59 473.993C545.385 475.315 543.147 476.581 540.882 477.791C538.613 479.006 536.315 480.16 533.991 481.263C531.666 482.362 529.317 483.405 526.94 484.388C524.567 485.372 522.166 486.295 519.746 487.163C517.325 488.031 514.885 488.835 512.425 489.584C509.964 490.328 507.484 491.017 504.992 491.642C502.496 492.267 499.988 492.828 497.463 493.33C494.943 493.831 492.411 494.273 489.867 494.652C487.323 495.026 484.772 495.34 482.212 495.595C479.652 495.846 477.088 496.037 474.52 496.16C471.952 496.288 469.38 496.352 466.809 496.352C464.241 496.352 461.669 496.288 459.101 496.164C456.533 496.037 453.969 495.846 451.41 495.595C448.85 495.344 446.298 495.03 443.754 494.652C441.21 494.273 438.678 493.835 436.154 493.334C433.634 492.832 431.126 492.267 428.629 491.646C426.137 491.021 423.657 490.332 421.197 489.588C418.736 488.839 416.296 488.035 413.875 487.167C411.455 486.303 409.054 485.375 406.677 484.392C404.305 483.409 401.952 482.366 399.627 481.267C397.302 480.168 395.009 479.014 392.739 477.799C390.47 476.589 388.233 475.319 386.027 473.997C383.822 472.676 381.652 471.302 379.514 469.873C377.376 468.444 375.274 466.963 373.208 465.43C371.142 463.901 369.115 462.317 367.129 460.688C365.138 459.056 363.191 457.376 361.288 455.648C359.381 453.92 357.518 452.149 355.703 450.329C353.883 448.514 352.112 446.651 350.384 444.744C348.656 442.841 346.976 440.894 345.344 438.904C343.715 436.917 342.131 434.891 340.602 432.824C339.07 430.758 337.589 428.656 336.159 426.518C334.73 424.38 333.357 422.211 332.035 420.005C330.713 417.799 329.443 415.562 328.233 413.293C327.019 411.024 325.864 408.73 324.765 406.405C323.666 404.08 322.623 401.728 321.64 399.355C320.657 396.978 319.729 394.577 318.865 392.157C317.997 389.736 317.193 387.296 316.445 384.836C315.7 382.375 315.015 379.895 314.39 377.403C313.765 374.907 313.2 372.398 312.698 369.874C312.197 367.354 311.759 364.822 311.381 362.278C311.002 359.734 310.688 357.182 310.437 354.623C310.186 352.063 309.995 349.499 309.872 346.931C309.744 344.363 309.681 341.791 309.681 339.22C309.681 336.652 309.744 334.08 309.872 331.512C309.999 328.944 310.186 326.38 310.437 323.82C310.692 321.261 311.006 318.709 311.385 316.165C311.763 313.621 312.201 311.089 312.702 308.565C313.204 306.045 313.769 303.537 314.394 301.04C315.019 298.548 315.704 296.068 316.449 293.608C317.197 291.147 318.005 288.707 318.869 286.286C319.737 283.866 320.661 281.465 321.648 279.092C322.631 276.715 323.674 274.363 324.773 272.042C325.872 269.717 327.027 267.42 328.241 265.15C329.451 262.885 330.721 260.648 332.043 258.442C333.365 256.236 334.738 254.063 336.167 251.925C337.596 249.787 339.077 247.685 340.61 245.619C342.143 243.557 343.723 241.53 345.356 239.54C346.988 237.553 348.668 235.606 350.392 233.703C352.12 231.796 353.895 229.933 355.711 228.118C357.53 226.298 359.393 224.527 361.3 222.799C363.203 221.071 365.15 219.395 367.141 217.763C369.127 216.13 371.154 214.55 373.22 213.017C375.286 211.484 377.388 210.007 379.526 208.578C381.664 207.149 383.838 205.775 386.043 204.454C388.249 203.132 390.486 201.862 392.751 200.652C395.021 199.437 397.318 198.283 399.643 197.184C401.968 196.085 404.317 195.042 406.693 194.059C409.07 193.076 411.467 192.152 413.887 191.284C416.312 190.42 418.752 189.612 421.213 188.867C423.673 188.119 426.153 187.434 428.645 186.809C431.142 186.188 433.65 185.623 436.17 185.121C438.694 184.62 441.226 184.182 443.77 183.803C446.314 183.429 448.866 183.115 451.425 182.86C453.985 182.609 456.549 182.422 459.117 182.295C461.685 182.171 464.257 182.107 466.825 182.107C469.4 182.1 471.972 182.151 474.544 182.271C477.116 182.386 479.68 182.569 482.244 182.812C484.803 183.055 487.359 183.362 489.907 183.732C492.451 184.102 494.987 184.536 497.515 185.03C500.039 185.527 502.551 186.085 505.052 186.702C507.548 187.323 510.028 188.004 512.492 188.744C514.957 189.485 517.401 190.289 519.83 191.149C522.254 192.013 524.655 192.932 527.035 193.912C529.412 194.895 531.769 195.934 534.098 197.029C536.423 198.128 538.724 199.278 540.997 200.488C543.267 201.699 545.508 202.965 547.717 204.286C549.927 205.604 552.101 206.982 554.243 208.407C556.384 209.836 558.487 211.317 560.557 212.846C562.623 214.379 564.653 215.959 566.644 217.591C568.634 219.224 570.581 220.904 572.488 222.632C574.395 224.359 576.258 226.135 578.082 227.954C579.901 229.774 581.673 231.637 583.401 233.544C585.128 235.451 586.808 237.402 588.441 239.392C590.073 241.383 591.653 243.409 593.186 245.479C594.719 247.546 596.196 249.652 597.625 251.794C599.054 253.935 600.428 256.109 601.75 258.319C603.067 260.528 604.333 262.766 605.544 265.039C606.754 267.308 607.908 269.609 609.003 271.938C610.102 274.267 611.141 276.62 612.121 279.001C613.1 281.377 614.024 283.782 614.883 286.207C615.747 288.631 616.548 291.076 617.288 293.54C618.033 296.004 618.709 298.484 619.33 300.985C619.951 303.481 620.505 305.993 621.002 308.521C621.496 311.045 621.93 313.581 622.3 316.129C622.671 318.677 622.977 321.229 623.22 323.793C623.467 326.352 623.646 328.92 623.765 331.492C623.881 334.06 623.937 336.636 623.925 339.208Z" fill="#025648"/>
</g>
<path d="M588.019 439.234C586.164 441.483 584.249 443.677 582.27 445.819C580.292 447.957 578.257 450.043 576.163 452.069C574.073 454.1 571.923 456.066 569.722 457.973C567.52 459.884 565.267 461.727 562.962 463.511C560.657 465.295 558.304 467.01 555.903 468.663C553.502 470.315 551.058 471.899 548.566 473.416C546.078 474.933 543.55 476.378 540.982 477.752C538.41 479.129 535.806 480.431 533.163 481.661C530.523 482.891 527.848 484.046 525.145 485.129C522.438 486.212 519.703 487.215 516.94 488.146C514.181 489.074 511.394 489.926 508.583 490.702C505.776 491.475 502.946 492.171 500.099 492.788C497.249 493.405 494.386 493.943 491.508 494.401C488.63 494.859 485.743 495.237 482.845 495.535C479.947 495.83 477.041 496.049 474.13 496.184C471.216 496.32 468.306 496.375 465.392 496.348C462.477 496.32 459.567 496.212 456.657 496.025C453.751 495.838 450.849 495.567 447.958 495.217C445.064 494.867 442.182 494.437 439.315 493.927C436.445 493.417 433.59 492.828 430.756 492.159C427.917 491.491 425.102 490.746 422.308 489.918C419.513 489.094 416.742 488.19 413.999 487.211C411.256 486.231 408.541 485.176 405.854 484.046C403.166 482.915 400.515 481.713 397.895 480.435C395.276 479.157 392.696 477.807 390.152 476.386C387.608 474.961 385.104 473.472 382.643 471.911C380.183 470.351 377.767 468.722 375.398 467.026C373.029 465.33 370.708 463.571 368.435 461.747C366.162 459.924 363.94 458.037 361.774 456.09C359.609 454.139 357.495 452.133 355.44 450.067C353.382 448.004 351.388 445.882 349.449 443.705C347.51 441.531 345.635 439.302 343.819 437.02C360.556 413.153 386.505 396.592 441.063 395.975C504.025 395.214 550.341 392.917 569.471 414.085C576.434 421.892 582.617 430.276 588.019 439.234Z" fill="white"/>
<path d="M414.771 299.587C384.562 288.659 389.487 248.812 393.775 247.956C398.058 247.1 407.267 254.166 407.697 254.381C408.131 254.596 405.559 236.598 411.343 228.245C417.128 219.889 439.196 236.813 456.123 237.028C473.047 237.243 513.97 238.313 525.965 249.027C537.96 259.74 531.733 282.663 531.733 282.663C531.733 282.663 545.464 286.306 542.674 305.587C539.883 324.872 518.245 341.429 510.534 355.323C502.822 369.218 457.007 371.793 449.901 351.653" fill="#011214"/>
<path d="M464.532 419.197C442.568 419.197 439.335 400.864 439.248 397.762C439.248 397.412 439.204 396.791 439.248 395.947C439.204 394.223 439.204 391.564 439.204 388.466C439.292 380.098 439.379 368.541 439.248 363.58L481.181 348.571L488.793 345.824L497.253 342.814C497.253 342.814 497.209 344.451 497.122 347.154C497.074 348.703 497.03 350.606 496.986 352.775C496.994 353.03 496.979 353.285 496.943 353.536C496.899 356.677 496.855 360.264 496.768 364.03C496.632 375.85 496.588 389.135 497.209 393.916C498.356 403.212 486.488 419.197 464.532 419.197Z" fill="#FFB5A6"/>
<path d="M497.293 352.867C497.194 353.098 497.074 353.317 496.939 353.528C482.061 384.127 459.699 396.257 439.244 395.947C439.2 394.223 439.2 391.564 439.2 388.466C439.288 380.098 439.375 368.541 439.244 363.58L481.173 348.571L496.987 352.775L497.293 352.867Z" fill="#E86B70"/>
<path d="M413.939 272.38C438.363 301.661 498.686 296.375 498.686 296.375C498.686 296.375 499.828 330.656 505.828 330.37C511.828 330.083 512.827 311.089 527.537 314.234C542.251 317.383 533.111 345.8 521.685 347.369C510.255 348.938 507.401 339.228 507.401 339.228C507.401 339.228 486.332 381.01 452.907 381.01C419.485 381.01 410.929 348.965 411.128 331.512C411.327 314.059 413.939 272.38 413.939 272.38Z" fill="#FFB5A6"/>
</g>
<defs>
<clipPath id="clip0_293_145">
<rect width="691" height="493.79" fill="white"/>
</clipPath>
</defs>
</svg>
