<svg xmlns="http://www.w3.org/2000/svg" xmlns:xlink="http://www.w3.org/1999/xlink" width="614" zoomAndPan="magnify" viewBox="0 0 460.5 119.999999" height="160" preserveAspectRatio="xMidYMid meet" version="1.0"><defs><g/><clipPath id="cea1656275"><path d="M 0 0.0664062 L 459.441406 0.0664062 L 459.441406 119.230469 L 0 119.230469 Z M 0 0.0664062 " clip-rule="nonzero"/></clipPath><clipPath id="b1820b5496"><path d="M 18.730469 0.0664062 L 440.679688 0.0664062 C 445.644531 0.0664062 450.410156 2.039062 453.921875 5.550781 C 457.433594 9.0625 459.40625 13.828125 459.40625 18.792969 L 459.40625 100.5 C 459.40625 105.46875 457.433594 110.234375 453.921875 113.746094 C 450.410156 117.257812 445.644531 119.230469 440.679688 119.230469 L 18.730469 119.230469 C 13.761719 119.230469 9 117.257812 5.484375 113.746094 C 1.972656 110.234375 0 105.46875 0 100.5 L 0 18.792969 C 0 13.828125 1.972656 9.0625 5.484375 5.550781 C 9 2.039062 13.761719 0.0664062 18.730469 0.0664062 Z M 18.730469 0.0664062 " clip-rule="nonzero"/></clipPath><clipPath id="551af2376d"><path d="M 50 20.34375 L 88.070312 20.34375 L 88.070312 59 L 50 59 Z M 50 20.34375 " clip-rule="nonzero"/></clipPath><clipPath id="f201339651"><path d="M 298.539062 92.96875 L 312.773438 92.96875 L 312.773438 107 L 298.539062 107 Z M 298.539062 92.96875 " clip-rule="nonzero"/></clipPath><clipPath id="434095e184"><path d="M 148.457031 94.953125 L 160.441406 94.953125 L 160.441406 106.941406 L 148.457031 106.941406 Z M 148.457031 94.953125 " clip-rule="nonzero"/></clipPath><clipPath id="32ce403fb2"><path d="M 157 103 L 160.441406 103 L 160.441406 106.941406 L 157 106.941406 Z M 157 103 " clip-rule="nonzero"/></clipPath></defs><g clip-path="url(#cea1656275)"><g clip-path="url(#b1820b5496)"><path fill="#011214" d="M 0 0.0664062 L 459.441406 0.0664062 L 459.441406 119.230469 L 0 119.230469 Z M 0 0.0664062 " fill-opacity="1" fill-rule="nonzero"/></g></g><g clip-path="url(#551af2376d)"><path fill="#7ec543" d="M 88.386719 39.246094 C 88.386719 39.867188 88.355469 40.484375 88.292969 41.097656 C 88.234375 41.714844 88.144531 42.328125 88.023438 42.933594 C 87.902344 43.539062 87.753906 44.140625 87.574219 44.730469 C 87.394531 45.324219 87.183594 45.90625 86.949219 46.476562 C 86.710938 47.050781 86.445312 47.609375 86.15625 48.152344 C 85.863281 48.699219 85.546875 49.230469 85.203125 49.746094 C 84.859375 50.257812 84.492188 50.753906 84.097656 51.234375 C 83.707031 51.710938 83.289062 52.171875 82.851562 52.609375 C 82.414062 53.046875 81.957031 53.460938 81.480469 53.851562 C 81 54.246094 80.503906 54.613281 79.988281 54.957031 C 79.476562 55.300781 78.945312 55.621094 78.398438 55.910156 C 77.855469 56.203125 77.296875 56.46875 76.722656 56.703125 C 76.152344 56.941406 75.570312 57.148438 74.976562 57.328125 C 74.386719 57.507812 73.785156 57.660156 73.179688 57.78125 C 72.570312 57.902344 71.960938 57.992188 71.34375 58.050781 C 70.730469 58.113281 70.113281 58.144531 69.492188 58.144531 C 68.875 58.144531 68.257812 58.113281 67.640625 58.050781 C 67.023438 57.992188 66.414062 57.902344 65.804688 57.78125 C 65.199219 57.660156 64.601562 57.507812 64.007812 57.328125 C 63.414062 57.148438 62.832031 56.941406 62.261719 56.703125 C 61.691406 56.46875 61.132812 56.203125 60.585938 55.914062 C 60.039062 55.621094 59.511719 55.300781 58.996094 54.957031 C 58.480469 54.613281 57.984375 54.246094 57.507812 53.855469 C 57.027344 53.460938 56.570312 53.046875 56.132812 52.609375 C 55.695312 52.171875 55.28125 51.714844 54.886719 51.234375 C 54.496094 50.757812 54.125 50.261719 53.78125 49.746094 C 53.4375 49.230469 53.121094 48.703125 52.828125 48.15625 C 52.539062 47.609375 52.273438 47.050781 52.035156 46.480469 C 51.800781 45.90625 51.589844 45.324219 51.410156 44.734375 C 51.230469 44.140625 51.082031 43.542969 50.960938 42.933594 C 50.839844 42.328125 50.75 41.714844 50.6875 41.101562 C 50.628906 40.484375 50.597656 39.867188 50.597656 39.25 C 50.597656 38.628906 50.628906 38.011719 50.691406 37.398438 C 50.75 36.78125 50.839844 36.167969 50.960938 35.5625 C 51.082031 34.957031 51.234375 34.355469 51.414062 33.765625 C 51.59375 33.171875 51.800781 32.589844 52.039062 32.019531 C 52.273438 31.445312 52.539062 30.886719 52.832031 30.34375 C 53.121094 29.796875 53.441406 29.265625 53.785156 28.75 C 54.128906 28.238281 54.496094 27.742188 54.886719 27.261719 C 55.28125 26.785156 55.695312 26.324219 56.132812 25.886719 C 56.570312 25.449219 57.027344 25.035156 57.507812 24.644531 C 57.984375 24.25 58.484375 23.882812 58.996094 23.539062 C 59.511719 23.195312 60.042969 22.878906 60.585938 22.585938 C 61.132812 22.292969 61.691406 22.03125 62.265625 21.792969 C 62.835938 21.558594 63.417969 21.347656 64.007812 21.167969 C 64.601562 20.988281 65.203125 20.839844 65.808594 20.71875 C 66.414062 20.597656 67.027344 20.507812 67.644531 20.445312 C 68.257812 20.386719 68.875 20.355469 69.496094 20.355469 C 70.113281 20.355469 70.730469 20.382812 71.347656 20.441406 C 71.964844 20.5 72.578125 20.589844 73.183594 20.707031 C 73.792969 20.828125 74.394531 20.976562 74.984375 21.152344 C 75.578125 21.332031 76.160156 21.539062 76.734375 21.777344 C 77.308594 22.011719 77.867188 22.273438 78.414062 22.566406 C 78.960938 22.859375 79.492188 23.175781 80.007812 23.519531 C 80.519531 23.863281 81.019531 24.230469 81.496094 24.625 C 81.976562 25.015625 82.433594 25.429688 82.871094 25.867188 C 83.308594 26.308594 83.726562 26.765625 84.117188 27.246094 C 84.511719 27.722656 84.878906 28.21875 85.222656 28.734375 C 85.566406 29.25 85.882812 29.78125 86.175781 30.328125 C 86.464844 30.875 86.730469 31.433594 86.964844 32.007812 C 87.203125 32.578125 87.410156 33.164062 87.585938 33.753906 C 87.765625 34.347656 87.914062 34.949219 88.035156 35.558594 C 88.152344 36.164062 88.242188 36.777344 88.300781 37.394531 C 88.359375 38.007812 88.386719 38.628906 88.386719 39.246094 Z M 88.386719 39.246094 " fill-opacity="1" fill-rule="nonzero"/></g><path fill="#ffffff" d="M 84.066406 51.273438 C 83.621094 51.816406 83.144531 52.332031 82.640625 52.816406 C 82.136719 53.304688 81.609375 53.765625 81.054688 54.195312 C 80.5 54.621094 79.921875 55.019531 79.324219 55.386719 C 78.726562 55.75 78.105469 56.082031 77.472656 56.375 C 76.835938 56.671875 76.183594 56.933594 75.519531 57.15625 C 74.855469 57.378906 74.179688 57.566406 73.496094 57.714844 C 72.808594 57.863281 72.117188 57.972656 71.421875 58.042969 C 70.722656 58.117188 70.023438 58.148438 69.320312 58.140625 C 68.621094 58.136719 67.921875 58.089844 67.226562 58.007812 C 66.527344 57.921875 65.839844 57.800781 65.15625 57.640625 C 64.472656 57.476562 63.804688 57.28125 63.140625 57.042969 C 62.480469 56.808594 61.835938 56.535156 61.207031 56.230469 C 60.574219 55.921875 59.964844 55.578125 59.371094 55.203125 C 58.78125 54.828125 58.210938 54.421875 57.664062 53.980469 C 57.117188 53.542969 56.59375 53.074219 56.101562 52.578125 C 55.605469 52.082031 55.140625 51.558594 54.703125 51.007812 C 56.714844 48.140625 59.835938 46.148438 66.394531 46.074219 C 73.96875 45.980469 79.535156 45.707031 81.835938 48.25 C 82.675781 49.1875 83.417969 50.199219 84.066406 51.273438 Z M 84.066406 51.273438 " fill-opacity="1" fill-rule="nonzero"/><path fill="#032f37" d="M 63.234375 34.484375 C 59.601562 33.167969 60.195312 28.378906 60.710938 28.273438 C 61.226562 28.171875 62.332031 29.019531 62.382812 29.046875 C 62.4375 29.074219 62.128906 26.910156 62.824219 25.902344 C 63.519531 24.898438 66.171875 26.933594 68.207031 26.960938 C 70.242188 26.984375 75.164062 27.113281 76.605469 28.402344 C 78.046875 29.691406 77.300781 32.449219 77.300781 32.449219 C 77.300781 32.449219 78.949219 32.886719 78.613281 35.203125 C 78.277344 37.523438 75.679688 39.515625 74.75 41.183594 C 73.824219 42.855469 68.3125 43.164062 67.460938 40.742188 " fill-opacity="1" fill-rule="nonzero"/><path fill="#ffb5a6" d="M 69.21875 48.863281 C 66.578125 48.863281 66.1875 46.660156 66.179688 46.289062 C 66.179688 46.246094 66.171875 46.171875 66.179688 46.070312 C 66.171875 45.863281 66.171875 45.542969 66.171875 45.171875 C 66.183594 44.164062 66.195312 42.773438 66.179688 42.175781 L 71.21875 40.371094 L 72.136719 40.042969 L 73.152344 39.679688 C 73.152344 39.679688 73.148438 39.878906 73.136719 40.203125 C 73.132812 40.390625 73.125 40.617188 73.121094 40.878906 C 73.121094 40.910156 73.121094 40.941406 73.117188 40.96875 C 73.109375 41.347656 73.105469 41.777344 73.09375 42.230469 C 73.078125 43.652344 73.074219 45.25 73.148438 45.824219 C 73.285156 46.941406 71.859375 48.863281 69.21875 48.863281 Z M 69.21875 48.863281 " fill-opacity="1" fill-rule="nonzero"/><path fill="#e86b70" d="M 73.15625 40.890625 C 73.144531 40.917969 73.132812 40.945312 73.117188 40.96875 C 71.328125 44.648438 68.636719 46.105469 66.179688 46.070312 C 66.171875 45.863281 66.171875 45.542969 66.171875 45.171875 C 66.183594 44.164062 66.195312 42.773438 66.179688 42.175781 L 71.21875 40.371094 L 73.121094 40.878906 Z M 73.15625 40.890625 " fill-opacity="1" fill-rule="nonzero"/><path fill="#ffb5a6" d="M 63.136719 31.210938 C 66.070312 34.730469 73.324219 34.097656 73.324219 34.097656 C 73.324219 34.097656 73.464844 38.21875 74.183594 38.183594 C 74.90625 38.148438 75.027344 35.867188 76.796875 36.242188 C 78.5625 36.621094 77.464844 40.039062 76.089844 40.226562 C 74.71875 40.417969 74.375 39.25 74.375 39.25 C 74.375 39.25 71.839844 44.273438 67.820312 44.273438 C 63.800781 44.273438 62.773438 40.421875 62.796875 38.320312 C 62.820312 36.222656 63.136719 31.210938 63.136719 31.210938 Z M 63.136719 31.210938 " fill-opacity="1" fill-rule="nonzero"/><g clip-path="url(#f201339651)"><path fill="#ffffff" d="M 312.457031 99.925781 C 312.457031 103.769531 309.34375 106.886719 305.5 106.886719 C 301.65625 106.886719 298.539062 103.769531 298.539062 99.925781 C 298.539062 96.082031 301.65625 92.96875 305.5 92.96875 C 309.34375 92.96875 312.457031 96.082031 312.457031 99.925781 Z M 312.457031 99.925781 " fill-opacity="1" fill-rule="nonzero"/></g><path fill="#6b0000" d="M 309.894531 99.074219 C 309.894531 101.554688 306.371094 103.613281 305.632812 104.019531 C 305.550781 104.066406 305.445312 104.066406 305.363281 104.019531 C 304.625 103.617188 301.101562 101.558594 301.101562 99.074219 C 301.101562 99.058594 301.101562 99.039062 301.101562 99.019531 C 301.101562 99.011719 301.101562 98.996094 301.101562 98.984375 C 301.101562 98.921875 301.105469 98.855469 301.105469 98.792969 C 301.195312 97.539062 302.140625 96.550781 303.296875 96.550781 C 304.511719 96.550781 305.496094 97.640625 305.496094 98.984375 C 305.496094 97.640625 306.480469 96.550781 307.695312 96.550781 C 308.863281 96.550781 309.816406 97.554688 309.890625 98.828125 C 309.890625 98.878906 309.894531 98.933594 309.894531 98.984375 L 309.894531 98.988281 C 309.894531 99.019531 309.894531 99.046875 309.894531 99.074219 Z M 309.894531 99.074219 " fill-opacity="1" fill-rule="nonzero"/><g clip-path="url(#434095e184)"><path fill="#ffffff" d="M 160.167969 100.808594 C 160.167969 101.195312 160.128906 101.574219 160.054688 101.953125 C 159.980469 102.328125 159.871094 102.695312 159.722656 103.050781 C 159.574219 103.40625 159.394531 103.742188 159.179688 104.0625 C 158.96875 104.382812 158.722656 104.679688 158.453125 104.949219 C 158.179688 105.222656 157.886719 105.464844 157.566406 105.679688 C 157.246094 105.890625 156.90625 106.070312 156.554688 106.21875 C 156.199219 106.367188 155.832031 106.476562 155.453125 106.550781 C 155.078125 106.628906 154.695312 106.664062 154.3125 106.664062 C 153.925781 106.664062 153.546875 106.628906 153.167969 106.550781 C 152.792969 106.476562 152.425781 106.367188 152.070312 106.21875 C 151.714844 106.070312 151.378906 105.890625 151.058594 105.679688 C 150.738281 105.464844 150.441406 105.222656 150.171875 104.949219 C 149.898438 104.679688 149.65625 104.382812 149.441406 104.0625 C 149.230469 103.742188 149.050781 103.40625 148.902344 103.050781 C 148.753906 102.695312 148.644531 102.328125 148.570312 101.953125 C 148.492188 101.574219 148.457031 101.195312 148.457031 100.808594 C 148.457031 100.425781 148.492188 100.042969 148.570312 99.667969 C 148.644531 99.289062 148.753906 98.921875 148.902344 98.566406 C 149.050781 98.214844 149.230469 97.875 149.441406 97.554688 C 149.65625 97.234375 149.898438 96.941406 150.171875 96.667969 C 150.441406 96.398438 150.738281 96.152344 151.058594 95.941406 C 151.378906 95.726562 151.714844 95.546875 152.070312 95.398438 C 152.425781 95.25 152.792969 95.140625 153.167969 95.066406 C 153.546875 94.992188 153.925781 94.953125 154.3125 94.953125 C 154.695312 94.953125 155.078125 94.992188 155.453125 95.066406 C 155.832031 95.140625 156.199219 95.25 156.554688 95.398438 C 156.90625 95.546875 157.246094 95.726562 157.566406 95.941406 C 157.886719 96.152344 158.179688 96.398438 158.453125 96.667969 C 158.722656 96.941406 158.96875 97.234375 159.179688 97.554688 C 159.394531 97.875 159.574219 98.214844 159.722656 98.566406 C 159.871094 98.921875 159.980469 99.289062 160.054688 99.667969 C 160.128906 100.042969 160.167969 100.425781 160.167969 100.808594 Z M 160.167969 100.808594 " fill-opacity="1" fill-rule="nonzero"/></g><g clip-path="url(#32ce403fb2)"><path fill="#ffffff" d="M 159.570312 103.351562 L 157.421875 105.742188 C 158.390625 106.121094 159.363281 106.503906 160.335938 106.882812 C 160.082031 105.707031 159.824219 104.527344 159.570312 103.351562 Z M 159.570312 103.351562 " fill-opacity="1" fill-rule="nonzero"/></g><g fill="#7ec543" fill-opacity="1"><g transform="translate(93.103347, 30.787446)"><g><path d="M 8.6875 -9.34375 L 8.6875 -3.578125 C 8.6875 -2.878906 8.523438 -2.25 8.203125 -1.6875 C 7.878906 -1.132812 7.4375 -0.703125 6.875 -0.390625 C 6.3125 -0.078125 5.664062 0.078125 4.9375 0.078125 C 4.21875 0.078125 3.570312 -0.078125 3 -0.390625 C 2.425781 -0.703125 1.976562 -1.132812 1.65625 -1.6875 C 1.332031 -2.25 1.171875 -2.878906 1.171875 -3.578125 L 1.171875 -9.34375 L 2.609375 -9.34375 L 2.609375 -3.703125 C 2.609375 -3.242188 2.71875 -2.832031 2.9375 -2.46875 C 3.15625 -2.101562 3.441406 -1.816406 3.796875 -1.609375 C 4.148438 -1.410156 4.53125 -1.3125 4.9375 -1.3125 C 5.363281 -1.3125 5.753906 -1.410156 6.109375 -1.609375 C 6.472656 -1.816406 6.765625 -2.101562 6.984375 -2.46875 C 7.203125 -2.832031 7.3125 -3.242188 7.3125 -3.703125 L 7.3125 -9.34375 Z M 8.6875 -9.34375 "/></g></g></g><g fill="#7ec543" fill-opacity="1"><g transform="translate(102.968734, 30.787446)"><g><path d="M 5 -5.15625 C 4.75 -5.40625 4.460938 -5.609375 4.140625 -5.765625 C 3.828125 -5.929688 3.539062 -6.015625 3.28125 -6.015625 C 3.09375 -6.015625 2.90625 -5.988281 2.71875 -5.9375 C 2.539062 -5.894531 2.390625 -5.8125 2.265625 -5.6875 C 2.140625 -5.570312 2.078125 -5.398438 2.078125 -5.171875 C 2.085938 -4.847656 2.234375 -4.617188 2.515625 -4.484375 C 2.796875 -4.359375 3.144531 -4.238281 3.5625 -4.125 C 3.925781 -4.03125 4.28125 -3.910156 4.625 -3.765625 C 4.96875 -3.617188 5.253906 -3.40625 5.484375 -3.125 C 5.710938 -2.84375 5.828125 -2.453125 5.828125 -1.953125 C 5.828125 -1.515625 5.703125 -1.140625 5.453125 -0.828125 C 5.210938 -0.515625 4.898438 -0.273438 4.515625 -0.109375 C 4.128906 0.0546875 3.722656 0.140625 3.296875 0.140625 C 2.785156 0.140625 2.28125 0.0507812 1.78125 -0.125 C 1.289062 -0.3125 0.875 -0.628906 0.53125 -1.078125 L 1.46875 -1.875 C 1.707031 -1.601562 1.976562 -1.390625 2.28125 -1.234375 C 2.59375 -1.078125 2.96875 -1 3.40625 -1 C 3.582031 -1 3.753906 -1.023438 3.921875 -1.078125 C 4.085938 -1.140625 4.226562 -1.234375 4.34375 -1.359375 C 4.46875 -1.492188 4.53125 -1.671875 4.53125 -1.890625 C 4.53125 -2.109375 4.460938 -2.273438 4.328125 -2.390625 C 4.203125 -2.515625 4.03125 -2.613281 3.8125 -2.6875 C 3.601562 -2.757812 3.375 -2.828125 3.125 -2.890625 C 2.738281 -2.992188 2.359375 -3.125 1.984375 -3.28125 C 1.617188 -3.4375 1.3125 -3.660156 1.0625 -3.953125 C 0.820312 -4.242188 0.703125 -4.632812 0.703125 -5.125 C 0.703125 -5.539062 0.816406 -5.898438 1.046875 -6.203125 C 1.285156 -6.503906 1.597656 -6.734375 1.984375 -6.890625 C 2.367188 -7.054688 2.78125 -7.140625 3.21875 -7.140625 C 3.632812 -7.140625 4.082031 -7.050781 4.5625 -6.875 C 5.050781 -6.695312 5.457031 -6.414062 5.78125 -6.03125 Z M 5 -5.15625 "/></g></g></g><g fill="#7ec543" fill-opacity="1"><g transform="translate(109.354572, 30.787446)"><g><path d="M 5.734375 -2.78125 L 5.734375 -7 L 7.109375 -7 L 7.109375 0 L 5.734375 0 L 5.734375 -1.125 C 5.523438 -0.789062 5.222656 -0.492188 4.828125 -0.234375 C 4.429688 0.015625 3.957031 0.140625 3.40625 0.140625 C 2.675781 0.140625 2.082031 -0.109375 1.625 -0.609375 C 1.175781 -1.109375 0.953125 -1.796875 0.953125 -2.671875 L 0.953125 -7 L 2.328125 -7 L 2.328125 -3.046875 C 2.328125 -2.691406 2.382812 -2.363281 2.5 -2.0625 C 2.613281 -1.757812 2.789062 -1.515625 3.03125 -1.328125 C 3.28125 -1.148438 3.59375 -1.0625 3.96875 -1.0625 C 4.445312 -1.0625 4.859375 -1.210938 5.203125 -1.515625 C 5.554688 -1.816406 5.734375 -2.238281 5.734375 -2.78125 Z M 5.734375 -2.78125 "/></g></g></g><g fill="#7ec543" fill-opacity="1"><g transform="translate(117.420192, 30.787446)"><g><path d="M 7.484375 -7 L 7.484375 0 L 6.09375 0 L 6.09375 -1.078125 C 5.875 -0.785156 5.554688 -0.507812 5.140625 -0.25 C 4.722656 0.0078125 4.238281 0.140625 3.6875 0.140625 C 3.101562 0.140625 2.566406 -0.015625 2.078125 -0.328125 C 1.597656 -0.640625 1.210938 -1.070312 0.921875 -1.625 C 0.640625 -2.175781 0.5 -2.804688 0.5 -3.515625 C 0.5 -4.222656 0.644531 -4.847656 0.9375 -5.390625 C 1.238281 -5.941406 1.644531 -6.367188 2.15625 -6.671875 C 2.675781 -6.984375 3.265625 -7.140625 3.921875 -7.140625 C 4.410156 -7.140625 4.835938 -7.03125 5.203125 -6.8125 C 5.566406 -6.601562 5.863281 -6.359375 6.09375 -6.078125 L 6.09375 -7 Z M 4.015625 -1.140625 C 4.441406 -1.140625 4.8125 -1.242188 5.125 -1.453125 C 5.445312 -1.660156 5.695312 -1.941406 5.875 -2.296875 C 6.050781 -2.660156 6.140625 -3.066406 6.140625 -3.515625 C 6.140625 -3.960938 6.050781 -4.363281 5.875 -4.71875 C 5.695312 -5.070312 5.445312 -5.351562 5.125 -5.5625 C 4.8125 -5.769531 4.441406 -5.875 4.015625 -5.875 C 3.609375 -5.875 3.242188 -5.769531 2.921875 -5.5625 C 2.597656 -5.363281 2.347656 -5.085938 2.171875 -4.734375 C 1.992188 -4.378906 1.90625 -3.972656 1.90625 -3.515625 C 1.90625 -3.066406 1.992188 -2.660156 2.171875 -2.296875 C 2.347656 -1.941406 2.597656 -1.660156 2.921875 -1.453125 C 3.242188 -1.242188 3.609375 -1.140625 4.015625 -1.140625 Z M 3.859375 -8.40625 L 3.40625 -9.078125 L 5.3125 -10.75 L 6.1875 -9.65625 Z M 3.859375 -8.40625 "/></g></g></g><g fill="#7ec543" fill-opacity="1"><g transform="translate(125.859098, 30.787446)"><g><path d="M 4.875 -5.515625 C 4.789062 -5.554688 4.679688 -5.59375 4.546875 -5.625 C 4.421875 -5.65625 4.285156 -5.671875 4.140625 -5.671875 C 3.859375 -5.671875 3.578125 -5.597656 3.296875 -5.453125 C 3.023438 -5.304688 2.796875 -5.097656 2.609375 -4.828125 C 2.429688 -4.554688 2.34375 -4.234375 2.34375 -3.859375 L 2.34375 0 L 0.953125 0 L 0.953125 -7 L 2.34375 -7 L 2.34375 -5.671875 C 2.539062 -6.097656 2.835938 -6.445312 3.234375 -6.71875 C 3.628906 -7 4.046875 -7.140625 4.484375 -7.140625 C 4.804688 -7.140625 5.054688 -7.097656 5.234375 -7.015625 Z M 4.875 -5.515625 "/></g></g></g><g fill="#7ec543" fill-opacity="1"><g transform="translate(131.231735, 30.787446)"><g><path d="M 1.875 -8.515625 C 1.570312 -8.515625 1.34375 -8.59375 1.1875 -8.75 C 1.039062 -8.914062 0.96875 -9.128906 0.96875 -9.390625 C 0.96875 -9.609375 1.039062 -9.804688 1.1875 -9.984375 C 1.34375 -10.160156 1.570312 -10.25 1.875 -10.25 C 2.1875 -10.25 2.414062 -10.164062 2.5625 -10 C 2.71875 -9.84375 2.796875 -9.640625 2.796875 -9.390625 C 2.796875 -9.160156 2.71875 -8.957031 2.5625 -8.78125 C 2.414062 -8.601562 2.1875 -8.515625 1.875 -8.515625 Z M 2.578125 0 L 1.203125 0 L 1.203125 -7 L 2.578125 -7 Z M 2.578125 0 "/></g></g></g><g fill="#7ec543" fill-opacity="1"><g transform="translate(134.93792, 30.787446)"><g><path d="M 7.65625 -3.5 C 7.65625 -2.789062 7.5 -2.160156 7.1875 -1.609375 C 6.875 -1.066406 6.445312 -0.640625 5.90625 -0.328125 C 5.375 -0.015625 4.773438 0.140625 4.109375 0.140625 C 3.441406 0.140625 2.835938 -0.015625 2.296875 -0.328125 C 1.753906 -0.640625 1.320312 -1.066406 1 -1.609375 C 0.6875 -2.160156 0.53125 -2.789062 0.53125 -3.5 C 0.53125 -4.21875 0.6875 -4.847656 1 -5.390625 C 1.320312 -5.929688 1.753906 -6.359375 2.296875 -6.671875 C 2.835938 -6.984375 3.441406 -7.140625 4.109375 -7.140625 C 4.773438 -7.140625 5.375 -6.984375 5.90625 -6.671875 C 6.445312 -6.359375 6.875 -5.929688 7.1875 -5.390625 C 7.5 -4.847656 7.65625 -4.21875 7.65625 -3.5 Z M 6.265625 -3.5 C 6.273438 -3.976562 6.179688 -4.394531 5.984375 -4.75 C 5.796875 -5.113281 5.535156 -5.394531 5.203125 -5.59375 C 4.878906 -5.789062 4.515625 -5.890625 4.109375 -5.890625 C 3.691406 -5.890625 3.316406 -5.789062 2.984375 -5.59375 C 2.660156 -5.394531 2.398438 -5.113281 2.203125 -4.75 C 2.015625 -4.394531 1.925781 -3.976562 1.9375 -3.5 C 1.925781 -3.039062 2.015625 -2.628906 2.203125 -2.265625 C 2.398438 -1.910156 2.660156 -1.628906 2.984375 -1.421875 C 3.316406 -1.222656 3.691406 -1.125 4.109375 -1.125 C 4.515625 -1.125 4.878906 -1.222656 5.203125 -1.421875 C 5.535156 -1.628906 5.796875 -1.910156 5.984375 -2.265625 C 6.179688 -2.628906 6.273438 -3.039062 6.265625 -3.5 Z M 6.265625 -3.5 "/></g></g></g><g fill="#7ec543" fill-opacity="1"><g transform="translate(143.136856, 30.787446)"><g/></g></g><g fill="#7ec543" fill-opacity="1"><g transform="translate(146.869705, 30.787446)"><g><path d="M 7.515625 -9.859375 L 7.515625 0 L 6.140625 0 L 6.140625 -0.984375 C 5.941406 -0.710938 5.640625 -0.457031 5.234375 -0.21875 C 4.835938 0.0195312 4.382812 0.140625 3.875 0.140625 C 3.25 0.140625 2.679688 -0.015625 2.171875 -0.328125 C 1.660156 -0.640625 1.257812 -1.070312 0.96875 -1.625 C 0.675781 -2.175781 0.53125 -2.800781 0.53125 -3.5 C 0.53125 -4.21875 0.675781 -4.847656 0.96875 -5.390625 C 1.257812 -5.929688 1.65625 -6.359375 2.15625 -6.671875 C 2.65625 -6.984375 3.21875 -7.140625 3.84375 -7.140625 C 4.332031 -7.140625 4.78125 -7.035156 5.1875 -6.828125 C 5.59375 -6.628906 5.910156 -6.394531 6.140625 -6.125 L 6.140625 -9.859375 Z M 4.0625 -1.046875 C 4.488281 -1.046875 4.863281 -1.148438 5.1875 -1.359375 C 5.507812 -1.578125 5.757812 -1.875 5.9375 -2.25 C 6.113281 -2.625 6.203125 -3.039062 6.203125 -3.5 C 6.203125 -3.976562 6.113281 -4.398438 5.9375 -4.765625 C 5.757812 -5.128906 5.507812 -5.414062 5.1875 -5.625 C 4.863281 -5.84375 4.488281 -5.953125 4.0625 -5.953125 C 3.644531 -5.953125 3.273438 -5.84375 2.953125 -5.625 C 2.640625 -5.414062 2.390625 -5.128906 2.203125 -4.765625 C 2.023438 -4.398438 1.9375 -3.976562 1.9375 -3.5 C 1.9375 -3.039062 2.023438 -2.625 2.203125 -2.25 C 2.390625 -1.875 2.640625 -1.578125 2.953125 -1.359375 C 3.273438 -1.148438 3.644531 -1.046875 4.0625 -1.046875 Z M 4.0625 -1.046875 "/></g></g></g><g fill="#7ec543" fill-opacity="1"><g transform="translate(155.321944, 30.787446)"><g><path d="M 7.484375 -7 L 7.484375 0 L 6.09375 0 L 6.09375 -1.078125 C 5.875 -0.785156 5.554688 -0.507812 5.140625 -0.25 C 4.722656 0.0078125 4.238281 0.140625 3.6875 0.140625 C 3.101562 0.140625 2.566406 -0.015625 2.078125 -0.328125 C 1.597656 -0.640625 1.210938 -1.070312 0.921875 -1.625 C 0.640625 -2.175781 0.5 -2.804688 0.5 -3.515625 C 0.5 -4.222656 0.644531 -4.847656 0.9375 -5.390625 C 1.238281 -5.941406 1.644531 -6.367188 2.15625 -6.671875 C 2.675781 -6.984375 3.265625 -7.140625 3.921875 -7.140625 C 4.410156 -7.140625 4.835938 -7.03125 5.203125 -6.8125 C 5.566406 -6.601562 5.863281 -6.359375 6.09375 -6.078125 L 6.09375 -7 Z M 4.015625 -1.140625 C 4.441406 -1.140625 4.8125 -1.242188 5.125 -1.453125 C 5.445312 -1.660156 5.695312 -1.941406 5.875 -2.296875 C 6.050781 -2.660156 6.140625 -3.066406 6.140625 -3.515625 C 6.140625 -3.960938 6.050781 -4.363281 5.875 -4.71875 C 5.695312 -5.070312 5.445312 -5.351562 5.125 -5.5625 C 4.8125 -5.769531 4.441406 -5.875 4.015625 -5.875 C 3.609375 -5.875 3.242188 -5.769531 2.921875 -5.5625 C 2.597656 -5.363281 2.347656 -5.085938 2.171875 -4.734375 C 1.992188 -4.378906 1.90625 -3.972656 1.90625 -3.515625 C 1.90625 -3.066406 1.992188 -2.660156 2.171875 -2.296875 C 2.347656 -1.941406 2.597656 -1.660156 2.921875 -1.453125 C 3.242188 -1.242188 3.609375 -1.140625 4.015625 -1.140625 Z M 4.015625 -1.140625 "/></g></g></g><g fill="#7ec543" fill-opacity="1"><g transform="translate(163.760853, 30.787446)"><g/></g></g><g fill="#7ec543" fill-opacity="1"><g transform="translate(167.493702, 30.787446)"><g><path d="M 1.65625 -2.8125 C 2.019531 -2.289062 2.398438 -1.882812 2.796875 -1.59375 C 3.191406 -1.300781 3.703125 -1.15625 4.328125 -1.15625 C 4.628906 -1.15625 4.914062 -1.203125 5.1875 -1.296875 C 5.46875 -1.398438 5.695312 -1.546875 5.875 -1.734375 C 6.050781 -1.921875 6.140625 -2.144531 6.140625 -2.40625 C 6.140625 -2.84375 5.953125 -3.1875 5.578125 -3.4375 C 5.203125 -3.6875 4.671875 -3.878906 3.984375 -4.015625 C 3.109375 -4.191406 2.414062 -4.5 1.90625 -4.9375 C 1.394531 -5.375 1.140625 -6.007812 1.140625 -6.84375 C 1.140625 -7.382812 1.285156 -7.847656 1.578125 -8.234375 C 1.878906 -8.628906 2.269531 -8.929688 2.75 -9.140625 C 3.238281 -9.359375 3.769531 -9.46875 4.34375 -9.46875 C 5.082031 -9.46875 5.71875 -9.320312 6.25 -9.03125 C 6.78125 -8.75 7.195312 -8.347656 7.5 -7.828125 L 6.484375 -6.828125 C 6.242188 -7.222656 5.941406 -7.546875 5.578125 -7.796875 C 5.210938 -8.046875 4.789062 -8.171875 4.3125 -8.171875 C 3.820312 -8.171875 3.410156 -8.054688 3.078125 -7.828125 C 2.742188 -7.597656 2.578125 -7.285156 2.578125 -6.890625 C 2.578125 -6.429688 2.75 -6.097656 3.09375 -5.890625 C 3.445312 -5.679688 3.910156 -5.515625 4.484375 -5.390625 C 5.015625 -5.285156 5.515625 -5.125 5.984375 -4.90625 C 6.453125 -4.6875 6.832031 -4.398438 7.125 -4.046875 C 7.425781 -3.691406 7.578125 -3.265625 7.578125 -2.765625 C 7.578125 -1.878906 7.273438 -1.171875 6.671875 -0.640625 C 6.066406 -0.117188 5.238281 0.140625 4.1875 0.140625 C 3.46875 0.140625 2.8125 0 2.21875 -0.28125 C 1.625 -0.570312 1.109375 -1.035156 0.671875 -1.671875 Z M 1.65625 -2.8125 "/></g></g></g><g fill="#7ec543" fill-opacity="1"><g transform="translate(175.81262, 30.787446)"><g><path d="M 1.875 -8.515625 C 1.570312 -8.515625 1.34375 -8.59375 1.1875 -8.75 C 1.039062 -8.914062 0.96875 -9.128906 0.96875 -9.390625 C 0.96875 -9.609375 1.039062 -9.804688 1.1875 -9.984375 C 1.34375 -10.160156 1.570312 -10.25 1.875 -10.25 C 2.1875 -10.25 2.414062 -10.164062 2.5625 -10 C 2.71875 -9.84375 2.796875 -9.640625 2.796875 -9.390625 C 2.796875 -9.160156 2.71875 -8.957031 2.5625 -8.78125 C 2.414062 -8.601562 2.1875 -8.515625 1.875 -8.515625 Z M 2.578125 0 L 1.203125 0 L 1.203125 -7 L 2.578125 -7 Z M 2.578125 0 "/></g></g></g><g fill="#7ec543" fill-opacity="1"><g transform="translate(179.518802, 30.787446)"><g><path d="M 0.953125 0 L 0.953125 -9.859375 L 2.328125 -9.859375 L 2.328125 0 Z M 0.953125 0 "/></g></g></g><g fill="#7ec543" fill-opacity="1"><g transform="translate(182.851699, 30.787446)"><g><path d="M 1.765625 -7 L 3.8125 -2 L 5.9375 -7 L 7.34375 -7 L 4.234375 0 L 3.25 0 L 0.296875 -7 Z M 1.765625 -7 "/></g></g></g><g fill="#7ec543" fill-opacity="1"><g transform="translate(190.49071, 30.787446)"><g><path d="M 7.484375 -7 L 7.484375 0 L 6.09375 0 L 6.09375 -1.078125 C 5.875 -0.785156 5.554688 -0.507812 5.140625 -0.25 C 4.722656 0.0078125 4.238281 0.140625 3.6875 0.140625 C 3.101562 0.140625 2.566406 -0.015625 2.078125 -0.328125 C 1.597656 -0.640625 1.210938 -1.070312 0.921875 -1.625 C 0.640625 -2.175781 0.5 -2.804688 0.5 -3.515625 C 0.5 -4.222656 0.644531 -4.847656 0.9375 -5.390625 C 1.238281 -5.941406 1.644531 -6.367188 2.15625 -6.671875 C 2.675781 -6.984375 3.265625 -7.140625 3.921875 -7.140625 C 4.410156 -7.140625 4.835938 -7.03125 5.203125 -6.8125 C 5.566406 -6.601562 5.863281 -6.359375 6.09375 -6.078125 L 6.09375 -7 Z M 4.015625 -1.140625 C 4.441406 -1.140625 4.8125 -1.242188 5.125 -1.453125 C 5.445312 -1.660156 5.695312 -1.941406 5.875 -2.296875 C 6.050781 -2.660156 6.140625 -3.066406 6.140625 -3.515625 C 6.140625 -3.960938 6.050781 -4.363281 5.875 -4.71875 C 5.695312 -5.070312 5.445312 -5.351562 5.125 -5.5625 C 4.8125 -5.769531 4.441406 -5.875 4.015625 -5.875 C 3.609375 -5.875 3.242188 -5.769531 2.921875 -5.5625 C 2.597656 -5.363281 2.347656 -5.085938 2.171875 -4.734375 C 1.992188 -4.378906 1.90625 -3.972656 1.90625 -3.515625 C 1.90625 -3.066406 1.992188 -2.660156 2.171875 -2.296875 C 2.347656 -1.941406 2.597656 -1.660156 2.921875 -1.453125 C 3.242188 -1.242188 3.609375 -1.140625 4.015625 -1.140625 Z M 4.015625 -1.140625 "/></g></g></g><g fill="#ffffff" fill-opacity="1"><g transform="translate(93.106353, 52.709413)"><g><path d="M 4.59375 -7.140625 C 5.21875 -7.140625 5.773438 -6.984375 6.265625 -6.671875 C 6.765625 -6.367188 7.15625 -5.941406 7.4375 -5.390625 C 7.71875 -4.847656 7.859375 -4.222656 7.859375 -3.515625 C 7.859375 -2.804688 7.71875 -2.175781 7.4375 -1.625 C 7.15625 -1.070312 6.769531 -0.640625 6.28125 -0.328125 C 5.789062 -0.015625 5.242188 0.140625 4.640625 0.140625 C 4.140625 0.140625 3.6875 0.03125 3.28125 -0.1875 C 2.875 -0.40625 2.554688 -0.65625 2.328125 -0.9375 L 2.328125 -0.046875 L 0.953125 -0.046875 L 0.953125 -9.859375 L 2.328125 -9.859375 L 2.328125 -5.984375 C 2.535156 -6.273438 2.84375 -6.539062 3.25 -6.78125 C 3.65625 -7.019531 4.101562 -7.140625 4.59375 -7.140625 Z M 4.40625 -5.890625 C 3.988281 -5.890625 3.617188 -5.785156 3.296875 -5.578125 C 2.972656 -5.378906 2.71875 -5.097656 2.53125 -4.734375 C 2.351562 -4.378906 2.265625 -3.972656 2.265625 -3.515625 C 2.265625 -3.066406 2.351562 -2.660156 2.53125 -2.296875 C 2.71875 -1.941406 2.972656 -1.65625 3.296875 -1.4375 C 3.617188 -1.226562 3.988281 -1.125 4.40625 -1.125 C 4.820312 -1.125 5.191406 -1.226562 5.515625 -1.4375 C 5.835938 -1.65625 6.085938 -1.941406 6.265625 -2.296875 C 6.453125 -2.660156 6.546875 -3.066406 6.546875 -3.515625 C 6.546875 -3.972656 6.453125 -4.378906 6.265625 -4.734375 C 6.085938 -5.097656 5.835938 -5.378906 5.515625 -5.578125 C 5.191406 -5.785156 4.820312 -5.890625 4.40625 -5.890625 Z M 4.40625 -5.890625 "/></g></g></g><g fill="#ffffff" fill-opacity="1"><g transform="translate(101.505265, 52.709413)"><g><path d="M 0.953125 0 L 0.953125 -9.859375 L 2.328125 -9.859375 L 2.328125 0 Z M 0.953125 0 "/></g></g></g><g fill="#ffffff" fill-opacity="1"><g transform="translate(104.838165, 52.709413)"><g><path d="M 7.484375 -7 L 7.484375 0 L 6.09375 0 L 6.09375 -1.078125 C 5.875 -0.785156 5.554688 -0.507812 5.140625 -0.25 C 4.722656 0.0078125 4.238281 0.140625 3.6875 0.140625 C 3.101562 0.140625 2.566406 -0.015625 2.078125 -0.328125 C 1.597656 -0.640625 1.210938 -1.070312 0.921875 -1.625 C 0.640625 -2.175781 0.5 -2.804688 0.5 -3.515625 C 0.5 -4.222656 0.644531 -4.847656 0.9375 -5.390625 C 1.238281 -5.941406 1.644531 -6.367188 2.15625 -6.671875 C 2.675781 -6.984375 3.265625 -7.140625 3.921875 -7.140625 C 4.410156 -7.140625 4.835938 -7.03125 5.203125 -6.8125 C 5.566406 -6.601562 5.863281 -6.359375 6.09375 -6.078125 L 6.09375 -7 Z M 4.015625 -1.140625 C 4.441406 -1.140625 4.8125 -1.242188 5.125 -1.453125 C 5.445312 -1.660156 5.695312 -1.941406 5.875 -2.296875 C 6.050781 -2.660156 6.140625 -3.066406 6.140625 -3.515625 C 6.140625 -3.960938 6.050781 -4.363281 5.875 -4.71875 C 5.695312 -5.070312 5.445312 -5.351562 5.125 -5.5625 C 4.8125 -5.769531 4.441406 -5.875 4.015625 -5.875 C 3.609375 -5.875 3.242188 -5.769531 2.921875 -5.5625 C 2.597656 -5.363281 2.347656 -5.085938 2.171875 -4.734375 C 1.992188 -4.378906 1.90625 -3.972656 1.90625 -3.515625 C 1.90625 -3.066406 1.992188 -2.660156 2.171875 -2.296875 C 2.347656 -1.941406 2.597656 -1.660156 2.921875 -1.453125 C 3.242188 -1.242188 3.609375 -1.140625 4.015625 -1.140625 Z M 4.015625 -1.140625 "/></g></g></g><g fill="#ffffff" fill-opacity="1"><g transform="translate(113.277071, 52.709413)"><g/></g></g><g fill="#ffffff" fill-opacity="1"><g transform="translate(117.00992, 52.709413)"><g><path d="M 4.59375 -7.140625 C 5.21875 -7.140625 5.773438 -6.984375 6.265625 -6.671875 C 6.765625 -6.367188 7.15625 -5.941406 7.4375 -5.390625 C 7.71875 -4.847656 7.859375 -4.222656 7.859375 -3.515625 C 7.859375 -2.804688 7.71875 -2.175781 7.4375 -1.625 C 7.15625 -1.070312 6.769531 -0.640625 6.28125 -0.328125 C 5.789062 -0.015625 5.242188 0.140625 4.640625 0.140625 C 4.140625 0.140625 3.6875 0.03125 3.28125 -0.1875 C 2.875 -0.40625 2.554688 -0.65625 2.328125 -0.9375 L 2.328125 -0.046875 L 0.953125 -0.046875 L 0.953125 -9.859375 L 2.328125 -9.859375 L 2.328125 -5.984375 C 2.535156 -6.273438 2.84375 -6.539062 3.25 -6.78125 C 3.65625 -7.019531 4.101562 -7.140625 4.59375 -7.140625 Z M 4.40625 -5.890625 C 3.988281 -5.890625 3.617188 -5.785156 3.296875 -5.578125 C 2.972656 -5.378906 2.71875 -5.097656 2.53125 -4.734375 C 2.351562 -4.378906 2.265625 -3.972656 2.265625 -3.515625 C 2.265625 -3.066406 2.351562 -2.660156 2.53125 -2.296875 C 2.71875 -1.941406 2.972656 -1.65625 3.296875 -1.4375 C 3.617188 -1.226562 3.988281 -1.125 4.40625 -1.125 C 4.820312 -1.125 5.191406 -1.226562 5.515625 -1.4375 C 5.835938 -1.65625 6.085938 -1.941406 6.265625 -2.296875 C 6.453125 -2.660156 6.546875 -3.066406 6.546875 -3.515625 C 6.546875 -3.972656 6.453125 -4.378906 6.265625 -4.734375 C 6.085938 -5.097656 5.835938 -5.378906 5.515625 -5.578125 C 5.191406 -5.785156 4.820312 -5.890625 4.40625 -5.890625 Z M 4.40625 -5.890625 "/></g></g></g><g fill="#ffffff" fill-opacity="1"><g transform="translate(125.408831, 52.709413)"><g><path d="M 0.953125 0 L 0.953125 -9.859375 L 2.328125 -9.859375 L 2.328125 0 Z M 0.953125 0 "/></g></g></g><g fill="#ffffff" fill-opacity="1"><g transform="translate(128.741731, 52.709413)"><g><path d="M 7.484375 -7 L 7.484375 0 L 6.09375 0 L 6.09375 -1.078125 C 5.875 -0.785156 5.554688 -0.507812 5.140625 -0.25 C 4.722656 0.0078125 4.238281 0.140625 3.6875 0.140625 C 3.101562 0.140625 2.566406 -0.015625 2.078125 -0.328125 C 1.597656 -0.640625 1.210938 -1.070312 0.921875 -1.625 C 0.640625 -2.175781 0.5 -2.804688 0.5 -3.515625 C 0.5 -4.222656 0.644531 -4.847656 0.9375 -5.390625 C 1.238281 -5.941406 1.644531 -6.367188 2.15625 -6.671875 C 2.675781 -6.984375 3.265625 -7.140625 3.921875 -7.140625 C 4.410156 -7.140625 4.835938 -7.03125 5.203125 -6.8125 C 5.566406 -6.601562 5.863281 -6.359375 6.09375 -6.078125 L 6.09375 -7 Z M 4.015625 -1.140625 C 4.441406 -1.140625 4.8125 -1.242188 5.125 -1.453125 C 5.445312 -1.660156 5.695312 -1.941406 5.875 -2.296875 C 6.050781 -2.660156 6.140625 -3.066406 6.140625 -3.515625 C 6.140625 -3.960938 6.050781 -4.363281 5.875 -4.71875 C 5.695312 -5.070312 5.445312 -5.351562 5.125 -5.5625 C 4.8125 -5.769531 4.441406 -5.875 4.015625 -5.875 C 3.609375 -5.875 3.242188 -5.769531 2.921875 -5.5625 C 2.597656 -5.363281 2.347656 -5.085938 2.171875 -4.734375 C 1.992188 -4.378906 1.90625 -3.972656 1.90625 -3.515625 C 1.90625 -3.066406 1.992188 -2.660156 2.171875 -2.296875 C 2.347656 -1.941406 2.597656 -1.660156 2.921875 -1.453125 C 3.242188 -1.242188 3.609375 -1.140625 4.015625 -1.140625 Z M 4.015625 -1.140625 "/></g></g></g><g fill="#ffffff" fill-opacity="1"><g transform="translate(137.180637, 52.709413)"><g/></g></g><g fill="#ffffff" fill-opacity="1"><g transform="translate(140.913486, 52.709413)"><g><path d="M 4.59375 -7.140625 C 5.21875 -7.140625 5.773438 -6.984375 6.265625 -6.671875 C 6.765625 -6.367188 7.15625 -5.941406 7.4375 -5.390625 C 7.71875 -4.847656 7.859375 -4.222656 7.859375 -3.515625 C 7.859375 -2.804688 7.71875 -2.175781 7.4375 -1.625 C 7.15625 -1.070312 6.769531 -0.640625 6.28125 -0.328125 C 5.789062 -0.015625 5.242188 0.140625 4.640625 0.140625 C 4.140625 0.140625 3.6875 0.03125 3.28125 -0.1875 C 2.875 -0.40625 2.554688 -0.65625 2.328125 -0.9375 L 2.328125 -0.046875 L 0.953125 -0.046875 L 0.953125 -9.859375 L 2.328125 -9.859375 L 2.328125 -5.984375 C 2.535156 -6.273438 2.84375 -6.539062 3.25 -6.78125 C 3.65625 -7.019531 4.101562 -7.140625 4.59375 -7.140625 Z M 4.40625 -5.890625 C 3.988281 -5.890625 3.617188 -5.785156 3.296875 -5.578125 C 2.972656 -5.378906 2.71875 -5.097656 2.53125 -4.734375 C 2.351562 -4.378906 2.265625 -3.972656 2.265625 -3.515625 C 2.265625 -3.066406 2.351562 -2.660156 2.53125 -2.296875 C 2.71875 -1.941406 2.972656 -1.65625 3.296875 -1.4375 C 3.617188 -1.226562 3.988281 -1.125 4.40625 -1.125 C 4.820312 -1.125 5.191406 -1.226562 5.515625 -1.4375 C 5.835938 -1.65625 6.085938 -1.941406 6.265625 -2.296875 C 6.453125 -2.660156 6.546875 -3.066406 6.546875 -3.515625 C 6.546875 -3.972656 6.453125 -4.378906 6.265625 -4.734375 C 6.085938 -5.097656 5.835938 -5.378906 5.515625 -5.578125 C 5.191406 -5.785156 4.820312 -5.890625 4.40625 -5.890625 Z M 4.40625 -5.890625 "/></g></g></g><g fill="#ffffff" fill-opacity="1"><g transform="translate(149.312398, 52.709413)"><g><path d="M 0.953125 0 L 0.953125 -9.859375 L 2.328125 -9.859375 L 2.328125 0 Z M 0.953125 0 "/></g></g></g><g fill="#ffffff" fill-opacity="1"><g transform="translate(152.6453, 52.709413)"><g><path d="M 7.484375 -7 L 7.484375 0 L 6.09375 0 L 6.09375 -1.078125 C 5.875 -0.785156 5.554688 -0.507812 5.140625 -0.25 C 4.722656 0.0078125 4.238281 0.140625 3.6875 0.140625 C 3.101562 0.140625 2.566406 -0.015625 2.078125 -0.328125 C 1.597656 -0.640625 1.210938 -1.070312 0.921875 -1.625 C 0.640625 -2.175781 0.5 -2.804688 0.5 -3.515625 C 0.5 -4.222656 0.644531 -4.847656 0.9375 -5.390625 C 1.238281 -5.941406 1.644531 -6.367188 2.15625 -6.671875 C 2.675781 -6.984375 3.265625 -7.140625 3.921875 -7.140625 C 4.410156 -7.140625 4.835938 -7.03125 5.203125 -6.8125 C 5.566406 -6.601562 5.863281 -6.359375 6.09375 -6.078125 L 6.09375 -7 Z M 4.015625 -1.140625 C 4.441406 -1.140625 4.8125 -1.242188 5.125 -1.453125 C 5.445312 -1.660156 5.695312 -1.941406 5.875 -2.296875 C 6.050781 -2.660156 6.140625 -3.066406 6.140625 -3.515625 C 6.140625 -3.960938 6.050781 -4.363281 5.875 -4.71875 C 5.695312 -5.070312 5.445312 -5.351562 5.125 -5.5625 C 4.8125 -5.769531 4.441406 -5.875 4.015625 -5.875 C 3.609375 -5.875 3.242188 -5.769531 2.921875 -5.5625 C 2.597656 -5.363281 2.347656 -5.085938 2.171875 -4.734375 C 1.992188 -4.378906 1.90625 -3.972656 1.90625 -3.515625 C 1.90625 -3.066406 1.992188 -2.660156 2.171875 -2.296875 C 2.347656 -1.941406 2.597656 -1.660156 2.921875 -1.453125 C 3.242188 -1.242188 3.609375 -1.140625 4.015625 -1.140625 Z M 4.015625 -1.140625 "/></g></g></g><g fill="#ffffff" fill-opacity="1"><g transform="translate(161.084209, 52.709413)"><g/></g></g><g fill="#ffffff" fill-opacity="1"><g transform="translate(164.817058, 52.709413)"><g><path d="M 4.59375 -7.140625 C 5.21875 -7.140625 5.773438 -6.984375 6.265625 -6.671875 C 6.765625 -6.367188 7.15625 -5.941406 7.4375 -5.390625 C 7.71875 -4.847656 7.859375 -4.222656 7.859375 -3.515625 C 7.859375 -2.804688 7.71875 -2.175781 7.4375 -1.625 C 7.15625 -1.070312 6.769531 -0.640625 6.28125 -0.328125 C 5.789062 -0.015625 5.242188 0.140625 4.640625 0.140625 C 4.140625 0.140625 3.6875 0.03125 3.28125 -0.1875 C 2.875 -0.40625 2.554688 -0.65625 2.328125 -0.9375 L 2.328125 -0.046875 L 0.953125 -0.046875 L 0.953125 -9.859375 L 2.328125 -9.859375 L 2.328125 -5.984375 C 2.535156 -6.273438 2.84375 -6.539062 3.25 -6.78125 C 3.65625 -7.019531 4.101562 -7.140625 4.59375 -7.140625 Z M 4.40625 -5.890625 C 3.988281 -5.890625 3.617188 -5.785156 3.296875 -5.578125 C 2.972656 -5.378906 2.71875 -5.097656 2.53125 -4.734375 C 2.351562 -4.378906 2.265625 -3.972656 2.265625 -3.515625 C 2.265625 -3.066406 2.351562 -2.660156 2.53125 -2.296875 C 2.71875 -1.941406 2.972656 -1.65625 3.296875 -1.4375 C 3.617188 -1.226562 3.988281 -1.125 4.40625 -1.125 C 4.820312 -1.125 5.191406 -1.226562 5.515625 -1.4375 C 5.835938 -1.65625 6.085938 -1.941406 6.265625 -2.296875 C 6.453125 -2.660156 6.546875 -3.066406 6.546875 -3.515625 C 6.546875 -3.972656 6.453125 -4.378906 6.265625 -4.734375 C 6.085938 -5.097656 5.835938 -5.378906 5.515625 -5.578125 C 5.191406 -5.785156 4.820312 -5.890625 4.40625 -5.890625 Z M 4.40625 -5.890625 "/></g></g></g><g fill="#ffffff" fill-opacity="1"><g transform="translate(173.21597, 52.709413)"><g><path d="M 0.953125 0 L 0.953125 -9.859375 L 2.328125 -9.859375 L 2.328125 0 Z M 0.953125 0 "/></g></g></g><g fill="#ffffff" fill-opacity="1"><g transform="translate(176.548867, 52.709413)"><g><path d="M 7.484375 -7 L 7.484375 0 L 6.09375 0 L 6.09375 -1.078125 C 5.875 -0.785156 5.554688 -0.507812 5.140625 -0.25 C 4.722656 0.0078125 4.238281 0.140625 3.6875 0.140625 C 3.101562 0.140625 2.566406 -0.015625 2.078125 -0.328125 C 1.597656 -0.640625 1.210938 -1.070312 0.921875 -1.625 C 0.640625 -2.175781 0.5 -2.804688 0.5 -3.515625 C 0.5 -4.222656 0.644531 -4.847656 0.9375 -5.390625 C 1.238281 -5.941406 1.644531 -6.367188 2.15625 -6.671875 C 2.675781 -6.984375 3.265625 -7.140625 3.921875 -7.140625 C 4.410156 -7.140625 4.835938 -7.03125 5.203125 -6.8125 C 5.566406 -6.601562 5.863281 -6.359375 6.09375 -6.078125 L 6.09375 -7 Z M 4.015625 -1.140625 C 4.441406 -1.140625 4.8125 -1.242188 5.125 -1.453125 C 5.445312 -1.660156 5.695312 -1.941406 5.875 -2.296875 C 6.050781 -2.660156 6.140625 -3.066406 6.140625 -3.515625 C 6.140625 -3.960938 6.050781 -4.363281 5.875 -4.71875 C 5.695312 -5.070312 5.445312 -5.351562 5.125 -5.5625 C 4.8125 -5.769531 4.441406 -5.875 4.015625 -5.875 C 3.609375 -5.875 3.242188 -5.769531 2.921875 -5.5625 C 2.597656 -5.363281 2.347656 -5.085938 2.171875 -4.734375 C 1.992188 -4.378906 1.90625 -3.972656 1.90625 -3.515625 C 1.90625 -3.066406 1.992188 -2.660156 2.171875 -2.296875 C 2.347656 -1.941406 2.597656 -1.660156 2.921875 -1.453125 C 3.242188 -1.242188 3.609375 -1.140625 4.015625 -1.140625 Z M 4.015625 -1.140625 "/></g></g></g><g fill="#ffffff" fill-opacity="1"><g transform="translate(184.987776, 52.709413)"><g/></g></g><g fill="#ffffff" fill-opacity="1"><g transform="translate(188.720625, 52.709413)"><g><path d="M 4.59375 -7.140625 C 5.21875 -7.140625 5.773438 -6.984375 6.265625 -6.671875 C 6.765625 -6.367188 7.15625 -5.941406 7.4375 -5.390625 C 7.71875 -4.847656 7.859375 -4.222656 7.859375 -3.515625 C 7.859375 -2.804688 7.71875 -2.175781 7.4375 -1.625 C 7.15625 -1.070312 6.769531 -0.640625 6.28125 -0.328125 C 5.789062 -0.015625 5.242188 0.140625 4.640625 0.140625 C 4.140625 0.140625 3.6875 0.03125 3.28125 -0.1875 C 2.875 -0.40625 2.554688 -0.65625 2.328125 -0.9375 L 2.328125 -0.046875 L 0.953125 -0.046875 L 0.953125 -9.859375 L 2.328125 -9.859375 L 2.328125 -5.984375 C 2.535156 -6.273438 2.84375 -6.539062 3.25 -6.78125 C 3.65625 -7.019531 4.101562 -7.140625 4.59375 -7.140625 Z M 4.40625 -5.890625 C 3.988281 -5.890625 3.617188 -5.785156 3.296875 -5.578125 C 2.972656 -5.378906 2.71875 -5.097656 2.53125 -4.734375 C 2.351562 -4.378906 2.265625 -3.972656 2.265625 -3.515625 C 2.265625 -3.066406 2.351562 -2.660156 2.53125 -2.296875 C 2.71875 -1.941406 2.972656 -1.65625 3.296875 -1.4375 C 3.617188 -1.226562 3.988281 -1.125 4.40625 -1.125 C 4.820312 -1.125 5.191406 -1.226562 5.515625 -1.4375 C 5.835938 -1.65625 6.085938 -1.941406 6.265625 -2.296875 C 6.453125 -2.660156 6.546875 -3.066406 6.546875 -3.515625 C 6.546875 -3.972656 6.453125 -4.378906 6.265625 -4.734375 C 6.085938 -5.097656 5.835938 -5.378906 5.515625 -5.578125 C 5.191406 -5.785156 4.820312 -5.890625 4.40625 -5.890625 Z M 4.40625 -5.890625 "/></g></g></g><g fill="#ffffff" fill-opacity="1"><g transform="translate(197.119536, 52.709413)"><g><path d="M 0.953125 0 L 0.953125 -9.859375 L 2.328125 -9.859375 L 2.328125 0 Z M 0.953125 0 "/></g></g></g><g fill="#ffffff" fill-opacity="1"><g transform="translate(200.452433, 52.709413)"><g><path d="M 7.484375 -7 L 7.484375 0 L 6.09375 0 L 6.09375 -1.078125 C 5.875 -0.785156 5.554688 -0.507812 5.140625 -0.25 C 4.722656 0.0078125 4.238281 0.140625 3.6875 0.140625 C 3.101562 0.140625 2.566406 -0.015625 2.078125 -0.328125 C 1.597656 -0.640625 1.210938 -1.070312 0.921875 -1.625 C 0.640625 -2.175781 0.5 -2.804688 0.5 -3.515625 C 0.5 -4.222656 0.644531 -4.847656 0.9375 -5.390625 C 1.238281 -5.941406 1.644531 -6.367188 2.15625 -6.671875 C 2.675781 -6.984375 3.265625 -7.140625 3.921875 -7.140625 C 4.410156 -7.140625 4.835938 -7.03125 5.203125 -6.8125 C 5.566406 -6.601562 5.863281 -6.359375 6.09375 -6.078125 L 6.09375 -7 Z M 4.015625 -1.140625 C 4.441406 -1.140625 4.8125 -1.242188 5.125 -1.453125 C 5.445312 -1.660156 5.695312 -1.941406 5.875 -2.296875 C 6.050781 -2.660156 6.140625 -3.066406 6.140625 -3.515625 C 6.140625 -3.960938 6.050781 -4.363281 5.875 -4.71875 C 5.695312 -5.070312 5.445312 -5.351562 5.125 -5.5625 C 4.8125 -5.769531 4.441406 -5.875 4.015625 -5.875 C 3.609375 -5.875 3.242188 -5.769531 2.921875 -5.5625 C 2.597656 -5.363281 2.347656 -5.085938 2.171875 -4.734375 C 1.992188 -4.378906 1.90625 -3.972656 1.90625 -3.515625 C 1.90625 -3.066406 1.992188 -2.660156 2.171875 -2.296875 C 2.347656 -1.941406 2.597656 -1.660156 2.921875 -1.453125 C 3.242188 -1.242188 3.609375 -1.140625 4.015625 -1.140625 Z M 4.015625 -1.140625 "/></g></g></g><g fill="#ffffff" fill-opacity="1"><g transform="translate(208.891342, 52.709413)"><g/></g></g><g fill="#ffffff" fill-opacity="1"><g transform="translate(212.624185, 52.709413)"><g><path d="M 4.59375 -7.140625 C 5.21875 -7.140625 5.773438 -6.984375 6.265625 -6.671875 C 6.765625 -6.367188 7.15625 -5.941406 7.4375 -5.390625 C 7.71875 -4.847656 7.859375 -4.222656 7.859375 -3.515625 C 7.859375 -2.804688 7.71875 -2.175781 7.4375 -1.625 C 7.15625 -1.070312 6.769531 -0.640625 6.28125 -0.328125 C 5.789062 -0.015625 5.242188 0.140625 4.640625 0.140625 C 4.140625 0.140625 3.6875 0.03125 3.28125 -0.1875 C 2.875 -0.40625 2.554688 -0.65625 2.328125 -0.9375 L 2.328125 -0.046875 L 0.953125 -0.046875 L 0.953125 -9.859375 L 2.328125 -9.859375 L 2.328125 -5.984375 C 2.535156 -6.273438 2.84375 -6.539062 3.25 -6.78125 C 3.65625 -7.019531 4.101562 -7.140625 4.59375 -7.140625 Z M 4.40625 -5.890625 C 3.988281 -5.890625 3.617188 -5.785156 3.296875 -5.578125 C 2.972656 -5.378906 2.71875 -5.097656 2.53125 -4.734375 C 2.351562 -4.378906 2.265625 -3.972656 2.265625 -3.515625 C 2.265625 -3.066406 2.351562 -2.660156 2.53125 -2.296875 C 2.71875 -1.941406 2.972656 -1.65625 3.296875 -1.4375 C 3.617188 -1.226562 3.988281 -1.125 4.40625 -1.125 C 4.820312 -1.125 5.191406 -1.226562 5.515625 -1.4375 C 5.835938 -1.65625 6.085938 -1.941406 6.265625 -2.296875 C 6.453125 -2.660156 6.546875 -3.066406 6.546875 -3.515625 C 6.546875 -3.972656 6.453125 -4.378906 6.265625 -4.734375 C 6.085938 -5.097656 5.835938 -5.378906 5.515625 -5.578125 C 5.191406 -5.785156 4.820312 -5.890625 4.40625 -5.890625 Z M 4.40625 -5.890625 "/></g></g></g><g fill="#ffffff" fill-opacity="1"><g transform="translate(221.023091, 52.709413)"><g><path d="M 0.953125 0 L 0.953125 -9.859375 L 2.328125 -9.859375 L 2.328125 0 Z M 0.953125 0 "/></g></g></g><g fill="#ffffff" fill-opacity="1"><g transform="translate(224.355988, 52.709413)"><g><path d="M 7.484375 -7 L 7.484375 0 L 6.09375 0 L 6.09375 -1.078125 C 5.875 -0.785156 5.554688 -0.507812 5.140625 -0.25 C 4.722656 0.0078125 4.238281 0.140625 3.6875 0.140625 C 3.101562 0.140625 2.566406 -0.015625 2.078125 -0.328125 C 1.597656 -0.640625 1.210938 -1.070312 0.921875 -1.625 C 0.640625 -2.175781 0.5 -2.804688 0.5 -3.515625 C 0.5 -4.222656 0.644531 -4.847656 0.9375 -5.390625 C 1.238281 -5.941406 1.644531 -6.367188 2.15625 -6.671875 C 2.675781 -6.984375 3.265625 -7.140625 3.921875 -7.140625 C 4.410156 -7.140625 4.835938 -7.03125 5.203125 -6.8125 C 5.566406 -6.601562 5.863281 -6.359375 6.09375 -6.078125 L 6.09375 -7 Z M 4.015625 -1.140625 C 4.441406 -1.140625 4.8125 -1.242188 5.125 -1.453125 C 5.445312 -1.660156 5.695312 -1.941406 5.875 -2.296875 C 6.050781 -2.660156 6.140625 -3.066406 6.140625 -3.515625 C 6.140625 -3.960938 6.050781 -4.363281 5.875 -4.71875 C 5.695312 -5.070312 5.445312 -5.351562 5.125 -5.5625 C 4.8125 -5.769531 4.441406 -5.875 4.015625 -5.875 C 3.609375 -5.875 3.242188 -5.769531 2.921875 -5.5625 C 2.597656 -5.363281 2.347656 -5.085938 2.171875 -4.734375 C 1.992188 -4.378906 1.90625 -3.972656 1.90625 -3.515625 C 1.90625 -3.066406 1.992188 -2.660156 2.171875 -2.296875 C 2.347656 -1.941406 2.597656 -1.660156 2.921875 -1.453125 C 3.242188 -1.242188 3.609375 -1.140625 4.015625 -1.140625 Z M 4.015625 -1.140625 "/></g></g></g><g fill="#ffffff" fill-opacity="1"><g transform="translate(232.794897, 52.709413)"><g/></g></g><g fill="#ffffff" fill-opacity="1"><g transform="translate(236.527752, 52.709413)"><g><path d="M 4.59375 -7.140625 C 5.21875 -7.140625 5.773438 -6.984375 6.265625 -6.671875 C 6.765625 -6.367188 7.15625 -5.941406 7.4375 -5.390625 C 7.71875 -4.847656 7.859375 -4.222656 7.859375 -3.515625 C 7.859375 -2.804688 7.71875 -2.175781 7.4375 -1.625 C 7.15625 -1.070312 6.769531 -0.640625 6.28125 -0.328125 C 5.789062 -0.015625 5.242188 0.140625 4.640625 0.140625 C 4.140625 0.140625 3.6875 0.03125 3.28125 -0.1875 C 2.875 -0.40625 2.554688 -0.65625 2.328125 -0.9375 L 2.328125 -0.046875 L 0.953125 -0.046875 L 0.953125 -9.859375 L 2.328125 -9.859375 L 2.328125 -5.984375 C 2.535156 -6.273438 2.84375 -6.539062 3.25 -6.78125 C 3.65625 -7.019531 4.101562 -7.140625 4.59375 -7.140625 Z M 4.40625 -5.890625 C 3.988281 -5.890625 3.617188 -5.785156 3.296875 -5.578125 C 2.972656 -5.378906 2.71875 -5.097656 2.53125 -4.734375 C 2.351562 -4.378906 2.265625 -3.972656 2.265625 -3.515625 C 2.265625 -3.066406 2.351562 -2.660156 2.53125 -2.296875 C 2.71875 -1.941406 2.972656 -1.65625 3.296875 -1.4375 C 3.617188 -1.226562 3.988281 -1.125 4.40625 -1.125 C 4.820312 -1.125 5.191406 -1.226562 5.515625 -1.4375 C 5.835938 -1.65625 6.085938 -1.941406 6.265625 -2.296875 C 6.453125 -2.660156 6.546875 -3.066406 6.546875 -3.515625 C 6.546875 -3.972656 6.453125 -4.378906 6.265625 -4.734375 C 6.085938 -5.097656 5.835938 -5.378906 5.515625 -5.578125 C 5.191406 -5.785156 4.820312 -5.890625 4.40625 -5.890625 Z M 4.40625 -5.890625 "/></g></g></g><g fill="#ffffff" fill-opacity="1"><g transform="translate(244.926658, 52.709413)"><g><path d="M 0.953125 0 L 0.953125 -9.859375 L 2.328125 -9.859375 L 2.328125 0 Z M 0.953125 0 "/></g></g></g><g fill="#ffffff" fill-opacity="1"><g transform="translate(248.259555, 52.709413)"><g><path d="M 7.484375 -7 L 7.484375 0 L 6.09375 0 L 6.09375 -1.078125 C 5.875 -0.785156 5.554688 -0.507812 5.140625 -0.25 C 4.722656 0.0078125 4.238281 0.140625 3.6875 0.140625 C 3.101562 0.140625 2.566406 -0.015625 2.078125 -0.328125 C 1.597656 -0.640625 1.210938 -1.070312 0.921875 -1.625 C 0.640625 -2.175781 0.5 -2.804688 0.5 -3.515625 C 0.5 -4.222656 0.644531 -4.847656 0.9375 -5.390625 C 1.238281 -5.941406 1.644531 -6.367188 2.15625 -6.671875 C 2.675781 -6.984375 3.265625 -7.140625 3.921875 -7.140625 C 4.410156 -7.140625 4.835938 -7.03125 5.203125 -6.8125 C 5.566406 -6.601562 5.863281 -6.359375 6.09375 -6.078125 L 6.09375 -7 Z M 4.015625 -1.140625 C 4.441406 -1.140625 4.8125 -1.242188 5.125 -1.453125 C 5.445312 -1.660156 5.695312 -1.941406 5.875 -2.296875 C 6.050781 -2.660156 6.140625 -3.066406 6.140625 -3.515625 C 6.140625 -3.960938 6.050781 -4.363281 5.875 -4.71875 C 5.695312 -5.070312 5.445312 -5.351562 5.125 -5.5625 C 4.8125 -5.769531 4.441406 -5.875 4.015625 -5.875 C 3.609375 -5.875 3.242188 -5.769531 2.921875 -5.5625 C 2.597656 -5.363281 2.347656 -5.085938 2.171875 -4.734375 C 1.992188 -4.378906 1.90625 -3.972656 1.90625 -3.515625 C 1.90625 -3.066406 1.992188 -2.660156 2.171875 -2.296875 C 2.347656 -1.941406 2.597656 -1.660156 2.921875 -1.453125 C 3.242188 -1.242188 3.609375 -1.140625 4.015625 -1.140625 Z M 4.015625 -1.140625 "/></g></g></g></svg>