<svg width="147" height="83" viewBox="0 0 147 83" fill="none" xmlns="http://www.w3.org/2000/svg">
<mask id="mask0_63_16" style="mask-type:luminance" maskUnits="userSpaceOnUse" x="0" y="24" width="41" height="44">
<path d="M0.0976562 24.2974H40.4063V67.2376H0.0976562V24.2974Z" fill="white"/>
</mask>
<g mask="url(#mask0_63_16)">
<mask id="mask1_63_16" style="mask-type:luminance" maskUnits="userSpaceOnUse" x="0" y="24" width="41" height="44">
<path d="M8.49121 24.2974H32.0127C34.2392 24.2974 36.3739 25.1814 37.948 26.7556C39.5222 28.3298 40.4063 30.4644 40.4063 32.6909V58.8149C40.4063 61.0414 39.5222 63.176 37.948 64.7502C36.3739 66.3243 34.2392 67.2084 32.0127 67.2084H8.49121C6.26557 67.2084 4.13092 66.3243 2.55675 64.7502C0.982588 63.176 0.0976562 61.0414 0.0976562 58.8149V32.6909C0.0976562 30.4644 0.982588 28.3298 2.55675 26.7556C4.13092 25.1814 6.26557 24.2974 8.49121 24.2974Z" fill="white"/>
</mask>
<g mask="url(#mask1_63_16)">
<path d="M0.0976562 24.2974H40.4063V67.2822H0.0976562V24.2974Z" fill="#7EC543"/>
</g>
</g>
<path d="M59.0208 40.0997H54.5369V47.8041C54.5369 48.7336 54.9283 49.3001 55.7111 49.5035C56.4956 49.7078 57.5994 49.7662 59.0208 49.6786V55.5976C56.178 55.8878 53.9575 55.7942 52.3602 55.3161C50.7645 54.8355 49.641 53.972 48.9887 52.724C48.3363 51.4768 48.0102 49.8366 48.0102 47.8041V40.0997H44.5254V33.8306H48.0102V29.6969L54.5369 27.7365V33.8306H59.0208V40.0997Z" fill="#FFFFFF"/>
<path d="M87.1 33.8304H94.0627L87.1 55.5975H81.0059L77.5211 43.9758L74.0397 55.5975H67.9456L60.9795 33.8304H67.9456L71.0802 45.4968L74.4758 33.8304H80.5699L83.9654 45.4968L87.1 33.8304Z" fill="#FFFFFF"/>
<path d="M99.9399 31.9182C98.8661 31.9182 97.9451 31.5336 97.176 30.7646C96.407 29.9955 96.0225 29.0745 96.0225 28.0008C96.0225 26.9253 96.407 26.0026 97.176 25.2335C97.9451 24.4645 98.8661 24.08 99.9399 24.08C101.013 24.08 101.935 24.4645 102.704 25.2335C103.473 26.0026 103.857 26.9253 103.857 28.0008C103.857 29.0745 103.473 29.9955 102.704 30.7646C101.935 31.5336 101.013 31.9182 99.9399 31.9182ZM96.6748 55.5976V33.8305H103.205V55.5976H96.6748Z" fill="#FFFFFF"/>
<path d="M119.966 30.7851C118.748 30.6684 117.768 30.8289 117.027 31.2658C116.287 31.701 115.918 32.5559 115.918 33.8305H119.966V40.0997H115.918V55.5976H109.388V40.0997H106.473V33.8305H109.388C109.388 30.7843 110.25 28.4127 111.976 26.7167C113.704 25.0189 116.367 24.285 119.966 24.5159V30.7851Z" fill="#FFFFFF"/>
<path d="M126.061 56.2088C124.93 56.2088 123.959 55.802 123.147 54.99C122.334 54.1754 121.928 53.203 121.928 52.0717C121.928 50.9413 122.334 49.9697 123.147 49.1568C123.959 48.3423 124.93 47.9346 126.061 47.9346C127.194 47.9346 128.167 48.3423 128.98 49.1568C129.792 49.9697 130.199 50.9413 130.199 52.0717C130.199 53.203 129.792 54.1754 128.98 54.99C128.167 55.802 127.194 56.2088 126.061 56.2088Z" fill="#6B0000"/>
</svg>
