<svg width="34" height="34" viewBox="0 0 34 34" fill="none" xmlns="http://www.w3.org/2000/svg">
<path d="M32 16.1667C32.0057 18.3665 31.4917 20.5365 30.5 22.5C29.324 24.8529 27.5162 26.832 25.279 28.2155C23.0419 29.599 20.4637 30.3323 17.8333 30.3333C15.6335 30.3391 13.4635 29.8251 11.5 28.8333L2 32L5.16666 22.5C4.17488 20.5365 3.66093 18.3665 3.66666 16.1667C3.66768 13.5363 4.40102 10.9581 5.78453 8.72095C7.16804 6.48379 9.14708 4.67599 11.5 3.50005C13.4635 2.50827 15.6335 1.99431 17.8333 2.00005H18.6666C22.1405 2.1917 25.4217 3.65798 27.8819 6.11814C30.342 8.5783 31.8083 11.8595 32 15.3334V16.1667Z" stroke="black" stroke-width="3.73737" stroke-linecap="round" stroke-linejoin="round"/>
</svg>
