<svg xmlns="http://www.w3.org/2000/svg" xmlns:xlink="http://www.w3.org/1999/xlink" width="614" zoomAndPan="magnify" viewBox="0 0 460.5 119.999999" height="160" preserveAspectRatio="xMidYMid meet" version="1.0"><defs><g/><clipPath id="5156df9aea"><path d="M 0 0.0664062 L 459.441406 0.0664062 L 459.441406 119.230469 L 0 119.230469 Z M 0 0.0664062 " clip-rule="nonzero"/></clipPath><clipPath id="f0df839871"><path d="M 18.730469 0.0664062 L 440.679688 0.0664062 C 445.644531 0.0664062 450.410156 2.039062 453.921875 5.550781 C 457.433594 9.0625 459.40625 13.828125 459.40625 18.792969 L 459.40625 100.5 C 459.40625 105.46875 457.433594 110.234375 453.921875 113.746094 C 450.410156 117.257812 445.644531 119.230469 440.679688 119.230469 L 18.730469 119.230469 C 13.761719 119.230469 9 117.257812 5.484375 113.746094 C 1.972656 110.234375 0 105.46875 0 100.5 L 0 18.792969 C 0 13.828125 1.972656 9.0625 5.484375 5.550781 C 9 2.039062 13.761719 0.0664062 18.730469 0.0664062 Z M 18.730469 0.0664062 " clip-rule="nonzero"/></clipPath><clipPath id="a2f0a466f2"><path d="M 304.917969 83.964844 L 319 83.964844 L 319 98 L 304.917969 98 Z M 304.917969 83.964844 " clip-rule="nonzero"/></clipPath><clipPath id="49763f7b9e"><path d="M 154.835938 85.953125 L 166.820312 85.953125 L 166.820312 97.9375 L 154.835938 97.9375 Z M 154.835938 85.953125 " clip-rule="nonzero"/></clipPath><clipPath id="cee6d4ccc8"><path d="M 163 94 L 166.820312 94 L 166.820312 97.9375 L 163 97.9375 Z M 163 94 " clip-rule="nonzero"/></clipPath><clipPath id="603fb9e3fd"><path d="M 50.675781 21.46875 L 88.882812 21.46875 L 88.882812 59.679688 L 50.675781 59.679688 Z M 50.675781 21.46875 " clip-rule="nonzero"/></clipPath><clipPath id="e9973f1e34"><path d="M 50.675781 40.574219 C 50.675781 39.320312 50.796875 38.078125 51.042969 36.847656 C 51.285156 35.617188 51.648438 34.421875 52.128906 33.261719 C 52.609375 32.105469 53.199219 31.003906 53.894531 29.960938 C 54.589844 28.917969 55.382812 27.953125 56.269531 27.066406 C 57.15625 26.179688 58.121094 25.386719 59.164062 24.691406 C 60.207031 23.992188 61.308594 23.40625 62.46875 22.925781 C 63.625 22.445312 64.820312 22.082031 66.050781 21.835938 C 67.28125 21.59375 68.523438 21.46875 69.777344 21.46875 C 71.03125 21.46875 72.273438 21.59375 73.503906 21.835938 C 74.734375 22.082031 75.929688 22.445312 77.089844 22.925781 C 78.246094 23.40625 79.347656 23.992188 80.390625 24.691406 C 81.433594 25.386719 82.398438 26.179688 83.285156 27.066406 C 84.171875 27.953125 84.964844 28.917969 85.664062 29.960938 C 86.359375 31.003906 86.949219 32.105469 87.429688 33.261719 C 87.90625 34.421875 88.269531 35.617188 88.515625 36.847656 C 88.761719 38.078125 88.882812 39.320312 88.882812 40.574219 C 88.882812 41.828125 88.761719 43.070312 88.515625 44.300781 C 88.269531 45.53125 87.90625 46.726562 87.429688 47.886719 C 86.949219 49.042969 86.359375 50.144531 85.664062 51.1875 C 84.964844 52.230469 84.171875 53.195312 83.285156 54.082031 C 82.398438 54.96875 81.433594 55.761719 80.390625 56.457031 C 79.347656 57.15625 78.246094 57.742188 77.089844 58.222656 C 75.929688 58.703125 74.734375 59.066406 73.503906 59.3125 C 72.273438 59.554688 71.03125 59.679688 69.777344 59.679688 C 68.523438 59.679688 67.28125 59.554688 66.050781 59.3125 C 64.820312 59.066406 63.625 58.703125 62.46875 58.222656 C 61.308594 57.742188 60.207031 57.15625 59.164062 56.457031 C 58.121094 55.761719 57.15625 54.96875 56.269531 54.082031 C 55.382812 53.195312 54.589844 52.230469 53.894531 51.1875 C 53.199219 50.144531 52.609375 49.042969 52.128906 47.886719 C 51.648438 46.726562 51.285156 45.53125 51.042969 44.300781 C 50.796875 43.070312 50.675781 41.828125 50.675781 40.574219 Z M 50.675781 40.574219 " clip-rule="nonzero"/></clipPath><clipPath id="fc70aad3ca"><path d="M 55 46 L 87 46 L 87 59.679688 L 55 59.679688 Z M 55 46 " clip-rule="nonzero"/></clipPath><clipPath id="26649925de"><path d="M 50.675781 40.574219 C 50.675781 39.320312 50.796875 38.078125 51.042969 36.847656 C 51.285156 35.617188 51.648438 34.421875 52.128906 33.261719 C 52.609375 32.105469 53.199219 31.003906 53.894531 29.960938 C 54.589844 28.917969 55.382812 27.953125 56.269531 27.066406 C 57.15625 26.179688 58.121094 25.386719 59.164062 24.691406 C 60.207031 23.992188 61.308594 23.40625 62.46875 22.925781 C 63.625 22.445312 64.820312 22.082031 66.050781 21.835938 C 67.28125 21.59375 68.523438 21.46875 69.777344 21.46875 C 71.03125 21.46875 72.273438 21.59375 73.503906 21.835938 C 74.734375 22.082031 75.929688 22.445312 77.089844 22.925781 C 78.246094 23.40625 79.347656 23.992188 80.390625 24.691406 C 81.433594 25.386719 82.398438 26.179688 83.285156 27.066406 C 84.171875 27.953125 84.964844 28.917969 85.664062 29.960938 C 86.359375 31.003906 86.949219 32.105469 87.429688 33.261719 C 87.90625 34.421875 88.269531 35.617188 88.515625 36.847656 C 88.761719 38.078125 88.882812 39.320312 88.882812 40.574219 C 88.882812 41.828125 88.761719 43.070312 88.515625 44.300781 C 88.269531 45.53125 87.90625 46.726562 87.429688 47.886719 C 86.949219 49.042969 86.359375 50.144531 85.664062 51.1875 C 84.964844 52.230469 84.171875 53.195312 83.285156 54.082031 C 82.398438 54.96875 81.433594 55.761719 80.390625 56.457031 C 79.347656 57.15625 78.246094 57.742188 77.089844 58.222656 C 75.929688 58.703125 74.734375 59.066406 73.503906 59.3125 C 72.273438 59.554688 71.03125 59.679688 69.777344 59.679688 C 68.523438 59.679688 67.28125 59.554688 66.050781 59.3125 C 64.820312 59.066406 63.625 58.703125 62.46875 58.222656 C 61.308594 57.742188 60.207031 57.15625 59.164062 56.457031 C 58.121094 55.761719 57.15625 54.96875 56.269531 54.082031 C 55.382812 53.195312 54.589844 52.230469 53.894531 51.1875 C 53.199219 50.144531 52.609375 49.042969 52.128906 47.886719 C 51.648438 46.726562 51.285156 45.53125 51.042969 44.300781 C 50.796875 43.070312 50.675781 41.828125 50.675781 40.574219 Z M 50.675781 40.574219 " clip-rule="nonzero"/></clipPath><clipPath id="134c6195b5"><path d="M 67 46 L 73 46 L 73 59.679688 L 67 59.679688 Z M 67 46 " clip-rule="nonzero"/></clipPath><clipPath id="afd4a0eb83"><path d="M 50.675781 40.574219 C 50.675781 39.320312 50.796875 38.078125 51.042969 36.847656 C 51.285156 35.617188 51.648438 34.421875 52.128906 33.261719 C 52.609375 32.105469 53.199219 31.003906 53.894531 29.960938 C 54.589844 28.917969 55.382812 27.953125 56.269531 27.066406 C 57.15625 26.179688 58.121094 25.386719 59.164062 24.691406 C 60.207031 23.992188 61.308594 23.40625 62.46875 22.925781 C 63.625 22.445312 64.820312 22.082031 66.050781 21.835938 C 67.28125 21.59375 68.523438 21.46875 69.777344 21.46875 C 71.03125 21.46875 72.273438 21.59375 73.503906 21.835938 C 74.734375 22.082031 75.929688 22.445312 77.089844 22.925781 C 78.246094 23.40625 79.347656 23.992188 80.390625 24.691406 C 81.433594 25.386719 82.398438 26.179688 83.285156 27.066406 C 84.171875 27.953125 84.964844 28.917969 85.664062 29.960938 C 86.359375 31.003906 86.949219 32.105469 87.429688 33.261719 C 87.90625 34.421875 88.269531 35.617188 88.515625 36.847656 C 88.761719 38.078125 88.882812 39.320312 88.882812 40.574219 C 88.882812 41.828125 88.761719 43.070312 88.515625 44.300781 C 88.269531 45.53125 87.90625 46.726562 87.429688 47.886719 C 86.949219 49.042969 86.359375 50.144531 85.664062 51.1875 C 84.964844 52.230469 84.171875 53.195312 83.285156 54.082031 C 82.398438 54.96875 81.433594 55.761719 80.390625 56.457031 C 79.347656 57.15625 78.246094 57.742188 77.089844 58.222656 C 75.929688 58.703125 74.734375 59.066406 73.503906 59.3125 C 72.273438 59.554688 71.03125 59.679688 69.777344 59.679688 C 68.523438 59.679688 67.28125 59.554688 66.050781 59.3125 C 64.820312 59.066406 63.625 58.703125 62.46875 58.222656 C 61.308594 57.742188 60.207031 57.15625 59.164062 56.457031 C 58.121094 55.761719 57.15625 54.96875 56.269531 54.082031 C 55.382812 53.195312 54.589844 52.230469 53.894531 51.1875 C 53.199219 50.144531 52.609375 49.042969 52.128906 47.886719 C 51.648438 46.726562 51.285156 45.53125 51.042969 44.300781 C 50.796875 43.070312 50.675781 41.828125 50.675781 40.574219 Z M 50.675781 40.574219 " clip-rule="nonzero"/></clipPath><clipPath id="9b69f60650"><path d="M 67 46 L 74 46 L 74 49 L 67 49 Z M 67 46 " clip-rule="nonzero"/></clipPath><clipPath id="c575eb665b"><path d="M 50.675781 40.574219 C 50.675781 39.320312 50.796875 38.078125 51.042969 36.847656 C 51.285156 35.617188 51.648438 34.421875 52.128906 33.261719 C 52.609375 32.105469 53.199219 31.003906 53.894531 29.960938 C 54.589844 28.917969 55.382812 27.953125 56.269531 27.066406 C 57.15625 26.179688 58.121094 25.386719 59.164062 24.691406 C 60.207031 23.992188 61.308594 23.40625 62.46875 22.925781 C 63.625 22.445312 64.820312 22.082031 66.050781 21.835938 C 67.28125 21.59375 68.523438 21.46875 69.777344 21.46875 C 71.03125 21.46875 72.273438 21.59375 73.503906 21.835938 C 74.734375 22.082031 75.929688 22.445312 77.089844 22.925781 C 78.246094 23.40625 79.347656 23.992188 80.390625 24.691406 C 81.433594 25.386719 82.398438 26.179688 83.285156 27.066406 C 84.171875 27.953125 84.964844 28.917969 85.664062 29.960938 C 86.359375 31.003906 86.949219 32.105469 87.429688 33.261719 C 87.90625 34.421875 88.269531 35.617188 88.515625 36.847656 C 88.761719 38.078125 88.882812 39.320312 88.882812 40.574219 C 88.882812 41.828125 88.761719 43.070312 88.515625 44.300781 C 88.269531 45.53125 87.90625 46.726562 87.429688 47.886719 C 86.949219 49.042969 86.359375 50.144531 85.664062 51.1875 C 84.964844 52.230469 84.171875 53.195312 83.285156 54.082031 C 82.398438 54.96875 81.433594 55.761719 80.390625 56.457031 C 79.347656 57.15625 78.246094 57.742188 77.089844 58.222656 C 75.929688 58.703125 74.734375 59.066406 73.503906 59.3125 C 72.273438 59.554688 71.03125 59.679688 69.777344 59.679688 C 68.523438 59.679688 67.28125 59.554688 66.050781 59.3125 C 64.820312 59.066406 63.625 58.703125 62.46875 58.222656 C 61.308594 57.742188 60.207031 57.15625 59.164062 56.457031 C 58.121094 55.761719 57.15625 54.96875 56.269531 54.082031 C 55.382812 53.195312 54.589844 52.230469 53.894531 51.1875 C 53.199219 50.144531 52.609375 49.042969 52.128906 47.886719 C 51.648438 46.726562 51.285156 45.53125 51.042969 44.300781 C 50.796875 43.070312 50.675781 41.828125 50.675781 40.574219 Z M 50.675781 40.574219 " clip-rule="nonzero"/></clipPath><clipPath id="7bf8992bf9"><path d="M 62 32 L 77 32 L 77 46 L 62 46 Z M 62 32 " clip-rule="nonzero"/></clipPath><clipPath id="51c0af208c"><path d="M 50.675781 40.574219 C 50.675781 39.320312 50.796875 38.078125 51.042969 36.847656 C 51.285156 35.617188 51.648438 34.421875 52.128906 33.261719 C 52.609375 32.105469 53.199219 31.003906 53.894531 29.960938 C 54.589844 28.917969 55.382812 27.953125 56.269531 27.066406 C 57.15625 26.179688 58.121094 25.386719 59.164062 24.691406 C 60.207031 23.992188 61.308594 23.40625 62.46875 22.925781 C 63.625 22.445312 64.820312 22.082031 66.050781 21.835938 C 67.28125 21.59375 68.523438 21.46875 69.777344 21.46875 C 71.03125 21.46875 72.273438 21.59375 73.503906 21.835938 C 74.734375 22.082031 75.929688 22.445312 77.089844 22.925781 C 78.246094 23.40625 79.347656 23.992188 80.390625 24.691406 C 81.433594 25.386719 82.398438 26.179688 83.285156 27.066406 C 84.171875 27.953125 84.964844 28.917969 85.664062 29.960938 C 86.359375 31.003906 86.949219 32.105469 87.429688 33.261719 C 87.90625 34.421875 88.269531 35.617188 88.515625 36.847656 C 88.761719 38.078125 88.882812 39.320312 88.882812 40.574219 C 88.882812 41.828125 88.761719 43.070312 88.515625 44.300781 C 88.269531 45.53125 87.90625 46.726562 87.429688 47.886719 C 86.949219 49.042969 86.359375 50.144531 85.664062 51.1875 C 84.964844 52.230469 84.171875 53.195312 83.285156 54.082031 C 82.398438 54.96875 81.433594 55.761719 80.390625 56.457031 C 79.347656 57.15625 78.246094 57.742188 77.089844 58.222656 C 75.929688 58.703125 74.734375 59.066406 73.503906 59.3125 C 72.273438 59.554688 71.03125 59.679688 69.777344 59.679688 C 68.523438 59.679688 67.28125 59.554688 66.050781 59.3125 C 64.820312 59.066406 63.625 58.703125 62.46875 58.222656 C 61.308594 57.742188 60.207031 57.15625 59.164062 56.457031 C 58.121094 55.761719 57.15625 54.96875 56.269531 54.082031 C 55.382812 53.195312 54.589844 52.230469 53.894531 51.1875 C 53.199219 50.144531 52.609375 49.042969 52.128906 47.886719 C 51.648438 46.726562 51.285156 45.53125 51.042969 44.300781 C 50.796875 43.070312 50.675781 41.828125 50.675781 40.574219 Z M 50.675781 40.574219 " clip-rule="nonzero"/></clipPath><clipPath id="555c14ba00"><path d="M 67 41 L 73 41 L 73 49 L 67 49 Z M 67 41 " clip-rule="nonzero"/></clipPath><clipPath id="e0fa2a050e"><path d="M 50.675781 40.574219 C 50.675781 39.320312 50.796875 38.078125 51.042969 36.847656 C 51.285156 35.617188 51.648438 34.421875 52.128906 33.261719 C 52.609375 32.105469 53.199219 31.003906 53.894531 29.960938 C 54.589844 28.917969 55.382812 27.953125 56.269531 27.066406 C 57.15625 26.179688 58.121094 25.386719 59.164062 24.691406 C 60.207031 23.992188 61.308594 23.40625 62.46875 22.925781 C 63.625 22.445312 64.820312 22.082031 66.050781 21.835938 C 67.28125 21.59375 68.523438 21.46875 69.777344 21.46875 C 71.03125 21.46875 72.273438 21.59375 73.503906 21.835938 C 74.734375 22.082031 75.929688 22.445312 77.089844 22.925781 C 78.246094 23.40625 79.347656 23.992188 80.390625 24.691406 C 81.433594 25.386719 82.398438 26.179688 83.285156 27.066406 C 84.171875 27.953125 84.964844 28.917969 85.664062 29.960938 C 86.359375 31.003906 86.949219 32.105469 87.429688 33.261719 C 87.90625 34.421875 88.269531 35.617188 88.515625 36.847656 C 88.761719 38.078125 88.882812 39.320312 88.882812 40.574219 C 88.882812 41.828125 88.761719 43.070312 88.515625 44.300781 C 88.269531 45.53125 87.90625 46.726562 87.429688 47.886719 C 86.949219 49.042969 86.359375 50.144531 85.664062 51.1875 C 84.964844 52.230469 84.171875 53.195312 83.285156 54.082031 C 82.398438 54.96875 81.433594 55.761719 80.390625 56.457031 C 79.347656 57.15625 78.246094 57.742188 77.089844 58.222656 C 75.929688 58.703125 74.734375 59.066406 73.503906 59.3125 C 72.273438 59.554688 71.03125 59.679688 69.777344 59.679688 C 68.523438 59.679688 67.28125 59.554688 66.050781 59.3125 C 64.820312 59.066406 63.625 58.703125 62.46875 58.222656 C 61.308594 57.742188 60.207031 57.15625 59.164062 56.457031 C 58.121094 55.761719 57.15625 54.96875 56.269531 54.082031 C 55.382812 53.195312 54.589844 52.230469 53.894531 51.1875 C 53.199219 50.144531 52.609375 49.042969 52.128906 47.886719 C 51.648438 46.726562 51.285156 45.53125 51.042969 44.300781 C 50.796875 43.070312 50.675781 41.828125 50.675781 40.574219 Z M 50.675781 40.574219 " clip-rule="nonzero"/></clipPath><clipPath id="c94c51d245"><path d="M 67 41 L 73 41 L 73 47 L 67 47 Z M 67 41 " clip-rule="nonzero"/></clipPath><clipPath id="53f57a3b17"><path d="M 50.675781 40.574219 C 50.675781 39.320312 50.796875 38.078125 51.042969 36.847656 C 51.285156 35.617188 51.648438 34.421875 52.128906 33.261719 C 52.609375 32.105469 53.199219 31.003906 53.894531 29.960938 C 54.589844 28.917969 55.382812 27.953125 56.269531 27.066406 C 57.15625 26.179688 58.121094 25.386719 59.164062 24.691406 C 60.207031 23.992188 61.308594 23.40625 62.46875 22.925781 C 63.625 22.445312 64.820312 22.082031 66.050781 21.835938 C 67.28125 21.59375 68.523438 21.46875 69.777344 21.46875 C 71.03125 21.46875 72.273438 21.59375 73.503906 21.835938 C 74.734375 22.082031 75.929688 22.445312 77.089844 22.925781 C 78.246094 23.40625 79.347656 23.992188 80.390625 24.691406 C 81.433594 25.386719 82.398438 26.179688 83.285156 27.066406 C 84.171875 27.953125 84.964844 28.917969 85.664062 29.960938 C 86.359375 31.003906 86.949219 32.105469 87.429688 33.261719 C 87.90625 34.421875 88.269531 35.617188 88.515625 36.847656 C 88.761719 38.078125 88.882812 39.320312 88.882812 40.574219 C 88.882812 41.828125 88.761719 43.070312 88.515625 44.300781 C 88.269531 45.53125 87.90625 46.726562 87.429688 47.886719 C 86.949219 49.042969 86.359375 50.144531 85.664062 51.1875 C 84.964844 52.230469 84.171875 53.195312 83.285156 54.082031 C 82.398438 54.96875 81.433594 55.761719 80.390625 56.457031 C 79.347656 57.15625 78.246094 57.742188 77.089844 58.222656 C 75.929688 58.703125 74.734375 59.066406 73.503906 59.3125 C 72.273438 59.554688 71.03125 59.679688 69.777344 59.679688 C 68.523438 59.679688 67.28125 59.554688 66.050781 59.3125 C 64.820312 59.066406 63.625 58.703125 62.46875 58.222656 C 61.308594 57.742188 60.207031 57.15625 59.164062 56.457031 C 58.121094 55.761719 57.15625 54.96875 56.269531 54.082031 C 55.382812 53.195312 54.589844 52.230469 53.894531 51.1875 C 53.199219 50.144531 52.609375 49.042969 52.128906 47.886719 C 51.648438 46.726562 51.285156 45.53125 51.042969 44.300781 C 50.796875 43.070312 50.675781 41.828125 50.675781 40.574219 Z M 50.675781 40.574219 " clip-rule="nonzero"/></clipPath><clipPath id="58f429237e"><path d="M 64 36 L 75 36 L 75 45 L 64 45 Z M 64 36 " clip-rule="nonzero"/></clipPath><clipPath id="ff1bca2f36"><path d="M 50.675781 40.574219 C 50.675781 39.320312 50.796875 38.078125 51.042969 36.847656 C 51.285156 35.617188 51.648438 34.421875 52.128906 33.261719 C 52.609375 32.105469 53.199219 31.003906 53.894531 29.960938 C 54.589844 28.917969 55.382812 27.953125 56.269531 27.066406 C 57.15625 26.179688 58.121094 25.386719 59.164062 24.691406 C 60.207031 23.992188 61.308594 23.40625 62.46875 22.925781 C 63.625 22.445312 64.820312 22.082031 66.050781 21.835938 C 67.28125 21.59375 68.523438 21.46875 69.777344 21.46875 C 71.03125 21.46875 72.273438 21.59375 73.503906 21.835938 C 74.734375 22.082031 75.929688 22.445312 77.089844 22.925781 C 78.246094 23.40625 79.347656 23.992188 80.390625 24.691406 C 81.433594 25.386719 82.398438 26.179688 83.285156 27.066406 C 84.171875 27.953125 84.964844 28.917969 85.664062 29.960938 C 86.359375 31.003906 86.949219 32.105469 87.429688 33.261719 C 87.90625 34.421875 88.269531 35.617188 88.515625 36.847656 C 88.761719 38.078125 88.882812 39.320312 88.882812 40.574219 C 88.882812 41.828125 88.761719 43.070312 88.515625 44.300781 C 88.269531 45.53125 87.90625 46.726562 87.429688 47.886719 C 86.949219 49.042969 86.359375 50.144531 85.664062 51.1875 C 84.964844 52.230469 84.171875 53.195312 83.285156 54.082031 C 82.398438 54.96875 81.433594 55.761719 80.390625 56.457031 C 79.347656 57.15625 78.246094 57.742188 77.089844 58.222656 C 75.929688 58.703125 74.734375 59.066406 73.503906 59.3125 C 72.273438 59.554688 71.03125 59.679688 69.777344 59.679688 C 68.523438 59.679688 67.28125 59.554688 66.050781 59.3125 C 64.820312 59.066406 63.625 58.703125 62.46875 58.222656 C 61.308594 57.742188 60.207031 57.15625 59.164062 56.457031 C 58.121094 55.761719 57.15625 54.96875 56.269531 54.082031 C 55.382812 53.195312 54.589844 52.230469 53.894531 51.1875 C 53.199219 50.144531 52.609375 49.042969 52.128906 47.886719 C 51.648438 46.726562 51.285156 45.53125 51.042969 44.300781 C 50.796875 43.070312 50.675781 41.828125 50.675781 40.574219 Z M 50.675781 40.574219 " clip-rule="nonzero"/></clipPath></defs><g clip-path="url(#5156df9aea)"><g clip-path="url(#f0df839871)"><path fill="#011214" d="M 0 0.0664062 L 459.441406 0.0664062 L 459.441406 119.230469 L 0 119.230469 Z M 0 0.0664062 " fill-opacity="1" fill-rule="nonzero"/></g></g><g clip-path="url(#a2f0a466f2)"><path fill="#ffffff" d="M 318.835938 90.925781 C 318.835938 94.769531 315.722656 97.882812 311.878906 97.882812 C 308.035156 97.882812 304.917969 94.769531 304.917969 90.925781 C 304.917969 87.082031 308.035156 83.964844 311.878906 83.964844 C 315.722656 83.964844 318.835938 87.082031 318.835938 90.925781 Z M 318.835938 90.925781 " fill-opacity="1" fill-rule="nonzero"/></g><path fill="#6b0000" d="M 316.273438 90.074219 C 316.273438 92.554688 312.75 94.613281 312.011719 95.019531 C 311.929688 95.066406 311.824219 95.066406 311.742188 95.019531 C 311.003906 94.617188 307.480469 92.554688 307.480469 90.074219 C 307.480469 90.054688 307.480469 90.035156 307.480469 90.019531 C 307.480469 90.007812 307.480469 89.996094 307.480469 89.984375 C 307.480469 89.921875 307.484375 89.855469 307.484375 89.792969 C 307.574219 88.535156 308.519531 87.546875 309.675781 87.546875 C 310.890625 87.546875 311.875 88.640625 311.875 89.984375 C 311.875 88.640625 312.859375 87.546875 314.074219 87.546875 C 315.242188 87.546875 316.195312 88.554688 316.269531 89.824219 C 316.269531 89.878906 316.273438 89.929688 316.273438 89.984375 L 316.273438 89.988281 C 316.273438 90.015625 316.273438 90.046875 316.273438 90.074219 Z M 316.273438 90.074219 " fill-opacity="1" fill-rule="nonzero"/><g clip-path="url(#49763f7b9e)"><path fill="#ffffff" d="M 166.546875 91.808594 C 166.546875 92.191406 166.507812 92.574219 166.433594 92.949219 C 166.359375 93.328125 166.25 93.695312 166.101562 94.050781 C 165.953125 94.40625 165.773438 94.742188 165.558594 95.0625 C 165.347656 95.382812 165.105469 95.675781 164.832031 95.949219 C 164.558594 96.222656 164.265625 96.464844 163.945312 96.675781 C 163.625 96.890625 163.289062 97.070312 162.933594 97.21875 C 162.578125 97.367188 162.210938 97.476562 161.832031 97.550781 C 161.457031 97.625 161.074219 97.664062 160.691406 97.664062 C 160.304688 97.664062 159.925781 97.625 159.546875 97.550781 C 159.171875 97.476562 158.804688 97.367188 158.449219 97.21875 C 158.09375 97.070312 157.757812 96.890625 157.4375 96.675781 C 157.117188 96.464844 156.820312 96.222656 156.550781 95.949219 C 156.277344 95.675781 156.035156 95.382812 155.820312 95.0625 C 155.609375 94.742188 155.429688 94.40625 155.28125 94.050781 C 155.132812 93.695312 155.023438 93.328125 154.949219 92.949219 C 154.871094 92.574219 154.835938 92.191406 154.835938 91.808594 C 154.835938 91.421875 154.871094 91.042969 154.949219 90.664062 C 155.023438 90.289062 155.132812 89.921875 155.28125 89.566406 C 155.429688 89.210938 155.609375 88.875 155.820312 88.554688 C 156.035156 88.234375 156.277344 87.9375 156.550781 87.667969 C 156.820312 87.394531 157.117188 87.152344 157.4375 86.9375 C 157.757812 86.726562 158.09375 86.546875 158.449219 86.398438 C 158.804688 86.25 159.171875 86.140625 159.546875 86.066406 C 159.925781 85.988281 160.304688 85.953125 160.691406 85.953125 C 161.074219 85.953125 161.457031 85.988281 161.832031 86.066406 C 162.210938 86.140625 162.578125 86.25 162.933594 86.398438 C 163.289062 86.546875 163.625 86.726562 163.945312 86.9375 C 164.265625 87.152344 164.558594 87.394531 164.832031 87.667969 C 165.105469 87.9375 165.347656 88.234375 165.558594 88.554688 C 165.773438 88.875 165.953125 89.210938 166.101562 89.566406 C 166.25 89.921875 166.359375 90.289062 166.433594 90.664062 C 166.507812 91.042969 166.546875 91.421875 166.546875 91.808594 Z M 166.546875 91.808594 " fill-opacity="1" fill-rule="nonzero"/></g><g clip-path="url(#cee6d4ccc8)"><path fill="#ffffff" d="M 165.949219 94.351562 L 163.800781 96.738281 C 164.769531 97.121094 165.742188 97.5 166.714844 97.878906 C 166.460938 96.703125 166.203125 95.527344 165.949219 94.351562 Z M 165.949219 94.351562 " fill-opacity="1" fill-rule="nonzero"/></g><g fill="#7ec543" fill-opacity="1"><g transform="translate(95.70748, 34.184147)"><g><path d="M 8.6875 -9.34375 L 8.6875 -3.578125 C 8.6875 -2.878906 8.523438 -2.25 8.203125 -1.6875 C 7.878906 -1.132812 7.4375 -0.703125 6.875 -0.390625 C 6.3125 -0.078125 5.664062 0.078125 4.9375 0.078125 C 4.21875 0.078125 3.570312 -0.078125 3 -0.390625 C 2.425781 -0.703125 1.976562 -1.132812 1.65625 -1.6875 C 1.332031 -2.25 1.171875 -2.878906 1.171875 -3.578125 L 1.171875 -9.34375 L 2.609375 -9.34375 L 2.609375 -3.703125 C 2.609375 -3.242188 2.71875 -2.832031 2.9375 -2.46875 C 3.15625 -2.101562 3.441406 -1.816406 3.796875 -1.609375 C 4.148438 -1.410156 4.53125 -1.3125 4.9375 -1.3125 C 5.363281 -1.3125 5.753906 -1.410156 6.109375 -1.609375 C 6.472656 -1.816406 6.765625 -2.101562 6.984375 -2.46875 C 7.203125 -2.832031 7.3125 -3.242188 7.3125 -3.703125 L 7.3125 -9.34375 Z M 8.6875 -9.34375 "/></g></g></g><g fill="#7ec543" fill-opacity="1"><g transform="translate(105.572867, 34.184147)"><g><path d="M 5 -5.15625 C 4.75 -5.40625 4.460938 -5.609375 4.140625 -5.765625 C 3.828125 -5.929688 3.539062 -6.015625 3.28125 -6.015625 C 3.09375 -6.015625 2.90625 -5.988281 2.71875 -5.9375 C 2.539062 -5.894531 2.390625 -5.8125 2.265625 -5.6875 C 2.140625 -5.570312 2.078125 -5.398438 2.078125 -5.171875 C 2.085938 -4.847656 2.234375 -4.617188 2.515625 -4.484375 C 2.796875 -4.359375 3.144531 -4.238281 3.5625 -4.125 C 3.925781 -4.03125 4.28125 -3.910156 4.625 -3.765625 C 4.96875 -3.617188 5.253906 -3.40625 5.484375 -3.125 C 5.710938 -2.84375 5.828125 -2.453125 5.828125 -1.953125 C 5.828125 -1.515625 5.703125 -1.140625 5.453125 -0.828125 C 5.210938 -0.515625 4.898438 -0.273438 4.515625 -0.109375 C 4.128906 0.0546875 3.722656 0.140625 3.296875 0.140625 C 2.785156 0.140625 2.28125 0.0507812 1.78125 -0.125 C 1.289062 -0.3125 0.875 -0.628906 0.53125 -1.078125 L 1.46875 -1.875 C 1.707031 -1.601562 1.976562 -1.390625 2.28125 -1.234375 C 2.59375 -1.078125 2.96875 -1 3.40625 -1 C 3.582031 -1 3.753906 -1.023438 3.921875 -1.078125 C 4.085938 -1.140625 4.226562 -1.234375 4.34375 -1.359375 C 4.46875 -1.492188 4.53125 -1.671875 4.53125 -1.890625 C 4.53125 -2.109375 4.460938 -2.273438 4.328125 -2.390625 C 4.203125 -2.515625 4.03125 -2.613281 3.8125 -2.6875 C 3.601562 -2.757812 3.375 -2.828125 3.125 -2.890625 C 2.738281 -2.992188 2.359375 -3.125 1.984375 -3.28125 C 1.617188 -3.4375 1.3125 -3.660156 1.0625 -3.953125 C 0.820312 -4.242188 0.703125 -4.632812 0.703125 -5.125 C 0.703125 -5.539062 0.816406 -5.898438 1.046875 -6.203125 C 1.285156 -6.503906 1.597656 -6.734375 1.984375 -6.890625 C 2.367188 -7.054688 2.78125 -7.140625 3.21875 -7.140625 C 3.632812 -7.140625 4.082031 -7.050781 4.5625 -6.875 C 5.050781 -6.695312 5.457031 -6.414062 5.78125 -6.03125 Z M 5 -5.15625 "/></g></g></g><g fill="#7ec543" fill-opacity="1"><g transform="translate(111.958705, 34.184147)"><g><path d="M 5.734375 -2.78125 L 5.734375 -7 L 7.109375 -7 L 7.109375 0 L 5.734375 0 L 5.734375 -1.125 C 5.523438 -0.789062 5.222656 -0.492188 4.828125 -0.234375 C 4.429688 0.015625 3.957031 0.140625 3.40625 0.140625 C 2.675781 0.140625 2.082031 -0.109375 1.625 -0.609375 C 1.175781 -1.109375 0.953125 -1.796875 0.953125 -2.671875 L 0.953125 -7 L 2.328125 -7 L 2.328125 -3.046875 C 2.328125 -2.691406 2.382812 -2.363281 2.5 -2.0625 C 2.613281 -1.757812 2.789062 -1.515625 3.03125 -1.328125 C 3.28125 -1.148438 3.59375 -1.0625 3.96875 -1.0625 C 4.445312 -1.0625 4.859375 -1.210938 5.203125 -1.515625 C 5.554688 -1.816406 5.734375 -2.238281 5.734375 -2.78125 Z M 5.734375 -2.78125 "/></g></g></g><g fill="#7ec543" fill-opacity="1"><g transform="translate(120.024325, 34.184147)"><g><path d="M 7.484375 -7 L 7.484375 0 L 6.09375 0 L 6.09375 -1.078125 C 5.875 -0.785156 5.554688 -0.507812 5.140625 -0.25 C 4.722656 0.0078125 4.238281 0.140625 3.6875 0.140625 C 3.101562 0.140625 2.566406 -0.015625 2.078125 -0.328125 C 1.597656 -0.640625 1.210938 -1.070312 0.921875 -1.625 C 0.640625 -2.175781 0.5 -2.804688 0.5 -3.515625 C 0.5 -4.222656 0.644531 -4.847656 0.9375 -5.390625 C 1.238281 -5.941406 1.644531 -6.367188 2.15625 -6.671875 C 2.675781 -6.984375 3.265625 -7.140625 3.921875 -7.140625 C 4.410156 -7.140625 4.835938 -7.03125 5.203125 -6.8125 C 5.566406 -6.601562 5.863281 -6.359375 6.09375 -6.078125 L 6.09375 -7 Z M 4.015625 -1.140625 C 4.441406 -1.140625 4.8125 -1.242188 5.125 -1.453125 C 5.445312 -1.660156 5.695312 -1.941406 5.875 -2.296875 C 6.050781 -2.660156 6.140625 -3.066406 6.140625 -3.515625 C 6.140625 -3.960938 6.050781 -4.363281 5.875 -4.71875 C 5.695312 -5.070312 5.445312 -5.351562 5.125 -5.5625 C 4.8125 -5.769531 4.441406 -5.875 4.015625 -5.875 C 3.609375 -5.875 3.242188 -5.769531 2.921875 -5.5625 C 2.597656 -5.363281 2.347656 -5.085938 2.171875 -4.734375 C 1.992188 -4.378906 1.90625 -3.972656 1.90625 -3.515625 C 1.90625 -3.066406 1.992188 -2.660156 2.171875 -2.296875 C 2.347656 -1.941406 2.597656 -1.660156 2.921875 -1.453125 C 3.242188 -1.242188 3.609375 -1.140625 4.015625 -1.140625 Z M 3.859375 -8.40625 L 3.40625 -9.078125 L 5.3125 -10.75 L 6.1875 -9.65625 Z M 3.859375 -8.40625 "/></g></g></g><g fill="#7ec543" fill-opacity="1"><g transform="translate(128.463231, 34.184147)"><g><path d="M 4.875 -5.515625 C 4.789062 -5.554688 4.679688 -5.59375 4.546875 -5.625 C 4.421875 -5.65625 4.285156 -5.671875 4.140625 -5.671875 C 3.859375 -5.671875 3.578125 -5.597656 3.296875 -5.453125 C 3.023438 -5.304688 2.796875 -5.097656 2.609375 -4.828125 C 2.429688 -4.554688 2.34375 -4.234375 2.34375 -3.859375 L 2.34375 0 L 0.953125 0 L 0.953125 -7 L 2.34375 -7 L 2.34375 -5.671875 C 2.539062 -6.097656 2.835938 -6.445312 3.234375 -6.71875 C 3.628906 -7 4.046875 -7.140625 4.484375 -7.140625 C 4.804688 -7.140625 5.054688 -7.097656 5.234375 -7.015625 Z M 4.875 -5.515625 "/></g></g></g><g fill="#7ec543" fill-opacity="1"><g transform="translate(133.835868, 34.184147)"><g><path d="M 1.875 -8.515625 C 1.570312 -8.515625 1.34375 -8.59375 1.1875 -8.75 C 1.039062 -8.914062 0.96875 -9.128906 0.96875 -9.390625 C 0.96875 -9.609375 1.039062 -9.804688 1.1875 -9.984375 C 1.34375 -10.160156 1.570312 -10.25 1.875 -10.25 C 2.1875 -10.25 2.414062 -10.164062 2.5625 -10 C 2.71875 -9.84375 2.796875 -9.640625 2.796875 -9.390625 C 2.796875 -9.160156 2.71875 -8.957031 2.5625 -8.78125 C 2.414062 -8.601562 2.1875 -8.515625 1.875 -8.515625 Z M 2.578125 0 L 1.203125 0 L 1.203125 -7 L 2.578125 -7 Z M 2.578125 0 "/></g></g></g><g fill="#7ec543" fill-opacity="1"><g transform="translate(137.542053, 34.184147)"><g><path d="M 7.484375 -7 L 7.484375 0 L 6.09375 0 L 6.09375 -1.078125 C 5.875 -0.785156 5.554688 -0.507812 5.140625 -0.25 C 4.722656 0.0078125 4.238281 0.140625 3.6875 0.140625 C 3.101562 0.140625 2.566406 -0.015625 2.078125 -0.328125 C 1.597656 -0.640625 1.210938 -1.070312 0.921875 -1.625 C 0.640625 -2.175781 0.5 -2.804688 0.5 -3.515625 C 0.5 -4.222656 0.644531 -4.847656 0.9375 -5.390625 C 1.238281 -5.941406 1.644531 -6.367188 2.15625 -6.671875 C 2.675781 -6.984375 3.265625 -7.140625 3.921875 -7.140625 C 4.410156 -7.140625 4.835938 -7.03125 5.203125 -6.8125 C 5.566406 -6.601562 5.863281 -6.359375 6.09375 -6.078125 L 6.09375 -7 Z M 4.015625 -1.140625 C 4.441406 -1.140625 4.8125 -1.242188 5.125 -1.453125 C 5.445312 -1.660156 5.695312 -1.941406 5.875 -2.296875 C 6.050781 -2.660156 6.140625 -3.066406 6.140625 -3.515625 C 6.140625 -3.960938 6.050781 -4.363281 5.875 -4.71875 C 5.695312 -5.070312 5.445312 -5.351562 5.125 -5.5625 C 4.8125 -5.769531 4.441406 -5.875 4.015625 -5.875 C 3.609375 -5.875 3.242188 -5.769531 2.921875 -5.5625 C 2.597656 -5.363281 2.347656 -5.085938 2.171875 -4.734375 C 1.992188 -4.378906 1.90625 -3.972656 1.90625 -3.515625 C 1.90625 -3.066406 1.992188 -2.660156 2.171875 -2.296875 C 2.347656 -1.941406 2.597656 -1.660156 2.921875 -1.453125 C 3.242188 -1.242188 3.609375 -1.140625 4.015625 -1.140625 Z M 4.015625 -1.140625 "/></g></g></g><g fill="#7ec543" fill-opacity="1"><g transform="translate(145.980959, 34.184147)"><g/></g></g><g fill="#7ec543" fill-opacity="1"><g transform="translate(149.713808, 34.184147)"><g><path d="M 7.46875 0 L 6.578125 -2.3125 L 2.671875 -2.3125 L 1.796875 0 L 0.328125 0 L 3.9375 -9.328125 L 5.40625 -9.328125 L 9 0 Z M 3.921875 -5.578125 L 3.21875 -3.703125 L 6.0625 -3.703125 L 5.328125 -5.625 C 5.210938 -5.9375 5.097656 -6.269531 4.984375 -6.625 C 4.867188 -6.988281 4.753906 -7.351562 4.640625 -7.71875 C 4.515625 -7.34375 4.390625 -6.96875 4.265625 -6.59375 C 4.148438 -6.21875 4.035156 -5.878906 3.921875 -5.578125 Z M 3.921875 -5.578125 "/></g></g></g><g fill="#7ec543" fill-opacity="1"><g transform="translate(159.045933, 34.184147)"><g><path d="M 0.953125 0 L 0.953125 -9.859375 L 2.328125 -9.859375 L 2.328125 0 Z M 0.953125 0 "/></g></g></g><g fill="#7ec543" fill-opacity="1"><g transform="translate(162.37883, 34.184147)"><g><path d="M 4.515625 -7.125 C 5.097656 -7.125 5.5625 -6.988281 5.90625 -6.71875 C 6.25 -6.457031 6.5 -6.101562 6.65625 -5.65625 C 6.78125 -5.875 6.960938 -6.09375 7.203125 -6.3125 C 7.441406 -6.539062 7.71875 -6.734375 8.03125 -6.890625 C 8.351562 -7.046875 8.695312 -7.125 9.0625 -7.125 C 9.664062 -7.125 10.132812 -6.988281 10.46875 -6.71875 C 10.8125 -6.457031 11.050781 -6.109375 11.1875 -5.671875 C 11.320312 -5.234375 11.390625 -4.742188 11.390625 -4.203125 L 11.390625 0 L 10.015625 0 L 10.015625 -4.125 C 10.015625 -4.632812 9.914062 -5.046875 9.71875 -5.359375 C 9.519531 -5.679688 9.148438 -5.84375 8.609375 -5.84375 C 8.097656 -5.84375 7.675781 -5.679688 7.34375 -5.359375 C 7.007812 -5.035156 6.84375 -4.644531 6.84375 -4.1875 L 6.84375 0 L 5.453125 0 L 5.453125 -4.140625 C 5.453125 -4.640625 5.34375 -5.046875 5.125 -5.359375 C 4.914062 -5.679688 4.566406 -5.84375 4.078125 -5.84375 C 3.742188 -5.84375 3.441406 -5.765625 3.171875 -5.609375 C 2.898438 -5.460938 2.6875 -5.269531 2.53125 -5.03125 C 2.382812 -4.789062 2.3125 -4.519531 2.3125 -4.21875 L 2.3125 0 L 0.9375 0 L 0.9375 -7 L 2.3125 -7 L 2.3125 -5.875 C 2.53125 -6.195312 2.832031 -6.484375 3.21875 -6.734375 C 3.601562 -6.992188 4.035156 -7.125 4.515625 -7.125 Z M 4.515625 -7.125 "/></g></g></g><g fill="#7ec543" fill-opacity="1"><g transform="translate(174.657237, 34.184147)"><g><path d="M 6.96875 -0.921875 L 6.953125 -0.921875 C 6.671875 -0.640625 6.28125 -0.390625 5.78125 -0.171875 C 5.28125 0.0351562 4.757812 0.140625 4.21875 0.140625 C 3.488281 0.140625 2.847656 -0.0078125 2.296875 -0.3125 C 1.742188 -0.625 1.3125 -1.050781 1 -1.59375 C 0.6875 -2.132812 0.53125 -2.742188 0.53125 -3.421875 C 0.53125 -4.203125 0.691406 -4.867188 1.015625 -5.421875 C 1.347656 -5.984375 1.785156 -6.410156 2.328125 -6.703125 C 2.867188 -7.003906 3.460938 -7.15625 4.109375 -7.15625 C 4.691406 -7.15625 5.222656 -7.007812 5.703125 -6.71875 C 6.179688 -6.4375 6.5625 -6.039062 6.84375 -5.53125 C 7.132812 -5.019531 7.28125 -4.429688 7.28125 -3.765625 L 7.265625 -3.171875 L 1.90625 -3.171875 C 1.988281 -2.535156 2.25 -2.035156 2.6875 -1.671875 C 3.125 -1.304688 3.679688 -1.125 4.359375 -1.125 C 4.847656 -1.125 5.242188 -1.210938 5.546875 -1.390625 C 5.847656 -1.578125 6.097656 -1.753906 6.296875 -1.921875 Z M 4.109375 -5.890625 C 3.578125 -5.890625 3.113281 -5.765625 2.71875 -5.515625 C 2.332031 -5.273438 2.078125 -4.859375 1.953125 -4.265625 L 5.875 -4.265625 L 5.875 -4.359375 C 5.851562 -4.660156 5.753906 -4.925781 5.578125 -5.15625 C 5.398438 -5.382812 5.179688 -5.5625 4.921875 -5.6875 C 4.671875 -5.820312 4.398438 -5.890625 4.109375 -5.890625 Z M 4.109375 -5.890625 "/></g></g></g><g fill="#7ec543" fill-opacity="1"><g transform="translate(182.46956, 34.184147)"><g><path d="M 1.875 -8.515625 C 1.570312 -8.515625 1.34375 -8.59375 1.1875 -8.75 C 1.039062 -8.914062 0.96875 -9.128906 0.96875 -9.390625 C 0.96875 -9.609375 1.039062 -9.804688 1.1875 -9.984375 C 1.34375 -10.160156 1.570312 -10.25 1.875 -10.25 C 2.1875 -10.25 2.414062 -10.164062 2.5625 -10 C 2.71875 -9.84375 2.796875 -9.640625 2.796875 -9.390625 C 2.796875 -9.160156 2.71875 -8.957031 2.5625 -8.78125 C 2.414062 -8.601562 2.1875 -8.515625 1.875 -8.515625 Z M 2.578125 0 L 1.203125 0 L 1.203125 -7 L 2.578125 -7 Z M 2.578125 0 "/></g></g></g><g fill="#7ec543" fill-opacity="1"><g transform="translate(186.175742, 34.184147)"><g><path d="M 7.515625 -9.859375 L 7.515625 0 L 6.140625 0 L 6.140625 -0.984375 C 5.941406 -0.710938 5.640625 -0.457031 5.234375 -0.21875 C 4.835938 0.0195312 4.382812 0.140625 3.875 0.140625 C 3.25 0.140625 2.679688 -0.015625 2.171875 -0.328125 C 1.660156 -0.640625 1.257812 -1.070312 0.96875 -1.625 C 0.675781 -2.175781 0.53125 -2.800781 0.53125 -3.5 C 0.53125 -4.21875 0.675781 -4.847656 0.96875 -5.390625 C 1.257812 -5.929688 1.65625 -6.359375 2.15625 -6.671875 C 2.65625 -6.984375 3.21875 -7.140625 3.84375 -7.140625 C 4.332031 -7.140625 4.78125 -7.035156 5.1875 -6.828125 C 5.59375 -6.628906 5.910156 -6.394531 6.140625 -6.125 L 6.140625 -9.859375 Z M 4.0625 -1.046875 C 4.488281 -1.046875 4.863281 -1.148438 5.1875 -1.359375 C 5.507812 -1.578125 5.757812 -1.875 5.9375 -2.25 C 6.113281 -2.625 6.203125 -3.039062 6.203125 -3.5 C 6.203125 -3.976562 6.113281 -4.398438 5.9375 -4.765625 C 5.757812 -5.128906 5.507812 -5.414062 5.1875 -5.625 C 4.863281 -5.84375 4.488281 -5.953125 4.0625 -5.953125 C 3.644531 -5.953125 3.273438 -5.84375 2.953125 -5.625 C 2.640625 -5.414062 2.390625 -5.128906 2.203125 -4.765625 C 2.023438 -4.398438 1.9375 -3.976562 1.9375 -3.5 C 1.9375 -3.039062 2.023438 -2.625 2.203125 -2.25 C 2.390625 -1.875 2.640625 -1.578125 2.953125 -1.359375 C 3.273438 -1.148438 3.644531 -1.046875 4.0625 -1.046875 Z M 4.0625 -1.046875 "/></g></g></g><g fill="#7ec543" fill-opacity="1"><g transform="translate(194.627981, 34.184147)"><g><path d="M 7.484375 -7 L 7.484375 0 L 6.09375 0 L 6.09375 -1.078125 C 5.875 -0.785156 5.554688 -0.507812 5.140625 -0.25 C 4.722656 0.0078125 4.238281 0.140625 3.6875 0.140625 C 3.101562 0.140625 2.566406 -0.015625 2.078125 -0.328125 C 1.597656 -0.640625 1.210938 -1.070312 0.921875 -1.625 C 0.640625 -2.175781 0.5 -2.804688 0.5 -3.515625 C 0.5 -4.222656 0.644531 -4.847656 0.9375 -5.390625 C 1.238281 -5.941406 1.644531 -6.367188 2.15625 -6.671875 C 2.675781 -6.984375 3.265625 -7.140625 3.921875 -7.140625 C 4.410156 -7.140625 4.835938 -7.03125 5.203125 -6.8125 C 5.566406 -6.601562 5.863281 -6.359375 6.09375 -6.078125 L 6.09375 -7 Z M 4.015625 -1.140625 C 4.441406 -1.140625 4.8125 -1.242188 5.125 -1.453125 C 5.445312 -1.660156 5.695312 -1.941406 5.875 -2.296875 C 6.050781 -2.660156 6.140625 -3.066406 6.140625 -3.515625 C 6.140625 -3.960938 6.050781 -4.363281 5.875 -4.71875 C 5.695312 -5.070312 5.445312 -5.351562 5.125 -5.5625 C 4.8125 -5.769531 4.441406 -5.875 4.015625 -5.875 C 3.609375 -5.875 3.242188 -5.769531 2.921875 -5.5625 C 2.597656 -5.363281 2.347656 -5.085938 2.171875 -4.734375 C 1.992188 -4.378906 1.90625 -3.972656 1.90625 -3.515625 C 1.90625 -3.066406 1.992188 -2.660156 2.171875 -2.296875 C 2.347656 -1.941406 2.597656 -1.660156 2.921875 -1.453125 C 3.242188 -1.242188 3.609375 -1.140625 4.015625 -1.140625 Z M 4.015625 -1.140625 "/></g></g></g><g fill="#ffffff" fill-opacity="1"><g transform="translate(94.886658, 56.176362)"><g><path d="M 4.609375 -7.125 C 5.234375 -7.125 5.789062 -6.96875 6.28125 -6.65625 C 6.78125 -6.351562 7.171875 -5.929688 7.453125 -5.390625 C 7.734375 -4.847656 7.875 -4.21875 7.875 -3.5 C 7.875 -2.800781 7.734375 -2.175781 7.453125 -1.625 C 7.171875 -1.082031 6.785156 -0.65625 6.296875 -0.34375 C 5.804688 -0.03125 5.257812 0.125 4.65625 0.125 C 4.15625 0.125 3.703125 0.0195312 3.296875 -0.1875 C 2.890625 -0.40625 2.570312 -0.65625 2.34375 -0.9375 L 2.34375 2.9375 L 0.953125 2.9375 L 0.953125 -7.015625 L 2.34375 -7.015625 L 2.34375 -5.984375 C 2.550781 -6.273438 2.859375 -6.535156 3.265625 -6.765625 C 3.671875 -7.003906 4.117188 -7.125 4.609375 -7.125 Z M 4.421875 -5.84375 C 4.003906 -5.84375 3.632812 -5.738281 3.3125 -5.53125 C 2.988281 -5.332031 2.734375 -5.054688 2.546875 -4.703125 C 2.367188 -4.359375 2.28125 -3.957031 2.28125 -3.5 C 2.28125 -3.0625 2.367188 -2.660156 2.546875 -2.296875 C 2.734375 -1.941406 2.988281 -1.660156 3.3125 -1.453125 C 3.632812 -1.242188 4.003906 -1.140625 4.421875 -1.140625 C 4.835938 -1.140625 5.207031 -1.242188 5.53125 -1.453125 C 5.851562 -1.660156 6.101562 -1.941406 6.28125 -2.296875 C 6.46875 -2.660156 6.5625 -3.0625 6.5625 -3.5 C 6.5625 -3.957031 6.46875 -4.359375 6.28125 -4.703125 C 6.101562 -5.054688 5.851562 -5.332031 5.53125 -5.53125 C 5.207031 -5.738281 4.835938 -5.84375 4.421875 -5.84375 Z M 4.421875 -5.84375 "/></g></g></g><g fill="#ffffff" fill-opacity="1"><g transform="translate(103.2989, 56.176362)"><g><path d="M 1.875 -8.515625 C 1.570312 -8.515625 1.34375 -8.59375 1.1875 -8.75 C 1.039062 -8.914062 0.96875 -9.128906 0.96875 -9.390625 C 0.96875 -9.609375 1.039062 -9.804688 1.1875 -9.984375 C 1.34375 -10.160156 1.570312 -10.25 1.875 -10.25 C 2.1875 -10.25 2.414062 -10.164062 2.5625 -10 C 2.71875 -9.84375 2.796875 -9.640625 2.796875 -9.390625 C 2.796875 -9.160156 2.71875 -8.957031 2.5625 -8.78125 C 2.414062 -8.601562 2.1875 -8.515625 1.875 -8.515625 Z M 2.578125 0 L 1.203125 0 L 1.203125 -7 L 2.578125 -7 Z M 2.578125 0 "/></g></g></g><g fill="#ffffff" fill-opacity="1"><g transform="translate(107.005085, 56.176362)"><g><path d="M 4.609375 -7.125 C 5.234375 -7.125 5.789062 -6.96875 6.28125 -6.65625 C 6.78125 -6.351562 7.171875 -5.929688 7.453125 -5.390625 C 7.734375 -4.847656 7.875 -4.21875 7.875 -3.5 C 7.875 -2.800781 7.734375 -2.175781 7.453125 -1.625 C 7.171875 -1.082031 6.785156 -0.65625 6.296875 -0.34375 C 5.804688 -0.03125 5.257812 0.125 4.65625 0.125 C 4.15625 0.125 3.703125 0.0195312 3.296875 -0.1875 C 2.890625 -0.40625 2.570312 -0.65625 2.34375 -0.9375 L 2.34375 2.9375 L 0.953125 2.9375 L 0.953125 -7.015625 L 2.34375 -7.015625 L 2.34375 -5.984375 C 2.550781 -6.273438 2.859375 -6.535156 3.265625 -6.765625 C 3.671875 -7.003906 4.117188 -7.125 4.609375 -7.125 Z M 4.421875 -5.84375 C 4.003906 -5.84375 3.632812 -5.738281 3.3125 -5.53125 C 2.988281 -5.332031 2.734375 -5.054688 2.546875 -4.703125 C 2.367188 -4.359375 2.28125 -3.957031 2.28125 -3.5 C 2.28125 -3.0625 2.367188 -2.660156 2.546875 -2.296875 C 2.734375 -1.941406 2.988281 -1.660156 3.3125 -1.453125 C 3.632812 -1.242188 4.003906 -1.140625 4.421875 -1.140625 C 4.835938 -1.140625 5.207031 -1.242188 5.53125 -1.453125 C 5.851562 -1.660156 6.101562 -1.941406 6.28125 -2.296875 C 6.46875 -2.660156 6.5625 -3.0625 6.5625 -3.5 C 6.5625 -3.957031 6.46875 -4.359375 6.28125 -4.703125 C 6.101562 -5.054688 5.851562 -5.332031 5.53125 -5.53125 C 5.207031 -5.738281 4.835938 -5.84375 4.421875 -5.84375 Z M 4.421875 -5.84375 "/></g></g></g><g fill="#ffffff" fill-opacity="1"><g transform="translate(115.417327, 56.176362)"><g><path d="M 1.875 -8.515625 C 1.570312 -8.515625 1.34375 -8.59375 1.1875 -8.75 C 1.039062 -8.914062 0.96875 -9.128906 0.96875 -9.390625 C 0.96875 -9.609375 1.039062 -9.804688 1.1875 -9.984375 C 1.34375 -10.160156 1.570312 -10.25 1.875 -10.25 C 2.1875 -10.25 2.414062 -10.164062 2.5625 -10 C 2.71875 -9.84375 2.796875 -9.640625 2.796875 -9.390625 C 2.796875 -9.160156 2.71875 -8.957031 2.5625 -8.78125 C 2.414062 -8.601562 2.1875 -8.515625 1.875 -8.515625 Z M 2.578125 0 L 1.203125 0 L 1.203125 -7 L 2.578125 -7 Z M 2.578125 0 "/></g></g></g><g fill="#ffffff" fill-opacity="1"><g transform="translate(119.123513, 56.176362)"><g><path d="M 4.609375 -7.125 C 5.234375 -7.125 5.789062 -6.96875 6.28125 -6.65625 C 6.78125 -6.351562 7.171875 -5.929688 7.453125 -5.390625 C 7.734375 -4.847656 7.875 -4.21875 7.875 -3.5 C 7.875 -2.800781 7.734375 -2.175781 7.453125 -1.625 C 7.171875 -1.082031 6.785156 -0.65625 6.296875 -0.34375 C 5.804688 -0.03125 5.257812 0.125 4.65625 0.125 C 4.15625 0.125 3.703125 0.0195312 3.296875 -0.1875 C 2.890625 -0.40625 2.570312 -0.65625 2.34375 -0.9375 L 2.34375 2.9375 L 0.953125 2.9375 L 0.953125 -7.015625 L 2.34375 -7.015625 L 2.34375 -5.984375 C 2.550781 -6.273438 2.859375 -6.535156 3.265625 -6.765625 C 3.671875 -7.003906 4.117188 -7.125 4.609375 -7.125 Z M 4.421875 -5.84375 C 4.003906 -5.84375 3.632812 -5.738281 3.3125 -5.53125 C 2.988281 -5.332031 2.734375 -5.054688 2.546875 -4.703125 C 2.367188 -4.359375 2.28125 -3.957031 2.28125 -3.5 C 2.28125 -3.0625 2.367188 -2.660156 2.546875 -2.296875 C 2.734375 -1.941406 2.988281 -1.660156 3.3125 -1.453125 C 3.632812 -1.242188 4.003906 -1.140625 4.421875 -1.140625 C 4.835938 -1.140625 5.207031 -1.242188 5.53125 -1.453125 C 5.851562 -1.660156 6.101562 -1.941406 6.28125 -2.296875 C 6.46875 -2.660156 6.5625 -3.0625 6.5625 -3.5 C 6.5625 -3.957031 6.46875 -4.359375 6.28125 -4.703125 C 6.101562 -5.054688 5.851562 -5.332031 5.53125 -5.53125 C 5.207031 -5.738281 4.835938 -5.84375 4.421875 -5.84375 Z M 4.421875 -5.84375 "/></g></g></g><g fill="#ffffff" fill-opacity="1"><g transform="translate(127.535755, 56.176362)"><g><path d="M 1.875 -8.515625 C 1.570312 -8.515625 1.34375 -8.59375 1.1875 -8.75 C 1.039062 -8.914062 0.96875 -9.128906 0.96875 -9.390625 C 0.96875 -9.609375 1.039062 -9.804688 1.1875 -9.984375 C 1.34375 -10.160156 1.570312 -10.25 1.875 -10.25 C 2.1875 -10.25 2.414062 -10.164062 2.5625 -10 C 2.71875 -9.84375 2.796875 -9.640625 2.796875 -9.390625 C 2.796875 -9.160156 2.71875 -8.957031 2.5625 -8.78125 C 2.414062 -8.601562 2.1875 -8.515625 1.875 -8.515625 Z M 2.578125 0 L 1.203125 0 L 1.203125 -7 L 2.578125 -7 Z M 2.578125 0 "/></g></g></g><g fill="#ffffff" fill-opacity="1"><g transform="translate(131.24194, 56.176362)"><g/></g></g><g fill="#ffffff" fill-opacity="1"><g transform="translate(134.974789, 56.176362)"><g><path d="M 4.609375 -7.125 C 5.234375 -7.125 5.789062 -6.96875 6.28125 -6.65625 C 6.78125 -6.351562 7.171875 -5.929688 7.453125 -5.390625 C 7.734375 -4.847656 7.875 -4.21875 7.875 -3.5 C 7.875 -2.800781 7.734375 -2.175781 7.453125 -1.625 C 7.171875 -1.082031 6.785156 -0.65625 6.296875 -0.34375 C 5.804688 -0.03125 5.257812 0.125 4.65625 0.125 C 4.15625 0.125 3.703125 0.0195312 3.296875 -0.1875 C 2.890625 -0.40625 2.570312 -0.65625 2.34375 -0.9375 L 2.34375 2.9375 L 0.953125 2.9375 L 0.953125 -7.015625 L 2.34375 -7.015625 L 2.34375 -5.984375 C 2.550781 -6.273438 2.859375 -6.535156 3.265625 -6.765625 C 3.671875 -7.003906 4.117188 -7.125 4.609375 -7.125 Z M 4.421875 -5.84375 C 4.003906 -5.84375 3.632812 -5.738281 3.3125 -5.53125 C 2.988281 -5.332031 2.734375 -5.054688 2.546875 -4.703125 C 2.367188 -4.359375 2.28125 -3.957031 2.28125 -3.5 C 2.28125 -3.0625 2.367188 -2.660156 2.546875 -2.296875 C 2.734375 -1.941406 2.988281 -1.660156 3.3125 -1.453125 C 3.632812 -1.242188 4.003906 -1.140625 4.421875 -1.140625 C 4.835938 -1.140625 5.207031 -1.242188 5.53125 -1.453125 C 5.851562 -1.660156 6.101562 -1.941406 6.28125 -2.296875 C 6.46875 -2.660156 6.5625 -3.0625 6.5625 -3.5 C 6.5625 -3.957031 6.46875 -4.359375 6.28125 -4.703125 C 6.101562 -5.054688 5.851562 -5.332031 5.53125 -5.53125 C 5.207031 -5.738281 4.835938 -5.84375 4.421875 -5.84375 Z M 4.421875 -5.84375 "/></g></g></g><g fill="#ffffff" fill-opacity="1"><g transform="translate(143.387031, 56.176362)"><g><path d="M 7.65625 -3.5 C 7.65625 -2.789062 7.5 -2.160156 7.1875 -1.609375 C 6.875 -1.066406 6.445312 -0.640625 5.90625 -0.328125 C 5.375 -0.015625 4.773438 0.140625 4.109375 0.140625 C 3.441406 0.140625 2.835938 -0.015625 2.296875 -0.328125 C 1.753906 -0.640625 1.320312 -1.066406 1 -1.609375 C 0.6875 -2.160156 0.53125 -2.789062 0.53125 -3.5 C 0.53125 -4.21875 0.6875 -4.847656 1 -5.390625 C 1.320312 -5.929688 1.753906 -6.359375 2.296875 -6.671875 C 2.835938 -6.984375 3.441406 -7.140625 4.109375 -7.140625 C 4.773438 -7.140625 5.375 -6.984375 5.90625 -6.671875 C 6.445312 -6.359375 6.875 -5.929688 7.1875 -5.390625 C 7.5 -4.847656 7.65625 -4.21875 7.65625 -3.5 Z M 6.265625 -3.5 C 6.273438 -3.976562 6.179688 -4.394531 5.984375 -4.75 C 5.796875 -5.113281 5.535156 -5.394531 5.203125 -5.59375 C 4.878906 -5.789062 4.515625 -5.890625 4.109375 -5.890625 C 3.691406 -5.890625 3.316406 -5.789062 2.984375 -5.59375 C 2.660156 -5.394531 2.398438 -5.113281 2.203125 -4.75 C 2.015625 -4.394531 1.925781 -3.976562 1.9375 -3.5 C 1.925781 -3.039062 2.015625 -2.628906 2.203125 -2.265625 C 2.398438 -1.910156 2.660156 -1.628906 2.984375 -1.421875 C 3.316406 -1.222656 3.691406 -1.125 4.109375 -1.125 C 4.515625 -1.125 4.878906 -1.222656 5.203125 -1.421875 C 5.535156 -1.628906 5.796875 -1.910156 5.984375 -2.265625 C 6.179688 -2.628906 6.273438 -3.039062 6.265625 -3.5 Z M 6.265625 -3.5 "/></g></g></g><g fill="#ffffff" fill-opacity="1"><g transform="translate(151.585967, 56.176362)"><g><path d="M 4.609375 -7.125 C 5.234375 -7.125 5.789062 -6.96875 6.28125 -6.65625 C 6.78125 -6.351562 7.171875 -5.929688 7.453125 -5.390625 C 7.734375 -4.847656 7.875 -4.21875 7.875 -3.5 C 7.875 -2.800781 7.734375 -2.175781 7.453125 -1.625 C 7.171875 -1.082031 6.785156 -0.65625 6.296875 -0.34375 C 5.804688 -0.03125 5.257812 0.125 4.65625 0.125 C 4.15625 0.125 3.703125 0.0195312 3.296875 -0.1875 C 2.890625 -0.40625 2.570312 -0.65625 2.34375 -0.9375 L 2.34375 2.9375 L 0.953125 2.9375 L 0.953125 -7.015625 L 2.34375 -7.015625 L 2.34375 -5.984375 C 2.550781 -6.273438 2.859375 -6.535156 3.265625 -6.765625 C 3.671875 -7.003906 4.117188 -7.125 4.609375 -7.125 Z M 4.421875 -5.84375 C 4.003906 -5.84375 3.632812 -5.738281 3.3125 -5.53125 C 2.988281 -5.332031 2.734375 -5.054688 2.546875 -4.703125 C 2.367188 -4.359375 2.28125 -3.957031 2.28125 -3.5 C 2.28125 -3.0625 2.367188 -2.660156 2.546875 -2.296875 C 2.734375 -1.941406 2.988281 -1.660156 3.3125 -1.453125 C 3.632812 -1.242188 4.003906 -1.140625 4.421875 -1.140625 C 4.835938 -1.140625 5.207031 -1.242188 5.53125 -1.453125 C 5.851562 -1.660156 6.101562 -1.941406 6.28125 -2.296875 C 6.46875 -2.660156 6.5625 -3.0625 6.5625 -3.5 C 6.5625 -3.957031 6.46875 -4.359375 6.28125 -4.703125 C 6.101562 -5.054688 5.851562 -5.332031 5.53125 -5.53125 C 5.207031 -5.738281 4.835938 -5.84375 4.421875 -5.84375 Z M 4.421875 -5.84375 "/></g></g></g><g fill="#ffffff" fill-opacity="1"><g transform="translate(159.998209, 56.176362)"><g><path d="M 7.65625 -3.5 C 7.65625 -2.789062 7.5 -2.160156 7.1875 -1.609375 C 6.875 -1.066406 6.445312 -0.640625 5.90625 -0.328125 C 5.375 -0.015625 4.773438 0.140625 4.109375 0.140625 C 3.441406 0.140625 2.835938 -0.015625 2.296875 -0.328125 C 1.753906 -0.640625 1.320312 -1.066406 1 -1.609375 C 0.6875 -2.160156 0.53125 -2.789062 0.53125 -3.5 C 0.53125 -4.21875 0.6875 -4.847656 1 -5.390625 C 1.320312 -5.929688 1.753906 -6.359375 2.296875 -6.671875 C 2.835938 -6.984375 3.441406 -7.140625 4.109375 -7.140625 C 4.773438 -7.140625 5.375 -6.984375 5.90625 -6.671875 C 6.445312 -6.359375 6.875 -5.929688 7.1875 -5.390625 C 7.5 -4.847656 7.65625 -4.21875 7.65625 -3.5 Z M 6.265625 -3.5 C 6.273438 -3.976562 6.179688 -4.394531 5.984375 -4.75 C 5.796875 -5.113281 5.535156 -5.394531 5.203125 -5.59375 C 4.878906 -5.789062 4.515625 -5.890625 4.109375 -5.890625 C 3.691406 -5.890625 3.316406 -5.789062 2.984375 -5.59375 C 2.660156 -5.394531 2.398438 -5.113281 2.203125 -4.75 C 2.015625 -4.394531 1.925781 -3.976562 1.9375 -3.5 C 1.925781 -3.039062 2.015625 -2.628906 2.203125 -2.265625 C 2.398438 -1.910156 2.660156 -1.628906 2.984375 -1.421875 C 3.316406 -1.222656 3.691406 -1.125 4.109375 -1.125 C 4.515625 -1.125 4.878906 -1.222656 5.203125 -1.421875 C 5.535156 -1.628906 5.796875 -1.910156 5.984375 -2.265625 C 6.179688 -2.628906 6.273438 -3.039062 6.265625 -3.5 Z M 6.265625 -3.5 "/></g></g></g><g fill="#ffffff" fill-opacity="1"><g transform="translate(168.197142, 56.176362)"><g><path d="M 4.609375 -7.125 C 5.234375 -7.125 5.789062 -6.96875 6.28125 -6.65625 C 6.78125 -6.351562 7.171875 -5.929688 7.453125 -5.390625 C 7.734375 -4.847656 7.875 -4.21875 7.875 -3.5 C 7.875 -2.800781 7.734375 -2.175781 7.453125 -1.625 C 7.171875 -1.082031 6.785156 -0.65625 6.296875 -0.34375 C 5.804688 -0.03125 5.257812 0.125 4.65625 0.125 C 4.15625 0.125 3.703125 0.0195312 3.296875 -0.1875 C 2.890625 -0.40625 2.570312 -0.65625 2.34375 -0.9375 L 2.34375 2.9375 L 0.953125 2.9375 L 0.953125 -7.015625 L 2.34375 -7.015625 L 2.34375 -5.984375 C 2.550781 -6.273438 2.859375 -6.535156 3.265625 -6.765625 C 3.671875 -7.003906 4.117188 -7.125 4.609375 -7.125 Z M 4.421875 -5.84375 C 4.003906 -5.84375 3.632812 -5.738281 3.3125 -5.53125 C 2.988281 -5.332031 2.734375 -5.054688 2.546875 -4.703125 C 2.367188 -4.359375 2.28125 -3.957031 2.28125 -3.5 C 2.28125 -3.0625 2.367188 -2.660156 2.546875 -2.296875 C 2.734375 -1.941406 2.988281 -1.660156 3.3125 -1.453125 C 3.632812 -1.242188 4.003906 -1.140625 4.421875 -1.140625 C 4.835938 -1.140625 5.207031 -1.242188 5.53125 -1.453125 C 5.851562 -1.660156 6.101562 -1.941406 6.28125 -2.296875 C 6.46875 -2.660156 6.5625 -3.0625 6.5625 -3.5 C 6.5625 -3.957031 6.46875 -4.359375 6.28125 -4.703125 C 6.101562 -5.054688 5.851562 -5.332031 5.53125 -5.53125 C 5.207031 -5.738281 4.835938 -5.84375 4.421875 -5.84375 Z M 4.421875 -5.84375 "/></g></g></g><g fill="#ffffff" fill-opacity="1"><g transform="translate(176.609384, 56.176362)"><g><path d="M 7.65625 -3.5 C 7.65625 -2.789062 7.5 -2.160156 7.1875 -1.609375 C 6.875 -1.066406 6.445312 -0.640625 5.90625 -0.328125 C 5.375 -0.015625 4.773438 0.140625 4.109375 0.140625 C 3.441406 0.140625 2.835938 -0.015625 2.296875 -0.328125 C 1.753906 -0.640625 1.320312 -1.066406 1 -1.609375 C 0.6875 -2.160156 0.53125 -2.789062 0.53125 -3.5 C 0.53125 -4.21875 0.6875 -4.847656 1 -5.390625 C 1.320312 -5.929688 1.753906 -6.359375 2.296875 -6.671875 C 2.835938 -6.984375 3.441406 -7.140625 4.109375 -7.140625 C 4.773438 -7.140625 5.375 -6.984375 5.90625 -6.671875 C 6.445312 -6.359375 6.875 -5.929688 7.1875 -5.390625 C 7.5 -4.847656 7.65625 -4.21875 7.65625 -3.5 Z M 6.265625 -3.5 C 6.273438 -3.976562 6.179688 -4.394531 5.984375 -4.75 C 5.796875 -5.113281 5.535156 -5.394531 5.203125 -5.59375 C 4.878906 -5.789062 4.515625 -5.890625 4.109375 -5.890625 C 3.691406 -5.890625 3.316406 -5.789062 2.984375 -5.59375 C 2.660156 -5.394531 2.398438 -5.113281 2.203125 -4.75 C 2.015625 -4.394531 1.925781 -3.976562 1.9375 -3.5 C 1.925781 -3.039062 2.015625 -2.628906 2.203125 -2.265625 C 2.398438 -1.910156 2.660156 -1.628906 2.984375 -1.421875 C 3.316406 -1.222656 3.691406 -1.125 4.109375 -1.125 C 4.515625 -1.125 4.878906 -1.222656 5.203125 -1.421875 C 5.535156 -1.628906 5.796875 -1.910156 5.984375 -2.265625 C 6.179688 -2.628906 6.273438 -3.039062 6.265625 -3.5 Z M 6.265625 -3.5 "/></g></g></g><g fill="#ffffff" fill-opacity="1"><g transform="translate(184.808317, 56.176362)"><g/></g></g><g fill="#ffffff" fill-opacity="1"><g transform="translate(188.541166, 56.176362)"><g><path d="M 4.609375 -7.125 C 5.234375 -7.125 5.789062 -6.96875 6.28125 -6.65625 C 6.78125 -6.351562 7.171875 -5.929688 7.453125 -5.390625 C 7.734375 -4.847656 7.875 -4.21875 7.875 -3.5 C 7.875 -2.800781 7.734375 -2.175781 7.453125 -1.625 C 7.171875 -1.082031 6.785156 -0.65625 6.296875 -0.34375 C 5.804688 -0.03125 5.257812 0.125 4.65625 0.125 C 4.15625 0.125 3.703125 0.0195312 3.296875 -0.1875 C 2.890625 -0.40625 2.570312 -0.65625 2.34375 -0.9375 L 2.34375 2.9375 L 0.953125 2.9375 L 0.953125 -7.015625 L 2.34375 -7.015625 L 2.34375 -5.984375 C 2.550781 -6.273438 2.859375 -6.535156 3.265625 -6.765625 C 3.671875 -7.003906 4.117188 -7.125 4.609375 -7.125 Z M 4.421875 -5.84375 C 4.003906 -5.84375 3.632812 -5.738281 3.3125 -5.53125 C 2.988281 -5.332031 2.734375 -5.054688 2.546875 -4.703125 C 2.367188 -4.359375 2.28125 -3.957031 2.28125 -3.5 C 2.28125 -3.0625 2.367188 -2.660156 2.546875 -2.296875 C 2.734375 -1.941406 2.988281 -1.660156 3.3125 -1.453125 C 3.632812 -1.242188 4.003906 -1.140625 4.421875 -1.140625 C 4.835938 -1.140625 5.207031 -1.242188 5.53125 -1.453125 C 5.851562 -1.660156 6.101562 -1.941406 6.28125 -2.296875 C 6.46875 -2.660156 6.5625 -3.0625 6.5625 -3.5 C 6.5625 -3.957031 6.46875 -4.359375 6.28125 -4.703125 C 6.101562 -5.054688 5.851562 -5.332031 5.53125 -5.53125 C 5.207031 -5.738281 4.835938 -5.84375 4.421875 -5.84375 Z M 4.421875 -5.84375 "/></g></g></g><g fill="#ffffff" fill-opacity="1"><g transform="translate(196.953408, 56.176362)"><g><path d="M 1.875 -8.515625 C 1.570312 -8.515625 1.34375 -8.59375 1.1875 -8.75 C 1.039062 -8.914062 0.96875 -9.128906 0.96875 -9.390625 C 0.96875 -9.609375 1.039062 -9.804688 1.1875 -9.984375 C 1.34375 -10.160156 1.570312 -10.25 1.875 -10.25 C 2.1875 -10.25 2.414062 -10.164062 2.5625 -10 C 2.71875 -9.84375 2.796875 -9.640625 2.796875 -9.390625 C 2.796875 -9.160156 2.71875 -8.957031 2.5625 -8.78125 C 2.414062 -8.601562 2.1875 -8.515625 1.875 -8.515625 Z M 2.578125 0 L 1.203125 0 L 1.203125 -7 L 2.578125 -7 Z M 2.578125 0 "/></g></g></g><g fill="#ffffff" fill-opacity="1"><g transform="translate(200.65959, 56.176362)"><g><path d="M 4.609375 -7.125 C 5.234375 -7.125 5.789062 -6.96875 6.28125 -6.65625 C 6.78125 -6.351562 7.171875 -5.929688 7.453125 -5.390625 C 7.734375 -4.847656 7.875 -4.21875 7.875 -3.5 C 7.875 -2.800781 7.734375 -2.175781 7.453125 -1.625 C 7.171875 -1.082031 6.785156 -0.65625 6.296875 -0.34375 C 5.804688 -0.03125 5.257812 0.125 4.65625 0.125 C 4.15625 0.125 3.703125 0.0195312 3.296875 -0.1875 C 2.890625 -0.40625 2.570312 -0.65625 2.34375 -0.9375 L 2.34375 2.9375 L 0.953125 2.9375 L 0.953125 -7.015625 L 2.34375 -7.015625 L 2.34375 -5.984375 C 2.550781 -6.273438 2.859375 -6.535156 3.265625 -6.765625 C 3.671875 -7.003906 4.117188 -7.125 4.609375 -7.125 Z M 4.421875 -5.84375 C 4.003906 -5.84375 3.632812 -5.738281 3.3125 -5.53125 C 2.988281 -5.332031 2.734375 -5.054688 2.546875 -4.703125 C 2.367188 -4.359375 2.28125 -3.957031 2.28125 -3.5 C 2.28125 -3.0625 2.367188 -2.660156 2.546875 -2.296875 C 2.734375 -1.941406 2.988281 -1.660156 3.3125 -1.453125 C 3.632812 -1.242188 4.003906 -1.140625 4.421875 -1.140625 C 4.835938 -1.140625 5.207031 -1.242188 5.53125 -1.453125 C 5.851562 -1.660156 6.101562 -1.941406 6.28125 -2.296875 C 6.46875 -2.660156 6.5625 -3.0625 6.5625 -3.5 C 6.5625 -3.957031 6.46875 -4.359375 6.28125 -4.703125 C 6.101562 -5.054688 5.851562 -5.332031 5.53125 -5.53125 C 5.207031 -5.738281 4.835938 -5.84375 4.421875 -5.84375 Z M 4.421875 -5.84375 "/></g></g></g><g fill="#ffffff" fill-opacity="1"><g transform="translate(209.071826, 56.176362)"><g><path d="M 1.875 -8.515625 C 1.570312 -8.515625 1.34375 -8.59375 1.1875 -8.75 C 1.039062 -8.914062 0.96875 -9.128906 0.96875 -9.390625 C 0.96875 -9.609375 1.039062 -9.804688 1.1875 -9.984375 C 1.34375 -10.160156 1.570312 -10.25 1.875 -10.25 C 2.1875 -10.25 2.414062 -10.164062 2.5625 -10 C 2.71875 -9.84375 2.796875 -9.640625 2.796875 -9.390625 C 2.796875 -9.160156 2.71875 -8.957031 2.5625 -8.78125 C 2.414062 -8.601562 2.1875 -8.515625 1.875 -8.515625 Z M 2.578125 0 L 1.203125 0 L 1.203125 -7 L 2.578125 -7 Z M 2.578125 0 "/></g></g></g><g fill="#ffffff" fill-opacity="1"><g transform="translate(212.778009, 56.176362)"><g><path d="M 4.609375 -7.125 C 5.234375 -7.125 5.789062 -6.96875 6.28125 -6.65625 C 6.78125 -6.351562 7.171875 -5.929688 7.453125 -5.390625 C 7.734375 -4.847656 7.875 -4.21875 7.875 -3.5 C 7.875 -2.800781 7.734375 -2.175781 7.453125 -1.625 C 7.171875 -1.082031 6.785156 -0.65625 6.296875 -0.34375 C 5.804688 -0.03125 5.257812 0.125 4.65625 0.125 C 4.15625 0.125 3.703125 0.0195312 3.296875 -0.1875 C 2.890625 -0.40625 2.570312 -0.65625 2.34375 -0.9375 L 2.34375 2.9375 L 0.953125 2.9375 L 0.953125 -7.015625 L 2.34375 -7.015625 L 2.34375 -5.984375 C 2.550781 -6.273438 2.859375 -6.535156 3.265625 -6.765625 C 3.671875 -7.003906 4.117188 -7.125 4.609375 -7.125 Z M 4.421875 -5.84375 C 4.003906 -5.84375 3.632812 -5.738281 3.3125 -5.53125 C 2.988281 -5.332031 2.734375 -5.054688 2.546875 -4.703125 C 2.367188 -4.359375 2.28125 -3.957031 2.28125 -3.5 C 2.28125 -3.0625 2.367188 -2.660156 2.546875 -2.296875 C 2.734375 -1.941406 2.988281 -1.660156 3.3125 -1.453125 C 3.632812 -1.242188 4.003906 -1.140625 4.421875 -1.140625 C 4.835938 -1.140625 5.207031 -1.242188 5.53125 -1.453125 C 5.851562 -1.660156 6.101562 -1.941406 6.28125 -2.296875 C 6.46875 -2.660156 6.5625 -3.0625 6.5625 -3.5 C 6.5625 -3.957031 6.46875 -4.359375 6.28125 -4.703125 C 6.101562 -5.054688 5.851562 -5.332031 5.53125 -5.53125 C 5.207031 -5.738281 4.835938 -5.84375 4.421875 -5.84375 Z M 4.421875 -5.84375 "/></g></g></g><g fill="#ffffff" fill-opacity="1"><g transform="translate(221.190245, 56.176362)"><g><path d="M 1.875 -8.515625 C 1.570312 -8.515625 1.34375 -8.59375 1.1875 -8.75 C 1.039062 -8.914062 0.96875 -9.128906 0.96875 -9.390625 C 0.96875 -9.609375 1.039062 -9.804688 1.1875 -9.984375 C 1.34375 -10.160156 1.570312 -10.25 1.875 -10.25 C 2.1875 -10.25 2.414062 -10.164062 2.5625 -10 C 2.71875 -9.84375 2.796875 -9.640625 2.796875 -9.390625 C 2.796875 -9.160156 2.71875 -8.957031 2.5625 -8.78125 C 2.414062 -8.601562 2.1875 -8.515625 1.875 -8.515625 Z M 2.578125 0 L 1.203125 0 L 1.203125 -7 L 2.578125 -7 Z M 2.578125 0 "/></g></g></g><g fill="#ffffff" fill-opacity="1"><g transform="translate(224.896428, 56.176362)"><g/></g></g><g fill="#ffffff" fill-opacity="1"><g transform="translate(228.629271, 56.176362)"><g><path d="M 4.609375 -7.125 C 5.234375 -7.125 5.789062 -6.96875 6.28125 -6.65625 C 6.78125 -6.351562 7.171875 -5.929688 7.453125 -5.390625 C 7.734375 -4.847656 7.875 -4.21875 7.875 -3.5 C 7.875 -2.800781 7.734375 -2.175781 7.453125 -1.625 C 7.171875 -1.082031 6.785156 -0.65625 6.296875 -0.34375 C 5.804688 -0.03125 5.257812 0.125 4.65625 0.125 C 4.15625 0.125 3.703125 0.0195312 3.296875 -0.1875 C 2.890625 -0.40625 2.570312 -0.65625 2.34375 -0.9375 L 2.34375 2.9375 L 0.953125 2.9375 L 0.953125 -7.015625 L 2.34375 -7.015625 L 2.34375 -5.984375 C 2.550781 -6.273438 2.859375 -6.535156 3.265625 -6.765625 C 3.671875 -7.003906 4.117188 -7.125 4.609375 -7.125 Z M 4.421875 -5.84375 C 4.003906 -5.84375 3.632812 -5.738281 3.3125 -5.53125 C 2.988281 -5.332031 2.734375 -5.054688 2.546875 -4.703125 C 2.367188 -4.359375 2.28125 -3.957031 2.28125 -3.5 C 2.28125 -3.0625 2.367188 -2.660156 2.546875 -2.296875 C 2.734375 -1.941406 2.988281 -1.660156 3.3125 -1.453125 C 3.632812 -1.242188 4.003906 -1.140625 4.421875 -1.140625 C 4.835938 -1.140625 5.207031 -1.242188 5.53125 -1.453125 C 5.851562 -1.660156 6.101562 -1.941406 6.28125 -2.296875 C 6.46875 -2.660156 6.5625 -3.0625 6.5625 -3.5 C 6.5625 -3.957031 6.46875 -4.359375 6.28125 -4.703125 C 6.101562 -5.054688 5.851562 -5.332031 5.53125 -5.53125 C 5.207031 -5.738281 4.835938 -5.84375 4.421875 -5.84375 Z M 4.421875 -5.84375 "/></g></g></g><g fill="#ffffff" fill-opacity="1"><g transform="translate(237.041519, 56.176362)"><g><path d="M 7.65625 -3.5 C 7.65625 -2.789062 7.5 -2.160156 7.1875 -1.609375 C 6.875 -1.066406 6.445312 -0.640625 5.90625 -0.328125 C 5.375 -0.015625 4.773438 0.140625 4.109375 0.140625 C 3.441406 0.140625 2.835938 -0.015625 2.296875 -0.328125 C 1.753906 -0.640625 1.320312 -1.066406 1 -1.609375 C 0.6875 -2.160156 0.53125 -2.789062 0.53125 -3.5 C 0.53125 -4.21875 0.6875 -4.847656 1 -5.390625 C 1.320312 -5.929688 1.753906 -6.359375 2.296875 -6.671875 C 2.835938 -6.984375 3.441406 -7.140625 4.109375 -7.140625 C 4.773438 -7.140625 5.375 -6.984375 5.90625 -6.671875 C 6.445312 -6.359375 6.875 -5.929688 7.1875 -5.390625 C 7.5 -4.847656 7.65625 -4.21875 7.65625 -3.5 Z M 6.265625 -3.5 C 6.273438 -3.976562 6.179688 -4.394531 5.984375 -4.75 C 5.796875 -5.113281 5.535156 -5.394531 5.203125 -5.59375 C 4.878906 -5.789062 4.515625 -5.890625 4.109375 -5.890625 C 3.691406 -5.890625 3.316406 -5.789062 2.984375 -5.59375 C 2.660156 -5.394531 2.398438 -5.113281 2.203125 -4.75 C 2.015625 -4.394531 1.925781 -3.976562 1.9375 -3.5 C 1.925781 -3.039062 2.015625 -2.628906 2.203125 -2.265625 C 2.398438 -1.910156 2.660156 -1.628906 2.984375 -1.421875 C 3.316406 -1.222656 3.691406 -1.125 4.109375 -1.125 C 4.515625 -1.125 4.878906 -1.222656 5.203125 -1.421875 C 5.535156 -1.628906 5.796875 -1.910156 5.984375 -2.265625 C 6.179688 -2.628906 6.273438 -3.039062 6.265625 -3.5 Z M 6.265625 -3.5 "/></g></g></g><g fill="#ffffff" fill-opacity="1"><g transform="translate(245.240457, 56.176362)"><g><path d="M 4.609375 -7.125 C 5.234375 -7.125 5.789062 -6.96875 6.28125 -6.65625 C 6.78125 -6.351562 7.171875 -5.929688 7.453125 -5.390625 C 7.734375 -4.847656 7.875 -4.21875 7.875 -3.5 C 7.875 -2.800781 7.734375 -2.175781 7.453125 -1.625 C 7.171875 -1.082031 6.785156 -0.65625 6.296875 -0.34375 C 5.804688 -0.03125 5.257812 0.125 4.65625 0.125 C 4.15625 0.125 3.703125 0.0195312 3.296875 -0.1875 C 2.890625 -0.40625 2.570312 -0.65625 2.34375 -0.9375 L 2.34375 2.9375 L 0.953125 2.9375 L 0.953125 -7.015625 L 2.34375 -7.015625 L 2.34375 -5.984375 C 2.550781 -6.273438 2.859375 -6.535156 3.265625 -6.765625 C 3.671875 -7.003906 4.117188 -7.125 4.609375 -7.125 Z M 4.421875 -5.84375 C 4.003906 -5.84375 3.632812 -5.738281 3.3125 -5.53125 C 2.988281 -5.332031 2.734375 -5.054688 2.546875 -4.703125 C 2.367188 -4.359375 2.28125 -3.957031 2.28125 -3.5 C 2.28125 -3.0625 2.367188 -2.660156 2.546875 -2.296875 C 2.734375 -1.941406 2.988281 -1.660156 3.3125 -1.453125 C 3.632812 -1.242188 4.003906 -1.140625 4.421875 -1.140625 C 4.835938 -1.140625 5.207031 -1.242188 5.53125 -1.453125 C 5.851562 -1.660156 6.101562 -1.941406 6.28125 -2.296875 C 6.46875 -2.660156 6.5625 -3.0625 6.5625 -3.5 C 6.5625 -3.957031 6.46875 -4.359375 6.28125 -4.703125 C 6.101562 -5.054688 5.851562 -5.332031 5.53125 -5.53125 C 5.207031 -5.738281 4.835938 -5.84375 4.421875 -5.84375 Z M 4.421875 -5.84375 "/></g></g></g><g fill="#ffffff" fill-opacity="1"><g transform="translate(253.652706, 56.176362)"><g><path d="M 7.65625 -3.5 C 7.65625 -2.789062 7.5 -2.160156 7.1875 -1.609375 C 6.875 -1.066406 6.445312 -0.640625 5.90625 -0.328125 C 5.375 -0.015625 4.773438 0.140625 4.109375 0.140625 C 3.441406 0.140625 2.835938 -0.015625 2.296875 -0.328125 C 1.753906 -0.640625 1.320312 -1.066406 1 -1.609375 C 0.6875 -2.160156 0.53125 -2.789062 0.53125 -3.5 C 0.53125 -4.21875 0.6875 -4.847656 1 -5.390625 C 1.320312 -5.929688 1.753906 -6.359375 2.296875 -6.671875 C 2.835938 -6.984375 3.441406 -7.140625 4.109375 -7.140625 C 4.773438 -7.140625 5.375 -6.984375 5.90625 -6.671875 C 6.445312 -6.359375 6.875 -5.929688 7.1875 -5.390625 C 7.5 -4.847656 7.65625 -4.21875 7.65625 -3.5 Z M 6.265625 -3.5 C 6.273438 -3.976562 6.179688 -4.394531 5.984375 -4.75 C 5.796875 -5.113281 5.535156 -5.394531 5.203125 -5.59375 C 4.878906 -5.789062 4.515625 -5.890625 4.109375 -5.890625 C 3.691406 -5.890625 3.316406 -5.789062 2.984375 -5.59375 C 2.660156 -5.394531 2.398438 -5.113281 2.203125 -4.75 C 2.015625 -4.394531 1.925781 -3.976562 1.9375 -3.5 C 1.925781 -3.039062 2.015625 -2.628906 2.203125 -2.265625 C 2.398438 -1.910156 2.660156 -1.628906 2.984375 -1.421875 C 3.316406 -1.222656 3.691406 -1.125 4.109375 -1.125 C 4.515625 -1.125 4.878906 -1.222656 5.203125 -1.421875 C 5.535156 -1.628906 5.796875 -1.910156 5.984375 -2.265625 C 6.179688 -2.628906 6.273438 -3.039062 6.265625 -3.5 Z M 6.265625 -3.5 "/></g></g></g><g fill="#ffffff" fill-opacity="1"><g transform="translate(261.851644, 56.176362)"><g><path d="M 4.609375 -7.125 C 5.234375 -7.125 5.789062 -6.96875 6.28125 -6.65625 C 6.78125 -6.351562 7.171875 -5.929688 7.453125 -5.390625 C 7.734375 -4.847656 7.875 -4.21875 7.875 -3.5 C 7.875 -2.800781 7.734375 -2.175781 7.453125 -1.625 C 7.171875 -1.082031 6.785156 -0.65625 6.296875 -0.34375 C 5.804688 -0.03125 5.257812 0.125 4.65625 0.125 C 4.15625 0.125 3.703125 0.0195312 3.296875 -0.1875 C 2.890625 -0.40625 2.570312 -0.65625 2.34375 -0.9375 L 2.34375 2.9375 L 0.953125 2.9375 L 0.953125 -7.015625 L 2.34375 -7.015625 L 2.34375 -5.984375 C 2.550781 -6.273438 2.859375 -6.535156 3.265625 -6.765625 C 3.671875 -7.003906 4.117188 -7.125 4.609375 -7.125 Z M 4.421875 -5.84375 C 4.003906 -5.84375 3.632812 -5.738281 3.3125 -5.53125 C 2.988281 -5.332031 2.734375 -5.054688 2.546875 -4.703125 C 2.367188 -4.359375 2.28125 -3.957031 2.28125 -3.5 C 2.28125 -3.0625 2.367188 -2.660156 2.546875 -2.296875 C 2.734375 -1.941406 2.988281 -1.660156 3.3125 -1.453125 C 3.632812 -1.242188 4.003906 -1.140625 4.421875 -1.140625 C 4.835938 -1.140625 5.207031 -1.242188 5.53125 -1.453125 C 5.851562 -1.660156 6.101562 -1.941406 6.28125 -2.296875 C 6.46875 -2.660156 6.5625 -3.0625 6.5625 -3.5 C 6.5625 -3.957031 6.46875 -4.359375 6.28125 -4.703125 C 6.101562 -5.054688 5.851562 -5.332031 5.53125 -5.53125 C 5.207031 -5.738281 4.835938 -5.84375 4.421875 -5.84375 Z M 4.421875 -5.84375 "/></g></g></g><g fill="#ffffff" fill-opacity="1"><g transform="translate(270.263892, 56.176362)"><g><path d="M 7.65625 -3.5 C 7.65625 -2.789062 7.5 -2.160156 7.1875 -1.609375 C 6.875 -1.066406 6.445312 -0.640625 5.90625 -0.328125 C 5.375 -0.015625 4.773438 0.140625 4.109375 0.140625 C 3.441406 0.140625 2.835938 -0.015625 2.296875 -0.328125 C 1.753906 -0.640625 1.320312 -1.066406 1 -1.609375 C 0.6875 -2.160156 0.53125 -2.789062 0.53125 -3.5 C 0.53125 -4.21875 0.6875 -4.847656 1 -5.390625 C 1.320312 -5.929688 1.753906 -6.359375 2.296875 -6.671875 C 2.835938 -6.984375 3.441406 -7.140625 4.109375 -7.140625 C 4.773438 -7.140625 5.375 -6.984375 5.90625 -6.671875 C 6.445312 -6.359375 6.875 -5.929688 7.1875 -5.390625 C 7.5 -4.847656 7.65625 -4.21875 7.65625 -3.5 Z M 6.265625 -3.5 C 6.273438 -3.976562 6.179688 -4.394531 5.984375 -4.75 C 5.796875 -5.113281 5.535156 -5.394531 5.203125 -5.59375 C 4.878906 -5.789062 4.515625 -5.890625 4.109375 -5.890625 C 3.691406 -5.890625 3.316406 -5.789062 2.984375 -5.59375 C 2.660156 -5.394531 2.398438 -5.113281 2.203125 -4.75 C 2.015625 -4.394531 1.925781 -3.976562 1.9375 -3.5 C 1.925781 -3.039062 2.015625 -2.628906 2.203125 -2.265625 C 2.398438 -1.910156 2.660156 -1.628906 2.984375 -1.421875 C 3.316406 -1.222656 3.691406 -1.125 4.109375 -1.125 C 4.515625 -1.125 4.878906 -1.222656 5.203125 -1.421875 C 5.535156 -1.628906 5.796875 -1.910156 5.984375 -2.265625 C 6.179688 -2.628906 6.273438 -3.039062 6.265625 -3.5 Z M 6.265625 -3.5 "/></g></g></g><g clip-path="url(#603fb9e3fd)"><g clip-path="url(#e9973f1e34)"><path fill="#8f4399" d="M 88.882812 40.574219 C 88.882812 41.199219 88.851562 41.824219 88.789062 42.445312 C 88.730469 43.070312 88.636719 43.6875 88.515625 44.300781 C 88.394531 44.914062 88.242188 45.519531 88.058594 46.121094 C 87.878906 46.71875 87.667969 47.308594 87.429688 47.886719 C 87.1875 48.460938 86.921875 49.027344 86.625 49.578125 C 86.332031 50.132812 86.011719 50.667969 85.664062 51.1875 C 85.316406 51.707031 84.941406 52.210938 84.546875 52.695312 C 84.148438 53.175781 83.730469 53.640625 83.285156 54.082031 C 82.84375 54.523438 82.382812 54.945312 81.898438 55.339844 C 81.414062 55.738281 80.914062 56.109375 80.390625 56.457031 C 79.871094 56.804688 79.335938 57.128906 78.785156 57.421875 C 78.230469 57.71875 77.667969 57.984375 77.089844 58.222656 C 76.511719 58.464844 75.921875 58.671875 75.324219 58.855469 C 74.726562 59.035156 74.117188 59.1875 73.503906 59.3125 C 72.890625 59.433594 72.273438 59.523438 71.652344 59.585938 C 71.027344 59.648438 70.402344 59.679688 69.777344 59.679688 C 69.152344 59.679688 68.527344 59.648438 67.90625 59.585938 C 67.285156 59.523438 66.664062 59.433594 66.050781 59.3125 C 65.4375 59.1875 64.832031 59.035156 64.234375 58.855469 C 63.632812 58.671875 63.046875 58.464844 62.46875 58.222656 C 61.890625 57.984375 61.324219 57.71875 60.773438 57.421875 C 60.222656 57.128906 59.683594 56.804688 59.164062 56.457031 C 58.644531 56.109375 58.144531 55.738281 57.660156 55.339844 C 57.175781 54.945312 56.710938 54.523438 56.269531 54.082031 C 55.828125 53.640625 55.40625 53.175781 55.011719 52.695312 C 54.613281 52.210938 54.242188 51.707031 53.894531 51.1875 C 53.546875 50.667969 53.226562 50.132812 52.929688 49.578125 C 52.636719 49.027344 52.367188 48.460938 52.128906 47.886719 C 51.890625 47.308594 51.679688 46.71875 51.496094 46.121094 C 51.316406 45.519531 51.164062 44.914062 51.042969 44.300781 C 50.917969 43.6875 50.828125 43.070312 50.765625 42.445312 C 50.707031 41.824219 50.675781 41.199219 50.675781 40.574219 C 50.675781 39.949219 50.707031 39.324219 50.765625 38.703125 C 50.828125 38.078125 50.917969 37.460938 51.042969 36.847656 C 51.164062 36.234375 51.316406 35.628906 51.496094 35.027344 C 51.679688 34.429688 51.890625 33.839844 52.128906 33.261719 C 52.367188 32.683594 52.636719 32.121094 52.929688 31.570312 C 53.226562 31.015625 53.546875 30.480469 53.894531 29.960938 C 54.242188 29.441406 54.613281 28.9375 55.011719 28.453125 C 55.40625 27.972656 55.828125 27.507812 56.269531 27.066406 C 56.710938 26.625 57.175781 26.203125 57.660156 25.808594 C 58.144531 25.410156 58.644531 25.039062 59.164062 24.691406 C 59.683594 24.34375 60.222656 24.019531 60.773438 23.726562 C 61.324219 23.429688 61.890625 23.164062 62.46875 22.925781 C 63.046875 22.683594 63.632812 22.472656 64.234375 22.292969 C 64.832031 22.109375 65.4375 21.960938 66.050781 21.835938 C 66.664062 21.714844 67.285156 21.625 67.90625 21.5625 C 68.527344 21.5 69.152344 21.46875 69.777344 21.46875 C 70.402344 21.46875 71.027344 21.5 71.652344 21.5625 C 72.273438 21.625 72.890625 21.714844 73.503906 21.835938 C 74.117188 21.960938 74.726562 22.109375 75.324219 22.292969 C 75.921875 22.472656 76.511719 22.683594 77.089844 22.925781 C 77.667969 23.164062 78.230469 23.429688 78.785156 23.726562 C 79.335938 24.019531 79.871094 24.34375 80.390625 24.691406 C 80.914062 25.039062 81.414062 25.410156 81.898438 25.808594 C 82.382812 26.203125 82.84375 26.625 83.285156 27.066406 C 83.730469 27.507812 84.148438 27.972656 84.546875 28.453125 C 84.941406 28.9375 85.316406 29.441406 85.664062 29.960938 C 86.011719 30.480469 86.332031 31.015625 86.625 31.570312 C 86.921875 32.121094 87.1875 32.683594 87.429688 33.261719 C 87.667969 33.839844 87.878906 34.429688 88.058594 35.027344 C 88.242188 35.628906 88.394531 36.234375 88.515625 36.847656 C 88.636719 37.460938 88.730469 38.078125 88.789062 38.703125 C 88.851562 39.324219 88.882812 39.949219 88.882812 40.574219 Z M 88.882812 40.574219 " fill-opacity="1" fill-rule="nonzero"/></g></g><g clip-path="url(#fc70aad3ca)"><g clip-path="url(#26649925de)"><path fill="#ffffff" d="M 86.382812 58.445312 C 86.382812 58.445312 73.414062 64.542969 66.960938 63.78125 C 60.507812 63.019531 55.976562 58.445312 55.976562 58.445312 C 55.976562 58.445312 59.75 48.738281 63.25 47.707031 C 64.648438 47.292969 66.070312 46.980469 67.515625 46.769531 C 68.722656 46.589844 69.464844 46.5625 69.464844 46.5625 L 72.167969 46.5625 C 72.167969 46.5625 72.574219 46.578125 73.226562 46.640625 C 75.140625 46.816406 79.171875 47.363281 81.179688 48.9375 C 83.871094 51.046875 86.382812 58.445312 86.382812 58.445312 Z M 86.382812 58.445312 " fill-opacity="1" fill-rule="nonzero"/></g></g><g clip-path="url(#134c6195b5)"><g clip-path="url(#afd4a0eb83)"><path fill="#8f4399" d="M 68.167969 46.679688 C 65.535156 52.589844 68.414062 53.285156 68.476562 56.101562 C 68.539062 58.914062 68.285156 62.269531 68.285156 62.269531 L 70.722656 62.269531 C 70.722656 62.269531 69.867188 55.46875 70.277344 54.265625 C 70.691406 53.0625 72.886719 49.933594 72.730469 46.707031 " fill-opacity="1" fill-rule="nonzero"/></g></g><g clip-path="url(#9b69f60650)"><g clip-path="url(#c575eb665b)"><path fill="#371952" d="M 73.226562 46.640625 C 73.09375 47.636719 72.195312 48.5625 70.941406 48.878906 C 69.390625 49.265625 67.878906 48.574219 67.566406 47.332031 C 67.519531 47.148438 67.503906 46.960938 67.515625 46.769531 C 68.722656 46.589844 69.464844 46.5625 69.464844 46.5625 L 72.167969 46.5625 C 72.167969 46.5625 72.574219 46.578125 73.226562 46.640625 Z M 73.226562 46.640625 " fill-opacity="1" fill-rule="nonzero"/></g></g><g clip-path="url(#7bf8992bf9)"><g clip-path="url(#51c0af208c)"><path fill="#371952" d="M 64.128906 34.824219 C 61.898438 36.460938 61.421875 42.863281 63.511719 44.714844 C 65.597656 46.566406 66.902344 44.882812 70.269531 44.90625 C 73.640625 44.929688 76.128906 43.761719 76.128906 40.574219 C 76.128906 32.316406 69.15625 30.554688 64.128906 34.824219 Z M 64.128906 34.824219 " fill-opacity="1" fill-rule="nonzero"/></g></g><g clip-path="url(#555c14ba00)"><g clip-path="url(#e0fa2a050e)"><path fill="#f7a8a7" d="M 68.101562 46.21875 C 68.175781 46.722656 68.21875 47.078125 68.21875 47.078125 C 68.21875 47.078125 67.972656 48.175781 69.96875 48.242188 C 70.546875 48.269531 71.089844 48.144531 71.597656 47.871094 C 72.109375 47.59375 72.507812 47.210938 72.804688 46.710938 C 72.804688 46.710938 72.367188 44.488281 72.167969 42.917969 C 72.097656 42.496094 72.089844 42.074219 72.144531 41.648438 L 67.390625 42.953125 C 67.664062 43.453125 67.949219 45.164062 68.101562 46.21875 Z M 68.101562 46.21875 " fill-opacity="1" fill-rule="nonzero"/></g></g><g clip-path="url(#c94c51d245)"><g clip-path="url(#53f57a3b17)"><path fill="#f38296" d="M 67.390625 42.953125 C 67.664062 43.453125 67.949219 45.164062 68.101562 46.21875 C 70.289062 46.296875 71.761719 44.660156 72.167969 42.917969 C 72.097656 42.496094 72.089844 42.074219 72.144531 41.648438 Z M 67.390625 42.953125 " fill-opacity="1" fill-rule="nonzero"/></g></g><g clip-path="url(#58f429237e)"><g clip-path="url(#ff1bca2f36)"><path fill="#f7a8a7" d="M 64.785156 36.390625 C 67.273438 38.992188 71.402344 38.359375 71.402344 38.359375 L 71.863281 40.09375 C 71.863281 40.09375 72.597656 37.832031 73.6875 38.664062 C 74.773438 39.492188 73.746094 40.988281 72.546875 41 C 72.546875 41 71.519531 45.382812 67.707031 44.882812 C 65.484375 44.589844 64.8125 42.078125 64.789062 40.617188 C 64.769531 39.160156 64.785156 36.390625 64.785156 36.390625 Z M 64.785156 36.390625 " fill-opacity="1" fill-rule="nonzero"/></g></g></svg>