<svg width="37" height="37" viewBox="0 0 37 37" fill="none" xmlns="http://www.w3.org/2000/svg">
<path d="M32.1284 7.10709C31.341 6.31931 30.4061 5.69438 29.3771 5.26801C28.3481 4.84164 27.2452 4.62219 26.1314 4.62219C25.0175 4.62219 23.9146 4.84164 22.8856 5.26801C21.8566 5.69438 20.9217 6.31931 20.1343 7.10709L18.5001 8.74126L16.8659 7.10709C15.2754 5.51656 13.1182 4.62302 10.8689 4.62302C8.61951 4.62302 6.46229 5.51656 4.87177 7.10709C3.28124 8.69762 2.3877 10.8548 2.3877 13.1042C2.3877 15.3535 3.28124 17.5107 4.87177 19.1013L6.50593 20.7354L18.5001 32.7296L30.4943 20.7354L32.1284 19.1013C32.9162 18.3138 33.5411 17.3789 33.9675 16.3499C34.3939 15.3209 34.6133 14.218 34.6133 13.1042C34.6133 11.9903 34.3939 10.8874 33.9675 9.85842C33.5411 8.82942 32.9162 7.89451 32.1284 7.10709Z" stroke="black" stroke-width="3.08333" stroke-linecap="round" stroke-linejoin="round"/>
</svg>
